%TF.GenerationSoftware,Altium Limited,Altium Designer,20.0.14 (345)*%
G04 Layer_Color=16711935*
%FSLAX45Y45*%
%MOMM*%
%TF.FileFunction,Other,Mechanical_1*%
%TF.Part,Single*%
G01*
G75*
%TA.AperFunction,NonConductor*%
%ADD44C,0.25400*%
%ADD45C,0.01000*%
D44*
X8649000Y7715827D02*
G03*
X8522000Y7588827I0J-127000D01*
G01*
X11522000Y7602570D02*
G03*
X11408743Y7715827I-113257J0D01*
G01*
X8522000Y4559300D02*
G03*
X8649000Y4432300I127000J0D01*
G01*
X11407700D02*
G03*
X11522000Y4546600I0J114300D01*
G01*
X10947000Y6915800D02*
G03*
X10947000Y6915800I-175000J0D01*
G01*
X9447000D02*
G03*
X9447000Y6915800I-175000J0D01*
G01*
X8649000Y7715827D02*
X10067187D01*
X11522000Y7576127D02*
Y7602570D01*
X8649000Y4432300D02*
X9639300D01*
X11407700D01*
X8522000Y4559300D02*
Y7588827D01*
X11522000Y4546600D02*
Y7576127D01*
D45*
X11744199Y11705140D02*
G03*
X11732758Y11722160I-189645J-115121D01*
G01*
X11732758D02*
G03*
X11726510Y11729946I-115900J-86615D01*
G01*
D02*
G03*
X11719802Y11737097I-86975J-74869D01*
G01*
D02*
G03*
X11712550Y11743502I-66289J-67744D01*
G01*
D02*
G03*
X11704674Y11749047I-51090J-64196D01*
G01*
X11704674Y11749047D02*
G03*
X11665280Y11760383I-40133J-65349D01*
G01*
D02*
G03*
X11553498Y11729195I218450J-998868D01*
G01*
D02*
G03*
X11529284Y11720720I440564J-1297491D01*
G01*
X11412742Y11677519D02*
G03*
X11343171Y11609409I212357J-286502D01*
G01*
X11343171D02*
G03*
X11332648Y11595479I391793J-306915D01*
G01*
D02*
G03*
X11322730Y11581494I554618J-403812D01*
G01*
X11294365Y11539412D02*
G03*
X11298612Y11476832I179202J-19273D01*
G01*
D02*
G03*
X11308407Y11436488I590073J121907D01*
G01*
Y11436488D02*
G03*
X11321726Y11391997I1143164J317967D01*
G01*
X11321726D02*
G03*
X11337375Y11344772I2337512J748363D01*
G01*
X11386365Y11200857D02*
G03*
X11370888Y11247787I-2198601J-699096D01*
G01*
X11399399Y11156856D02*
G03*
X11386365Y11200857I-1078583J-295571D01*
G01*
X11408796Y11117200D02*
G03*
X11399399Y11156856I-550774J-109571D01*
G01*
X11409309Y11091992D02*
G03*
X11408797Y11117200I-117333J10226D01*
G01*
X11407965Y11082940D02*
G03*
X11409309Y11091992I-93499J18506D01*
G01*
X11406212Y11074963D02*
G03*
X11407965Y11082940I-227082J54086D01*
G01*
X11406212Y11074963D02*
G03*
X11404542Y11067091I156804J-37367D01*
G01*
Y11067092D02*
G03*
X11403449Y11058355I77453J-14125D01*
G01*
D02*
G03*
X11403426Y11047784I84243J-5472D01*
G01*
D02*
G03*
X11404965Y11034408I126891J7823D01*
G01*
X11404965D02*
G03*
X11408559Y11017258I218665J36875D01*
G01*
D02*
G03*
X11414702Y10995363I390921J97864D01*
G01*
X11453999Y10990871D02*
G03*
X11414702Y10995363I-45392J-222978D01*
G01*
X11453999Y10990871D02*
G03*
X11491603Y10984202I132039J635106D01*
G01*
X11491603D02*
G03*
X11511804Y10982666I24313J186148D01*
G01*
X11511804D02*
G03*
X11559073Y10988423I2882J173275D01*
G01*
X11559072Y10988423D02*
G03*
X11587768Y10997808I-62169J238644D01*
G01*
D02*
G03*
X11620921Y11012925I-132944J335463D01*
G01*
Y11012926D02*
G03*
X11659348Y11034822I-254191J490741D01*
G01*
X11733438Y11094213D02*
G03*
X11659348Y11034822I1383116J-1801353D01*
G01*
X11761062Y11114621D02*
G03*
X11733438Y11094214I616078J-862797D01*
G01*
X11783519Y11129937D02*
G03*
X11761062Y11114621I336935J-518167D01*
G01*
X11801647Y11140986D02*
G03*
X11783519Y11129937I176841J-310557D01*
G01*
X11816284Y11148592D02*
G03*
X11801647Y11140986I90966J-192924D01*
G01*
X11828265Y11153581D02*
G03*
X11816284Y11148592I48878J-134265D01*
G01*
X11838427Y11156777D02*
G03*
X11828265Y11153581I32821J-122106D01*
G01*
X11847608Y11159006D02*
G03*
X11838427Y11156777I47152J-214269D01*
G01*
X11847608Y11159006D02*
G03*
X11856644Y11161091I-91621J417539D01*
G01*
X11828146Y11213167D02*
G03*
X11856644Y11161091I349366J157354D01*
G01*
X11806557Y11285231D02*
G03*
X11828146Y11213167I293266J48589D01*
G01*
X11803113Y11309786D02*
G03*
X11806557Y11285231I425628J47180D01*
G01*
X11800758Y11335501D02*
G03*
X11803113Y11309786I679323J49262D01*
G01*
X11799018Y11362915D02*
G03*
X11800758Y11335501I1496383J81205D01*
G01*
X11795496Y11424980D02*
G03*
X11792991Y11480055I-411491J8879D01*
G01*
X11792991D02*
G03*
X11789134Y11510432I-721698J-76199D01*
G01*
D02*
G03*
X11783979Y11541690I-957187J-141807D01*
G01*
X11783979Y11541690D02*
G03*
X11777855Y11573068I-1197322J-217412D01*
G01*
X11777854Y11573068D02*
G03*
X11771089Y11603804I-1416587J-295667D01*
G01*
X11771089Y11603805D02*
G03*
X11744199Y11705140I-1592488J-368350D01*
G01*
X10071134Y11227685D02*
G03*
X10057488Y11142363I624136J-143573D01*
G01*
X10057487D02*
G03*
X10054613Y11100804I820104J-77592D01*
G01*
X10054614D02*
G03*
X10054307Y11025138I969367J-41766D01*
G01*
D02*
G03*
X10060078Y10946023I1000985J33253D01*
G01*
D02*
G03*
X10061698Y10933021I644974J73761D01*
G01*
X10062347Y10928454D02*
G03*
X10036860Y10928732I-25443J-1161063D01*
G01*
X10008084Y10928558D02*
G03*
X9928752Y10925843I25734J-1912117D01*
G01*
X9928752Y10925843D02*
G03*
X9882308Y10922606I88839J-1609048D01*
G01*
Y10922605D02*
G03*
X9834087Y10917650I108936J-1297118D01*
G01*
Y10917650D02*
G03*
X9786145Y10910628I117416J-968891D01*
G01*
D02*
G03*
X9740538Y10901193I113766J-664819D01*
G01*
D02*
G03*
X9699324Y10888995I99658J-412457D01*
G01*
X9634812Y10890884D02*
G03*
X9699324Y10888995I40777J290070D01*
G01*
X9609107Y10896636D02*
G03*
X9634812Y10890884I53569J179074D01*
G01*
X9586881Y10905189D02*
G03*
X9609107Y10896636I67552J142389D01*
G01*
X9550205Y10929483D02*
G03*
X9586881Y10905189I106524J120988D01*
G01*
X9534423Y10944616D02*
G03*
X9550205Y10929483I169187J160635D01*
G01*
X9519458Y10961337D02*
G03*
X9534423Y10944616I292172J246440D01*
G01*
X9504644Y10979341D02*
G03*
X9519458Y10961337I732809J587879D01*
G01*
X9489315Y10998324D02*
G03*
X9440587Y11053738I-781231J-637847D01*
G01*
X9440587D02*
G03*
X9418582Y11076584I-1256927J-1188630D01*
G01*
X9377007Y11119542D02*
G03*
X9397541Y11098053I924792J863128D01*
G01*
X9356526Y11142447D02*
G03*
X9377007Y11119542I560656J480727D01*
G01*
X9313892Y11198095D02*
G03*
X9356526Y11142447I538836J368661D01*
G01*
X9290829Y11233631D02*
G03*
X9313893Y11198095I714993J438791D01*
G01*
X9265992Y11276172D02*
G03*
X9290829Y11233631I983036J545413D01*
G01*
X9265992Y11276172D02*
G03*
X9193857Y11383309I-581019J-313343D01*
G01*
D02*
G03*
X9157578Y11420942I-303900J-256666D01*
G01*
Y11420943D02*
G03*
X9080230Y11474086I-237542J-262870D01*
G01*
X9080229Y11474086D02*
G03*
X9037416Y11493496I-233047J-457122D01*
G01*
Y11493496D02*
G03*
X8990677Y11510732I-349114J-874718D01*
G01*
X8818189Y11568888D02*
G03*
X8881937Y11546478I762098J2065994D01*
G01*
X8818189Y11568888D02*
G03*
X8719219Y11596099I-219609J-605150D01*
G01*
D02*
G03*
X8669720Y11604535I-197205J-1007721D01*
G01*
Y11604535D02*
G03*
X8620878Y11610942I-255385J-1757515D01*
G01*
X8527158Y11621924D02*
G03*
X8573191Y11616384I324076J2498714D01*
G01*
X8483278Y11628626D02*
G03*
X8527158Y11621924I167939J952528D01*
G01*
X8442052Y11637554D02*
G03*
X8483279Y11628626I134357J520800D01*
G01*
X8403977Y11649770D02*
G03*
X8442052Y11637553I123374J319081D01*
G01*
X8369552Y11666338D02*
G03*
X8403977Y11649770I120937J207220D01*
G01*
X8298426Y11704252D02*
G03*
X8369552Y11666339I262244J406297D01*
G01*
X8267484Y11725265D02*
G03*
X8298426Y11704252I419889J585015D01*
G01*
X8238320Y11746750D02*
G03*
X8267484Y11725265I904770J1197593D01*
G01*
X8209958Y11768034D02*
G03*
X8181421Y11788443I-536183J-719585D01*
G01*
Y11788442D02*
G03*
X8151732Y11807302I-283192J-413003D01*
G01*
X8151732D02*
G03*
X8119915Y11823939I-187414J-319675D01*
G01*
X8119915Y11823939D02*
G03*
X8045988Y11847850I-136297J-295156D01*
G01*
X8077806Y11920576D02*
G03*
X8045988Y11847850I725220J-360611D01*
G01*
X8090350Y11941736D02*
G03*
X8077806Y11920576I161140J-109824D01*
G01*
X8102321Y11956053D02*
G03*
X8090350Y11941736I67035J-68216D01*
G01*
X8114975Y11965999D02*
G03*
X8102321Y11956053I42414J-66983D01*
G01*
X8129563Y11974043D02*
G03*
X8114975Y11965999I66170J-137263D01*
G01*
X8147340Y11982654D02*
G03*
X8169560Y11994303I-192290J393776D01*
G01*
X8169560D02*
G03*
X8197475Y12011461I-215871J382512D01*
G01*
D02*
G03*
X8232340Y12036596I-335920J502692D01*
G01*
X8287979Y12072704D02*
G03*
X8232340Y12036596I557601J-920148D01*
G01*
X8314267Y12087667D02*
G03*
X8287979Y12072704I294514J-547966D01*
G01*
X8339751Y12100353D02*
G03*
X8314267Y12087668I188847J-411308D01*
G01*
X8364594Y12110598D02*
G03*
X8339751Y12100353I117380J-319901D01*
G01*
X8388958Y12118236D02*
G03*
X8364594Y12110598I67519J-258035D01*
G01*
X8413006Y12123106D02*
G03*
X8388958Y12118236I31419J-216982D01*
G01*
X8436900Y12125042D02*
G03*
X8413006Y12123106I3515J-191766D01*
G01*
X8484878Y12119461D02*
G03*
X8436900Y12125042I-44832J-176374D01*
G01*
X8660781Y12045609D02*
G03*
X8484878Y12119460I-326150J-530429D01*
G01*
X8695455Y12023736D02*
G03*
X8660781Y12045609I-613841J-934655D01*
G01*
X8762115Y11979578D02*
G03*
X8796523Y11958344I505091J779955D01*
G01*
Y11958343D02*
G03*
X8833265Y11938373I322495J549544D01*
G01*
D02*
G03*
X8873550Y11920192I244588J488247D01*
G01*
X9000989Y11843799D02*
G03*
X8873550Y11920192I-306261J-366412D01*
G01*
X9033980Y11815076D02*
G03*
X9000989Y11843799I-552815J-601648D01*
G01*
X9064929Y11786163D02*
G03*
X9095457Y11757925I1105824J1164859D01*
G01*
D02*
G03*
X9127185Y11731225I410848J456015D01*
G01*
Y11731225D02*
G03*
X9161734Y11706928I249934J318676D01*
G01*
X9161734D02*
G03*
X9245781Y11668996I180844J288625D01*
G01*
X9245781Y11668996D02*
G03*
X9333656Y11642034I516790J1527637D01*
G01*
Y11642034D02*
G03*
X9369490Y11632979I255341J935086D01*
G01*
D02*
G03*
X9401312Y11626310I169404J729065D01*
G01*
X9401311Y11626310D02*
G03*
X9483129Y11616375I120055J646850D01*
G01*
Y11616376D02*
G03*
X9509328Y11615008I83153J1341448D01*
G01*
X9764241Y11579317D02*
G03*
X9566368Y11612645I-220801J-706876D01*
G01*
X9836149Y11548676D02*
G03*
X9764241Y11579317I-212252J-398408D01*
G01*
X9893412Y11510922D02*
G03*
X9836149Y11548676I-233349J-291624D01*
G01*
X9974123Y11420694D02*
G03*
X9893412Y11510922I-320422J-205412D01*
G01*
X10002631Y11371529D02*
G03*
X9974123Y11420694I-506602J-260911D01*
G01*
X10026616Y11321870D02*
G03*
X10002631Y11371529I-993364J-449155D01*
G01*
X10048606Y11273371D02*
G03*
X10071134Y11227685I732267J332680D01*
G01*
X11384371Y7745117D02*
G03*
X11408743Y7715827I98200J56928D01*
G01*
X11360036Y7780642D02*
G03*
X11384371Y7745117I904396J593399D01*
G01*
X11330953Y7826669D02*
G03*
X11360036Y7780642I1283214J778652D01*
G01*
X11268583Y7939970D02*
G03*
X11330953Y7826669I1323026J654486D01*
G01*
X11240319Y8002116D02*
G03*
X11268582Y7939970I998129J416432D01*
G01*
X11217353Y8064507D02*
G03*
X11240320Y8002116I727313J232300D01*
G01*
X11202196Y8124580D02*
G03*
X11217353Y8064507I477498J88536D01*
G01*
X11197358Y8179770D02*
G03*
X11202195Y8124580I279573J-3301D01*
G01*
X11197358Y8179770D02*
G03*
X11191924Y8243415I-340992J2939D01*
G01*
D02*
G03*
X11185737Y8275736I-797665J-135935D01*
G01*
X11171939Y8340356D02*
G03*
X11178708Y8308118I1429526J283296D01*
G01*
X11166534Y8372248D02*
G03*
X11171939Y8340357I571409J80431D01*
G01*
X11163597Y8403589D02*
G03*
X11166534Y8372248I336329J15717D01*
G01*
X11164229Y8434175D02*
G03*
X11163597Y8403589I225526J-19963D01*
G01*
X11169535Y8463803D02*
G03*
X11164229Y8434175I164345J-44718D01*
G01*
X11180616Y8492270D02*
G03*
X11169535Y8463803I130907J-67351D01*
G01*
X11180616Y8492270D02*
G03*
X11244835Y8619655I-6218942J3215054D01*
G01*
X11273063Y8678395D02*
G03*
X11298624Y8734115I-2751138J1295768D01*
G01*
D02*
G03*
X11321458Y8787025I-2078315J928323D01*
G01*
X11321458Y8787025D02*
G03*
X11341508Y8837337I-1599965J666738D01*
G01*
D02*
G03*
X11358713Y8885262I-1252840J476822D01*
G01*
X11358713D02*
G03*
X11373015Y8931011I-997625J336980D01*
G01*
D02*
G03*
X11384353Y8974794I-808775J232814D01*
G01*
Y8974795D02*
G03*
X11392670Y9016823I-669139J154251D01*
G01*
X11434853Y9159857D02*
G03*
X11392670Y9016823I575997J-247608D01*
G01*
X11467655Y9227434D02*
G03*
X11434853Y9159857I666993J-365502D01*
G01*
X11506768Y9292041D02*
G03*
X11467655Y9227434I727794J-484757D01*
G01*
X11551072Y9353416D02*
G03*
X11506768Y9292041I789681J-616706D01*
G01*
X11599444Y9411301D02*
G03*
X11551072Y9353416I846637J-756655D01*
G01*
X11703911Y9515566D02*
G03*
X11599444Y9411301I879125J-985295D01*
G01*
X11811197Y9602761D02*
G03*
X11703911Y9515566I872623J-1183291D01*
G01*
X11811197Y9602761D02*
G03*
X12034228Y9833993I-586735J789103D01*
G01*
X12034228Y9833993D02*
G03*
X12152811Y10054548I-922770J638290D01*
G01*
D02*
G03*
X12224143Y10305886I-1153334J463117D01*
G01*
D02*
G03*
X12235016Y10448444I-890659J139624D01*
G01*
X12240121Y10586457D02*
G03*
X12236114Y10517933I915123J-87890D01*
G01*
X12251387Y10654190D02*
G03*
X12240121Y10586458I487323J-115864D01*
G01*
X12274264Y10721301D02*
G03*
X12251387Y10654190I347629J-155954D01*
G01*
X12313103Y10787965D02*
G03*
X12274264Y10721302I303882J-221687D01*
G01*
X12372253Y10854352D02*
G03*
X12313103Y10787965I317971J-342854D01*
G01*
X12456066Y10920634D02*
G03*
X12372253Y10854352I381487J-568515D01*
G01*
X12568893Y10986984D02*
G03*
X12456066Y10920634I495562J-971795D01*
G01*
X12568893Y10986985D02*
G03*
X12706681Y11061915I-1491469J2906782D01*
G01*
Y11061915D02*
G03*
X12774051Y11102379I-1147397J1986636D01*
G01*
X12774051Y11102380D02*
G03*
X12839850Y11145360I-1009270J1616973D01*
G01*
X12839850D02*
G03*
X12903664Y11191243I-918185J1344303D01*
G01*
D02*
G03*
X12965076Y11240417I-858284J1134815D01*
G01*
D02*
G03*
X13023668Y11293268I-821391J969538D01*
G01*
D02*
G03*
X13130739Y11411553I-774074J808289D01*
G01*
X13130739D02*
G03*
X13178384Y11477761I-818595J639337D01*
G01*
D02*
G03*
X13233644Y11595489I-427764J272617D01*
G01*
X13233644D02*
G03*
X13253136Y11658746I-1257387J422087D01*
G01*
X13290904Y11787026D02*
G03*
X13253136Y11658746I2603270J-836155D01*
G01*
X13315204Y11849243D02*
G03*
X13290904Y11787026I617780J-277140D01*
G01*
X13347130Y11908306D02*
G03*
X13315204Y11849243I385379J-246476D01*
G01*
X13389696Y11962811D02*
G03*
X13347131Y11908306I272342J-256549D01*
G01*
X13518787Y12052537D02*
G03*
X13389696Y11962811I159097J-366624D01*
G01*
X13620839Y12092006D02*
G03*
X13518787Y12052537I399579J-1184865D01*
G01*
X13670761Y12109615D02*
G03*
X13719693Y12128581I-354458J987119D01*
G01*
X13719693Y12128581D02*
G03*
X13767448Y12150984I-233266J559342D01*
G01*
D02*
G03*
X13813837Y12178904I-213839J407791D01*
G01*
D02*
G03*
X13901762Y12259616I-243935J353978D01*
G01*
X13901762D02*
G03*
X13942918Y12316568I-416390J344258D01*
G01*
X13942920D02*
G03*
X13981956Y12387359I-606292J380488D01*
G01*
X14193069Y12552205D02*
G03*
X13981956Y12387359I60485J-295069D01*
G01*
X14290015Y12565753D02*
G03*
X14193069Y12552205I22693J-515989D01*
G01*
X14395140Y12563301D02*
G03*
X14290016Y12565753I-70407J-763559D01*
G01*
X14505380Y12547665D02*
G03*
X14395140Y12563301I-211089J-1091867D01*
G01*
X14617670Y12521667D02*
G03*
X14505380Y12547665I-404205J-1490287D01*
G01*
X14728946Y12488124D02*
G03*
X14617670Y12521667I-645412J-1939742D01*
G01*
X14836143Y12449855D02*
G03*
X14728946Y12488123I-922987J-2416189D01*
G01*
X14936197Y12409681D02*
G03*
X14836143Y12449855I-1222296J-2899419D01*
G01*
X14936197Y12409680D02*
G03*
X14980579Y12394398I180184J451217D01*
G01*
X15030016Y12378216D02*
G03*
X15005043Y12386784I-200362J-543300D01*
G01*
X15054742Y12367966D02*
G03*
X15030016Y12378217I-141190J-305650D01*
G01*
X15078468Y12355305D02*
G03*
X15054742Y12367966I-121732J-199568D01*
G01*
X15100441Y12339505D02*
G03*
X15078468Y12355305I-115412J-137322D01*
G01*
X15119905Y12319838D02*
G03*
X15100441Y12339506I-117731J-97044D01*
G01*
X15148286Y12265986D02*
G03*
X15119905Y12319838I-148313J-43762D01*
G01*
X15148286Y12265986D02*
G03*
X15215797Y12062825I3306163J985855D01*
G01*
Y12062825D02*
G03*
X15242581Y11997399I1032246J384371D01*
G01*
D02*
G03*
X15266177Y11951174I441521J196241D01*
G01*
X15266177D02*
G03*
X15287680Y11920475I183965J105975D01*
G01*
D02*
G03*
X15308186Y11901623I83969J70763D01*
G01*
Y11901623D02*
G03*
X15328793Y11890944I51964J75046D01*
G01*
D02*
G03*
X15350592Y11884760I57052J159620D01*
G01*
X15402158Y11871176D02*
G03*
X15374683Y11879397I-83484J-228995D01*
G01*
X15503773Y11830090D02*
G03*
X15402158Y11871176I-595811J-1327398D01*
G01*
X15543814Y11810239D02*
G03*
X15503773Y11830090I-315181J-585427D01*
G01*
X15577148Y11790211D02*
G03*
X15543814Y11810238I-225709J-337917D01*
G01*
X15604129Y11769529D02*
G03*
X15577148Y11790211I-170548J-194547D01*
G01*
X15625107Y11747716D02*
G03*
X15604129Y11769529I-138399J-112108D01*
G01*
X15640437Y11724293D02*
G03*
X15625107Y11747716I-124629J-64840D01*
G01*
X15655562Y11670708D02*
G03*
X15640437Y11724293I-142957J-11425D01*
G01*
X15656062Y11639591D02*
G03*
X15655562Y11670708I-216675J12074D01*
G01*
X15656062Y11639591D02*
G03*
X15658432Y11600119I208974J-7266D01*
G01*
D02*
G03*
X15662462Y11577900I320399J46644D01*
G01*
X15662462D02*
G03*
X15675395Y11533141I332472J71817D01*
G01*
D02*
G03*
X15683971Y11512457I247652J90550D01*
G01*
X15683971Y11512458D02*
G03*
X15693732Y11494144I169330J78497D01*
G01*
X15693732Y11494143D02*
G03*
X15704517Y11479128I98937J59678D01*
G01*
D02*
G03*
X15716159Y11468340I48718J40902D01*
G01*
Y11468340D02*
G03*
X15728497Y11462708I20245J28022D01*
G01*
D02*
G03*
X15806886Y11458187I52470J227875D01*
G01*
D02*
G03*
X15865073Y11475416I-20939J177578D01*
G01*
X15865073Y11475416D02*
G03*
X15927504Y11527742I-77827J156263D01*
G01*
Y11527742D02*
G03*
X15933089Y11535907I-112420J82884D01*
G01*
X16297096Y11814564D02*
G03*
X16133304Y11747939I-9380J-211588D01*
G01*
X16356589Y11808019D02*
G03*
X16297096Y11814564I-66346J-329400D01*
G01*
X16415585Y11792223D02*
G03*
X16356589Y11808019I-152949J-453186D01*
G01*
X16472324Y11770252D02*
G03*
X16415585Y11792223I-273104J-621011D01*
G01*
X16525037Y11745181D02*
G03*
X16472324Y11770252I-442089J-861561D01*
G01*
X16571957Y11720086D02*
G03*
X16525037Y11745181I-759573J-1363830D01*
G01*
X16611325Y11698043D02*
G03*
X16641373Y11682126I283646J499135D01*
G01*
X16641373D02*
G03*
X16681195Y11675330I33410J75694D01*
G01*
D02*
G03*
X16705119Y11678702I-7755J141555D01*
G01*
D02*
G03*
X16730983Y11686526I-43252J189660D01*
G01*
D02*
G03*
X16758240Y11698753I-89409J235789D01*
G01*
X16758238Y11698753D02*
G03*
X16786334Y11715336I-142872J274140D01*
G01*
X16786334Y11715337D02*
G03*
X16814720Y11736230I-199518J300799D01*
G01*
D02*
G03*
X16870163Y11790757I-268030J327984D01*
G01*
X16870164D02*
G03*
X16896120Y11824296I-358165J304001D01*
G01*
X16896120Y11824296D02*
G03*
X16963969Y11946008I-429595J319252D01*
G01*
X16963969Y11946008D02*
G03*
X16975381Y11991654I-195845J73213D01*
G01*
Y11991654D02*
G03*
X16974866Y12029453I-130783J17115D01*
G01*
D02*
G03*
X16947284Y12088394I-124821J-22487D01*
G01*
X16947282D02*
G03*
X16924838Y12112977I-212061J-171092D01*
G01*
D02*
G03*
X16899702Y12136593I-734737J-756802D01*
G01*
X16874187Y12160965D02*
G03*
X16899702Y12136593I517629J516383D01*
G01*
X16850601Y12187812D02*
G03*
X16874187Y12160965I223902J172922D01*
G01*
X16831917Y12256526D02*
G03*
X16850601Y12187812I111718J-6520D01*
G01*
X16835849Y12300155D02*
G03*
X16831917Y12256525I266670J-46027D01*
G01*
X16846498Y12347007D02*
G03*
X16835849Y12300155I418847J-119836D01*
G01*
X16862263Y12394863D02*
G03*
X16846498Y12347007I575143J-216007D01*
G01*
X16881548Y12441502D02*
G03*
X16862263Y12394863I682400J-309453D01*
G01*
X16924271Y12522255D02*
G03*
X16881548Y12441502I606578J-372582D01*
G01*
X16944508Y12551929D02*
G03*
X16924271Y12522255I307426J-231411D01*
G01*
X16961867Y12571511D02*
G03*
X16944508Y12551930I99471J-105663D01*
G01*
X16994321Y12587486D02*
G03*
X16961867Y12571511I141606J-328632D01*
G01*
X16994321Y12587486D02*
G03*
X17024300Y12603112I-249272J514777D01*
G01*
D02*
G03*
X17059473Y12624850I-233296J416817D01*
G01*
X17059473D02*
G03*
X17096863Y12653464I-234082J344621D01*
G01*
X17096861D02*
G03*
X17133492Y12689717I-237726J276816D01*
G01*
D02*
G03*
X17192548Y12788200I-237661J209464D01*
G01*
D02*
G03*
X17212810Y12926411I-327490J118604D01*
G01*
D02*
G03*
X17190588Y13014156I-242682J-14771D01*
G01*
X17190590D02*
G03*
X17168591Y13055852I-339729J-152593D01*
G01*
X17168591Y13055852D02*
G03*
X17141835Y13095206I-414956J-253336D01*
G01*
D02*
G03*
X17112201Y13131552I-486033J-366022D01*
G01*
D02*
G03*
X17081564Y13164223I-539784J-475467D01*
G01*
Y13164223D02*
G03*
X17002415Y13233510I-539116J-536007D01*
G01*
Y13233508D02*
G03*
X16986543Y13244804I-200359J-264751D01*
G01*
X16888356Y13330058D02*
G03*
X16986543Y13244804I330610J281596D01*
G01*
X16841179Y13408919D02*
G03*
X16888356Y13330058I282015J115173D01*
G01*
X16827856Y13445250D02*
G03*
X16841179Y13408919I497796J161930D01*
G01*
X16816649Y13479147D02*
G03*
X16804013Y13510327I-265702J-89527D01*
G01*
X16804013Y13510327D02*
G03*
X16786401Y13538512I-135270J-64927D01*
G01*
X16786403Y13538512D02*
G03*
X16760272Y13563422I-106469J-85527D01*
G01*
Y13563422D02*
G03*
X16722076Y13584776I-112136J-155729D01*
G01*
X16615698Y13649020D02*
G03*
X16645776Y13629745I344763J504880D01*
G01*
X16591418Y13667757D02*
G03*
X16615698Y13649020I167644J192143D01*
G01*
X16573250Y13687155D02*
G03*
X16591418Y13667757I103564J78792D01*
G01*
X16561507Y13708415D02*
G03*
X16573250Y13687155I79773J30193D01*
G01*
X16556499Y13732738D02*
G03*
X16561507Y13708415I82638J4335D01*
G01*
X16558542Y13761324D02*
G03*
X16556499Y13732738I118026J-22802D01*
G01*
X16567947Y13795372D02*
G03*
X16558542Y13761324I207790J-75729D01*
G01*
X16585031Y13836084D02*
G03*
X16567949Y13795372I397353J-190670D01*
G01*
X16585031Y13836084D02*
G03*
X16609412Y13894044I-485965J238518D01*
G01*
X16609412Y13894044D02*
G03*
X16616460Y13920490I-188371J64365D01*
G01*
X16616460D02*
G03*
X16618620Y13945285I-115583J22563D01*
G01*
X16618620Y13945284D02*
G03*
X16614798Y13968457I-82675J-1734D01*
G01*
D02*
G03*
X16603899Y13990038I-74409J-24036D01*
G01*
X16603899Y13990038D02*
G03*
X16584830Y14010056I-84036J-60967D01*
G01*
Y14010056D02*
G03*
X16556493Y14028539I-107924J-134493D01*
G01*
D02*
G03*
X16517793Y14045518I-143665J-274845D01*
G01*
D02*
G03*
X16467641Y14061021I-189267J-523393D01*
G01*
X16382936Y14097321D02*
G03*
X16467641Y14061021I142973J216647D01*
G01*
X16357193Y14121629D02*
G03*
X16382936Y14097321I94600J74399D01*
G01*
X16337457Y14182899D02*
G03*
X16357193Y14121629I95264J-3129D01*
G01*
X16342879Y14219995D02*
G03*
X16337457Y14182899I147467J-40493D01*
G01*
X16358099Y14261488D02*
G03*
X16342879Y14219995I234821J-109681D01*
G01*
X16382829Y14307446D02*
G03*
X16358099Y14261488I379130J-233630D01*
G01*
X16416772Y14357938D02*
G03*
X16382829Y14307446I599113J-439410D01*
G01*
X16459634Y14413029D02*
G03*
X16416772Y14357938I920041J-760053D01*
G01*
X16459634Y14413028D02*
G03*
X16498235Y14485141I-186598J146269D01*
G01*
D02*
G03*
X16512675Y14628040I-290582J101544D01*
G01*
D02*
G03*
X16500475Y14676134I-235965J-34264D01*
G01*
X16500476Y14676134D02*
G03*
X16477507Y14720796I-193866J-71464D01*
G01*
X16477507Y14720796D02*
G03*
X16393842Y14791019I-169923J-117496D01*
G01*
D02*
G03*
X16330434Y14812183I-122681J-262000D01*
G01*
X16330434Y14812183D02*
G03*
X16276038Y14818752I-63591J-298066D01*
G01*
X16256509Y14819649D02*
G03*
X16276038Y14818752I40877J677313D01*
G01*
X16240588Y14822093D02*
G03*
X16256509Y14819649I20389J79714D01*
G01*
X16227142Y14828442D02*
G03*
X16240588Y14822093I24027J33476D01*
G01*
X16215039Y14841049D02*
G03*
X16227142Y14828442I44188J30307D01*
G01*
X16203148Y14862271D02*
G03*
X16215039Y14841049I120053J53322D01*
G01*
X16190340Y14894463D02*
G03*
X16203148Y14862271I362011J125400D01*
G01*
X16175481Y14939980D02*
G03*
X16190340Y14894463I1082902J328327D01*
G01*
X16157442Y15001176D02*
G03*
X16175481Y14939980I3322163J946052D01*
G01*
X16157442Y15001176D02*
G03*
X16116344Y15055663I-88890J-24304D01*
G01*
X16116345D02*
G03*
X16094768Y15067068I-84333J-133427D01*
G01*
Y15067068D02*
G03*
X16069789Y15076508I-109703J-252548D01*
G01*
X16069789Y15076508D02*
G03*
X16041737Y15084824I-176359J-543411D01*
G01*
X15942369Y15111502D02*
G03*
X15977702Y15101476I314671J1041566D01*
G01*
X15905257Y15123792D02*
G03*
X15942369Y15111502I253852J704413D01*
G01*
X15835217Y15189508D02*
G03*
X15905258Y15123792I127283J65476D01*
G01*
X15808919Y15241718D02*
G03*
X15835217Y15189508I409616J173607D01*
G01*
X15785442Y15300986D02*
G03*
X15808919Y15241718I1131032J413727D01*
G01*
X15762543Y15362933D02*
G03*
X15737979Y15423181I-979846J-364363D01*
G01*
X15737979D02*
G03*
X15709506Y15477348I-412882J-182466D01*
G01*
D02*
G03*
X15674881Y15521053I-196274J-119932D01*
G01*
D02*
G03*
X15631857Y15549916I-97720J-99164D01*
G01*
Y15549916D02*
G03*
X15578197Y15559557I-49246J-119950D01*
G01*
X15410657Y15594128D02*
G03*
X15578197Y15559557I141860J264215D01*
G01*
X15336620Y15686172D02*
G03*
X15410657Y15594128I174494J64559D01*
G01*
X15317659Y15743053D02*
G03*
X15336620Y15686172I482372J129197D01*
G01*
X15301668Y15801466D02*
G03*
X15281842Y15857137I-398582J-110576D01*
G01*
Y15857138D02*
G03*
X15251379Y15905791I-180991J-79460D01*
G01*
Y15905789D02*
G03*
X15131339Y15964925I-136451J-125585D01*
G01*
X15030043Y15989655D02*
G03*
X15131339Y15964925I188312J551500D01*
G01*
X14983162Y16006879D02*
G03*
X15030045Y15989655I335593J840979D01*
G01*
X14938393Y16025528D02*
G03*
X14983162Y16006879I650451J1498481D01*
G01*
X14895433Y16044238D02*
G03*
X14853987Y16061649I-623165J-1425449D01*
G01*
Y16061649D02*
G03*
X14813753Y16076398I-247920J-614085D01*
G01*
Y16076398D02*
G03*
X14774431Y16087122I-120320J-363718D01*
G01*
Y16087122D02*
G03*
X14735722Y16092459I-54374J-251275D01*
G01*
X14735722D02*
G03*
X14697330Y16091049I-11923J-198768D01*
G01*
X14595750Y16077489D02*
G03*
X14697330Y16091049I-722388J5798541D01*
G01*
X14556380Y16073683D02*
G03*
X14595750Y16077489I-63334J860713D01*
G01*
X14521394Y16072462D02*
G03*
X14556381Y16073683I1695J453777D01*
G01*
X14488373Y16074283D02*
G03*
X14521394Y16072462I34721J329646D01*
G01*
X14454897Y16079593D02*
G03*
X14488373Y16074283I69467J329746D01*
G01*
X14418542Y16088847D02*
G03*
X14454897Y16079593I132457J444296D01*
G01*
X14376892Y16102498D02*
G03*
X14418542Y16088847I273153J763053D01*
G01*
X14327525Y16120998D02*
G03*
X14376892Y16102499I625328J1593577D01*
G01*
X14133636Y16225426D02*
G03*
X14268021Y16144800I320661J382159D01*
G01*
X14085074Y16269983D02*
G03*
X14133636Y16225426I542160J542154D01*
G01*
X14041740Y16313510D02*
G03*
X13998244Y16353111I-416443J-413719D01*
G01*
Y16353111D02*
G03*
X13949191Y16385892I-192876J-235526D01*
G01*
Y16385892D02*
G03*
X13812854Y16419408I-139447J-273188D01*
G01*
X13812852Y16419408D02*
G03*
X13714783Y16414352I-17549J-613405D01*
G01*
X13714783Y16414352D02*
G03*
X13589589Y16390897I149477J-1143600D01*
G01*
X13393407Y16365918D02*
G03*
X13589589Y16390897I-207J784541D01*
G01*
X13261812Y16385381D02*
G03*
X13393407Y16365918I140646J496344D01*
G01*
X13207043Y16401630D02*
G03*
X13261812Y16385381I553804J1766229D01*
G01*
X13207043Y16401630D02*
G03*
X13152589Y16416812I-265114J-845643D01*
G01*
Y16416811D02*
G03*
X13093176Y16426868I-102367J-424286D01*
G01*
D02*
G03*
X13023524Y16427737I-40134J-424484D01*
G01*
X13023526D02*
G03*
X12938361Y16415363I42172J-589508D01*
G01*
Y16415363D02*
G03*
X12832404Y16385686I211312J-958413D01*
G01*
D02*
G03*
X12717334Y16342300I739204J-2134870D01*
G01*
X12671364Y16325296D02*
G03*
X12717334Y16342300I-298939J878822D01*
G01*
X12629901Y16314204D02*
G03*
X12671364Y16325296I-60232J308222D01*
G01*
X12590546Y16311118D02*
G03*
X12629901Y16314204I6109J174542D01*
G01*
X12508550Y16337320D02*
G03*
X12590546Y16311119I92171J147042D01*
G01*
X12461108Y16370790D02*
G03*
X12508550Y16337320I241207J291540D01*
G01*
X12406169Y16420627D02*
G03*
X12461108Y16370789I549361J550404D01*
G01*
X12341331Y16488922D02*
G03*
X12406169Y16420627I1223836J1096963D01*
G01*
X12341331Y16488922D02*
G03*
X12157685Y16646156I-656594J-581015D01*
G01*
Y16646156D02*
G03*
X11874180Y16750200I-388007J-618990D01*
G01*
X11874180Y16750201D02*
G03*
X11777612Y16760143I-151035J-993067D01*
G01*
D02*
G03*
X11680041Y16762053I-76398J-1409517D01*
G01*
D02*
G03*
X11581488Y16758534I35553J-2377383D01*
G01*
X11209263Y16744936D02*
G03*
X11381510Y16745618I80265J1478656D01*
G01*
X11127093Y16752716D02*
G03*
X11209263Y16744936I147246J1117198D01*
G01*
X10801668Y16851659D02*
G03*
X11127093Y16752716I467196J951991D01*
G01*
X10716175Y16896277D02*
G03*
X10801668Y16851659I717073J1269749D01*
G01*
X10627048Y16950020D02*
G03*
X10716175Y16896277I986839J1535777D01*
G01*
X10533296Y17013475D02*
G03*
X10627048Y16950020I1372708J1927152D01*
G01*
X10533295Y17013475D02*
G03*
X10366549Y17111906I-597545J-821810D01*
G01*
X10366549D02*
G03*
X10280075Y17144489I-279412J-610514D01*
G01*
D02*
G03*
X9992625Y17156540I-167633J-564221D01*
G01*
Y17156541D02*
G03*
X9883125Y17126669I157458J-792821D01*
G01*
Y17126669D02*
G03*
X9764614Y17077191I360547J-1030266D01*
G01*
X9764614Y17077191D02*
G03*
X9635789Y17006509I675350J-1383646D01*
G01*
X9635789D02*
G03*
X9495349Y16913029I1155401J-1888035D01*
G01*
X9224126Y16766525D02*
G03*
X9495349Y16913029I-377296J1022800D01*
G01*
X9102567Y16734099D02*
G03*
X9224126Y16766525I-137368J759045D01*
G01*
X8882731Y16728831D02*
G03*
X9102567Y16734100I92740J719448D01*
G01*
X8782524Y16747160D02*
G03*
X8882731Y16728831I217439J905709D01*
G01*
X8687504Y16773578D02*
G03*
X8782524Y16747160I423466J1339030D01*
G01*
X8596707Y16803671D02*
G03*
X8687504Y16773578I1165260J3363823D01*
G01*
X8596707Y16803670D02*
G03*
X8509167Y16833025I-1461809J-4214214D01*
G01*
X8509167D02*
G03*
X8423921Y16857225I-368083J-1134333D01*
G01*
X8352956Y16883200D02*
G03*
X8423921Y16857225I266076J616984D01*
G01*
X8301475Y16903403D02*
G03*
X8242799Y16924580I-571434J-1491373D01*
G01*
D02*
G03*
X8179534Y16943857I-338591J-997785D01*
G01*
Y16943857D02*
G03*
X8114282Y16958357I-188489J-694148D01*
G01*
X8114283D02*
G03*
X8049650Y16965205I-82609J-471290D01*
G01*
Y16965205D02*
G03*
X7988241Y16961523I-12216J-310268D01*
G01*
Y16961523D02*
G03*
X7932658Y16944438I32923J-206055D01*
G01*
X7932658D02*
G03*
X7885506Y16911072I71645J-151245D01*
G01*
X7654644Y16797003D02*
G03*
X7885506Y16911072I-41473J374591D01*
G01*
X7612271Y16793439D02*
G03*
X7654644Y16797003I-25726J559427D01*
G01*
X7572466Y16792494D02*
G03*
X7612271Y16793439I-1741J912050D01*
G01*
X7535786Y16792542D02*
G03*
X7502788Y16791953I-3743J-716595D01*
G01*
Y16791953D02*
G03*
X7474031Y16789104I9055J-237906D01*
G01*
D02*
G03*
X7341234Y16718304I30937J-217970D01*
G01*
X7341234Y16718304D02*
G03*
X7312584Y16682893I295055J-268022D01*
G01*
X7312584Y16682893D02*
G03*
X7286030Y16644911I1435036J-1031495D01*
G01*
X7258146Y16606354D02*
G03*
X7286030Y16644911I-661360J507655D01*
G01*
X7225504Y16569221D02*
G03*
X7258146Y16606354I-267460J268033D01*
G01*
X7184678Y16535515D02*
G03*
X7225504Y16569221I-162832J238801D01*
G01*
X7132239Y16507231D02*
G03*
X7184678Y16535515I-113915J273950D01*
G01*
X7064763Y16486369D02*
G03*
X7132240Y16507231I-79148J375565D01*
G01*
X7064763Y16486369D02*
G03*
X6860339Y16438641I1048281J-4951534D01*
G01*
X6860339D02*
G03*
X6788407Y16418307I426232J-1645150D01*
G01*
D02*
G03*
X6732245Y16398993I250897J-820883D01*
G01*
X6732246Y16398993D02*
G03*
X6688544Y16379703I169545J-443225D01*
G01*
X6688544Y16379703D02*
G03*
X6653991Y16359435I142693J-282856D01*
G01*
X6653991D02*
G03*
X6625275Y16337190I164318J-241800D01*
G01*
Y16337190D02*
G03*
X6599084Y16311974I281965J-319067D01*
G01*
X6599083Y16311974D02*
G03*
X6572106Y16282785I919555J-876913D01*
G01*
X6541032Y16248624D02*
G03*
X6430590Y16081387I341951J-345911D01*
G01*
D02*
G03*
X6419390Y16019745I189464J-66261D01*
G01*
Y16019743D02*
G03*
X6442268Y15928680I196207J886D01*
G01*
X6468490Y15864946D02*
G03*
X6459238Y15894569I-91632J-12363D01*
G01*
X6429628Y15809779D02*
G03*
X6468490Y15864946I-20450J55677D01*
G01*
X6364407Y15779547D02*
G03*
X6429628Y15809779I-138792J384884D01*
G01*
X6364407Y15779547D02*
G03*
X6261535Y15738370I610569J-1674442D01*
G01*
Y15738370D02*
G03*
X6192705Y15704562I397837J-896975D01*
G01*
D02*
G03*
X6122808Y15661424I332993J-617738D01*
G01*
X6122808Y15661424D02*
G03*
X6059738Y15608562I267385J-383062D01*
G01*
D02*
G03*
X6011393Y15545583I211854J-212674D01*
G01*
D02*
G03*
X5985666Y15472095I185419J-106159D01*
G01*
X5985666D02*
G03*
X5990456Y15387711I211115J-30347D01*
G01*
X5990455Y15387711D02*
G03*
X6033656Y15292036I314808J84557D01*
G01*
D02*
G03*
X6123163Y15184682I524770J346536D01*
G01*
X6170306Y15111958D02*
G03*
X6123163Y15184682I-159208J-51566D01*
G01*
X6173036Y15080034D02*
G03*
X6170306Y15111958I-83984J8896D01*
G01*
X6144472Y15029997D02*
G03*
X6173037Y15080034I-45485J59138D01*
G01*
X6116240Y15013858D02*
G03*
X6144472Y15029997I-38894J100803D01*
G01*
X6080751Y15004958D02*
G03*
X6116240Y15013858I-17966J146819D01*
G01*
X6039535Y15004279D02*
G03*
X6080751Y15004958I17443J192730D01*
G01*
X5994125Y15012811D02*
G03*
X6039535Y15004279I66845J230624D01*
G01*
X5946053Y15031544D02*
G03*
X5994125Y15012811I127960J257338D01*
G01*
X5946052Y15031544D02*
G03*
X5776248Y15038629I-94241J-220284D01*
G01*
Y15038629D02*
G03*
X5679448Y15002071I152815J-551053D01*
G01*
X5679448D02*
G03*
X5579788Y14946616I418822J-869941D01*
G01*
D02*
G03*
X5481073Y14878139I780788J-1230991D01*
G01*
D02*
G03*
X5387106Y14802522I1177975J-1560029D01*
G01*
Y14802522D02*
G03*
X5171735Y14591600I1412349J-1657551D01*
G01*
D02*
G03*
X5134802Y14546194I528958J-467985D01*
G01*
X5088578Y14504659D02*
G03*
X5134802Y14546194I-218096J289198D01*
G01*
X5043018Y14469638D02*
G03*
X5088578Y14504657I-783741J1066777D01*
G01*
X4760398Y14304106D02*
G03*
X5043018Y14469638I-624737J1390671D01*
G01*
X4675204Y14271263D02*
G03*
X4760398Y14304106I-317989J951774D01*
G01*
X4588418Y14247798D02*
G03*
X4675204Y14271263I-154855J744954D01*
G01*
X4502150Y14236691D02*
G03*
X4588418Y14247798I-28131J559073D01*
G01*
X4502150Y14236691D02*
G03*
X4261473Y14169443I18593J-530851D01*
G01*
X4261473D02*
G03*
X4045712Y13901350I226655J-403282D01*
G01*
X4045711D02*
G03*
X4029774Y13776942I366563J-110183D01*
G01*
X4004765Y13624493D02*
G03*
X4029775Y13776942I-285253J125072D01*
G01*
X3924571Y13539616D02*
G03*
X4004765Y13624493I-100486J175267D01*
G01*
X3869341Y13512418D02*
G03*
X3924571Y13539616I-144143J362361D01*
G01*
X3806990Y13489989D02*
G03*
X3869341Y13512418I-290119J904432D01*
G01*
X3806990Y13489990D02*
G03*
X3669819Y13443285I675420J-2208428D01*
G01*
Y13443283D02*
G03*
X3599449Y13410924I249623J-635534D01*
G01*
X3599449D02*
G03*
X3530856Y13367172I241968J-455004D01*
G01*
D02*
G03*
X3413733Y13173584I175590J-238459D01*
G01*
X3413733D02*
G03*
X3408970Y13123351I369976J-60418D01*
G01*
D02*
G03*
X3410240Y13075423I444923J-12197D01*
G01*
Y13075423D02*
G03*
X3415653Y13031319I526915J42290D01*
G01*
Y13031320D02*
G03*
X3423322Y12992561I622310J103000D01*
G01*
X3423322Y12992561D02*
G03*
X3431360Y12960667I805227J185962D01*
G01*
X3437877Y12937158D02*
G03*
X3461869Y12866330I1579725J495631D01*
G01*
X3478252Y12816100D02*
G03*
X3461869Y12866330I-1448514J-444633D01*
G01*
X3493771Y12759565D02*
G03*
X3478252Y12816098I-950057J-230409D01*
G01*
X3505587Y12699410D02*
G03*
X3493771Y12759565I-680056J-102341D01*
G01*
X3510859Y12638317D02*
G03*
X3505587Y12699410I-476311J-10325D01*
G01*
X3506745Y12578967D02*
G03*
X3510858Y12638317I-318434J51888D01*
G01*
X3490406Y12524041D02*
G03*
X3506745Y12578967I-204710J90789D01*
G01*
X3459001Y12476223D02*
G03*
X3490406Y12524041I-131860J120821D01*
G01*
X3409689Y12438193D02*
G03*
X3459001Y12476223I-89298J166773D01*
G01*
X3409689Y12438193D02*
G03*
X3359327Y12405870I161432J-306922D01*
G01*
D02*
G03*
X3340915Y12389019I106842J-135228D01*
G01*
D02*
G03*
X3326692Y12370911I92878J-87591D01*
G01*
D02*
G03*
X3309843Y12328527I101652J-64952D01*
G01*
Y12328527D02*
G03*
X3306731Y12303054I173712J-34145D01*
G01*
Y12303053D02*
G03*
X3306838Y12273928I274721J-13552D01*
G01*
X3306838Y12273928D02*
G03*
X3309921Y12240551I462324J25877D01*
G01*
D02*
G03*
X3315738Y12202325I819392J105125D01*
G01*
X3317871Y12126620D02*
G03*
X3315738Y12202325I-342647J28227D01*
G01*
X3313376Y12085585D02*
G03*
X3317872Y12126620I-545793J80560D01*
G01*
X3305946Y12044129D02*
G03*
X3313376Y12085586I-657628J139245D01*
G01*
X3271867Y11929963D02*
G03*
X3305947Y12044129I-664582J260555D01*
G01*
X3258512Y11899557D02*
G03*
X3271866Y11929963I-408594J197583D01*
G01*
X3245130Y11875097D02*
G03*
X3258512Y11899557I-225158J139087D01*
G01*
X3232299Y11857860D02*
G03*
X3245130Y11875097I-85028J76685D01*
G01*
X3125785Y11754684D02*
G03*
X3232299Y11857860I-1783304J1947572D01*
G01*
X3125785Y11754684D02*
G03*
X3061132Y11695139I1885600J-2112207D01*
G01*
D02*
G03*
X3039001Y11671202I219176J-224844D01*
G01*
X3039000D02*
G03*
X3004123Y11613950I193744J-157276D01*
G01*
X3004123Y11613950D02*
G03*
X2986975Y11572215I588807J-266316D01*
G01*
D02*
G03*
X2967087Y11516127I1756576J-654450D01*
G01*
X2942256Y11441477D02*
G03*
X2928819Y11378365I262668J-88912D01*
G01*
Y11378366D02*
G03*
X2928217Y11351113I211828J-18310D01*
G01*
Y11351113D02*
G03*
X2943334Y11282338I209242J9943D01*
G01*
X2943334Y11282338D02*
G03*
X2951918Y11262564I305129J120707D01*
G01*
Y11262564D02*
G03*
X2961226Y11243778I545896J258785D01*
G01*
X2979501Y11207758D02*
G03*
X2961226Y11243778I-1054753J-512479D01*
G01*
X3001451Y11137735D02*
G03*
X2979501Y11207758I-226676J-32602D01*
G01*
X3001789Y11109948D02*
G03*
X3001451Y11137735I-126569J12353D01*
G01*
X2986953Y11063708D02*
G03*
X3001789Y11109948I-105123J59230D01*
G01*
X2974081Y11043206D02*
G03*
X2986953Y11063708I-174490J123843D01*
G01*
X2959109Y11023085D02*
G03*
X2974081Y11043206I-433396J338111D01*
G01*
X2943189Y11002320D02*
G03*
X2927472Y10979889I317319J-239051D01*
G01*
X2927472D02*
G03*
X2913111Y10954766I215185J-139679D01*
G01*
X2874165Y10881040D02*
G03*
X2913111Y10954766I-1593531J888915D01*
G01*
X2874166Y10881040D02*
G03*
X2859379Y10853812I1444457J-802074D01*
G01*
D02*
G03*
X2847700Y10829959I344876J-183649D01*
G01*
D02*
G03*
X2839116Y10807195I185843J-83078D01*
G01*
D02*
G03*
X2831186Y10755791I181971J-54385D01*
G01*
D02*
G03*
X2831816Y10722577I376776J-9470D01*
G01*
Y10722578D02*
G03*
X2835492Y10681309I772026J47977D01*
G01*
D02*
G03*
X2842203Y10629699I1762079J202883D01*
G01*
D02*
G03*
X2891434Y10503174I308374J47150D01*
G01*
D02*
G03*
X2924267Y10464021I204890J138469D01*
G01*
X2924267Y10464020D02*
G03*
X2966305Y10432581I144039J148773D01*
G01*
D02*
G03*
X3080385Y10407733I98587J178324D01*
G01*
Y10407734D02*
G03*
X3153621Y10421769I-20387J304468D01*
G01*
X3153620D02*
G03*
X3238449Y10458406I-147352J457697D01*
G01*
Y10458406D02*
G03*
X3335468Y10521368I-381877J694672D01*
G01*
Y10521368D02*
G03*
X3382878Y10568951I-219081J265697D01*
G01*
X3408566Y10597817D02*
G03*
X3382879Y10568951I1180476J-1076331D01*
G01*
X3436705Y10626051D02*
G03*
X3408565Y10597817I303111J-330237D01*
G01*
X3468147Y10650643D02*
G03*
X3436705Y10626051I138603J-209607D01*
G01*
X3503740Y10668581D02*
G03*
X3468147Y10650643I58448J-160250D01*
G01*
X3590772Y10672454D02*
G03*
X3503740Y10668582I-37158J-144850D01*
G01*
X3643910Y10652365D02*
G03*
X3590772Y10672453I-110144J-211029D01*
G01*
X3704593Y10613579D02*
G03*
X3643910Y10652365I-248516J-321958D01*
G01*
X3704593Y10613579D02*
G03*
X3751373Y10579897I595112J777217D01*
G01*
X3751373Y10579898D02*
G03*
X3770493Y10567665I286933J427391D01*
G01*
Y10567664D02*
G03*
X3787596Y10557869I189958J311868D01*
G01*
Y10557870D02*
G03*
X3803308Y10550037I137193J255543D01*
G01*
X3803308Y10550038D02*
G03*
X3833054Y10538360I119646J261038D01*
G01*
X3833053D02*
G03*
X3848335Y10533563I154641J465954D01*
G01*
X3882834Y10523679D02*
G03*
X4067919Y10472323I2259130J7782609D01*
G01*
Y10472323D02*
G03*
X4167055Y10447561I1062891J4044491D01*
G01*
D02*
G03*
X4267564Y10425548I693546J2926243D01*
G01*
X4267564Y10425548D02*
G03*
X4367181Y10407889I428058J2124873D01*
G01*
X4367182D02*
G03*
X4463642Y10396186I231762J1506941D01*
G01*
D02*
G03*
X4554678Y10392044I92328J1026846D01*
G01*
X4554678D02*
G03*
X4638026Y10397068I1713J665564D01*
G01*
D02*
G03*
X4711419Y10412859I-49946J410569D01*
G01*
Y10412860D02*
G03*
X4772591Y10441024I-76955J247658D01*
G01*
X4812509Y10465803D02*
G03*
X4772591Y10441024I511394J-868399D01*
G01*
X4825597Y10472752D02*
G03*
X4812509Y10465803I82779J-171693D01*
G01*
X4835647Y10476730D02*
G03*
X4825597Y10472752I21186J-68201D01*
G01*
X4843817Y10478229D02*
G03*
X4835647Y10476730I2225J-35137D01*
G01*
X4851265Y10477742D02*
G03*
X4843817Y10478229I-5802J-31473D01*
G01*
X4859150Y10475758D02*
G03*
X4851265Y10477742I-20625J-65328D01*
G01*
X4868628Y10472771D02*
G03*
X4880858Y10469272I73211J232784D01*
G01*
X4880858Y10469273D02*
G03*
X4896997Y10465754I57228J223717D01*
G01*
X4933735Y10455720D02*
G03*
X4896997Y10465754I-84874J-238483D01*
G01*
X4933735Y10455720D02*
G03*
X4946939Y10452370I27738J81633D01*
G01*
Y10452370D02*
G03*
X4978711Y10456931I7515J60585D01*
G01*
X4978710Y10456931D02*
G03*
X5003555Y10468014I-84845J223602D01*
G01*
D02*
G03*
X5038558Y10487078I-341875J669371D01*
G01*
X5038558D02*
G03*
X5086858Y10515709I-1175569J2038180D01*
G01*
X5273562Y10608237D02*
G03*
X5235901Y10608015I-18666J-28027D01*
G01*
X5291318Y10593296D02*
G03*
X5273562Y10608237I-61071J-54552D01*
G01*
X5308690Y10571276D02*
G03*
X5291318Y10593296I-166606J-113581D01*
G01*
X5325930Y10544395D02*
G03*
X5308690Y10571276I-430733J-257285D01*
G01*
X5343288Y10514872D02*
G03*
X5361013Y10484923I1358282J783690D01*
G01*
X5361013D02*
G03*
X5379356Y10456767I437805J265169D01*
G01*
D02*
G03*
X5398568Y10432621I197209J137191D01*
G01*
X5398568D02*
G03*
X5418898Y10414703I86561J77718D01*
G01*
X5710276Y10039926D02*
G03*
X5418898Y10414703I-687681J-233994D01*
G01*
X5734675Y9961763D02*
G03*
X5710276Y10039926I-1037301J-280916D01*
G01*
X5753345Y9885460D02*
G03*
X5734675Y9961764I-1579123J-345930D01*
G01*
X5768667Y9812271D02*
G03*
X5753344Y9885460I-4084504J-816927D01*
G01*
X5768667Y9812271D02*
G03*
X5783028Y9743450I3892410J776285D01*
G01*
D02*
G03*
X5798809Y9680253I1023727J222071D01*
G01*
D02*
G03*
X5829066Y9630820I111015J33972D01*
G01*
D02*
G03*
X5852069Y9611036I141658J141451D01*
G01*
Y9611036D02*
G03*
X5878185Y9593611I198150J268695D01*
G01*
D02*
G03*
X5905809Y9577847I350348J581842D01*
G01*
X5959166Y9548511D02*
G03*
X5933338Y9563046I-344335J-581663D01*
G01*
X5981691Y9533545D02*
G03*
X5959166Y9548512I-149568J-200665D01*
G01*
X5999309Y9517448D02*
G03*
X5981691Y9533545I-86233J-76694D01*
G01*
X6010416Y9499525D02*
G03*
X5999309Y9517448I-56465J-22587D01*
G01*
X6010416Y9499525D02*
G03*
X6106294Y9316590I836000J321565D01*
G01*
D02*
G03*
X6132516Y9281110I559532J386101D01*
G01*
D02*
G03*
X6160852Y9247936I447882J353867D01*
G01*
X6160852D02*
G03*
X6191200Y9217898I343517J316712D01*
G01*
X6191200D02*
G03*
X6223459Y9191826I252172J279028D01*
G01*
X6223458Y9191826D02*
G03*
X6257528Y9170552I176485J244707D01*
G01*
D02*
G03*
X6274766Y9173211I115J56465D01*
G01*
X6274766Y9173211D02*
G03*
X6288253Y9180089I-16207J48442D01*
G01*
Y9180089D02*
G03*
X6294294Y9184802I-46236J65488D01*
G01*
Y9184802D02*
G03*
X6300240Y9190200I-97864J113796D01*
G01*
X6320330Y9209264D02*
G03*
X6312977Y9202554I157607J-180083D01*
G01*
X6328714Y9216165D02*
G03*
X6320330Y9209264I111866J-144452D01*
G01*
X6348764Y9230357D02*
G03*
X6328714Y9216165I225672J-340069D01*
G01*
X6359703Y9237831D02*
G03*
X6370689Y9245705I-223079J322847D01*
G01*
D02*
G03*
X6381300Y9254090I-135099J181878D01*
G01*
D02*
G03*
X6391114Y9263096I-96692J115217D01*
G01*
Y9263096D02*
G03*
X6399710Y9272835I-75026J74882D01*
G01*
Y9272835D02*
G03*
X6406665Y9283417I-62076J48377D01*
G01*
Y9283417D02*
G03*
X6411558Y9294954I-55538J30361D01*
G01*
X6411558D02*
G03*
X6413967Y9307556I-55192J17081D01*
G01*
X6440132Y9370258D02*
G03*
X6413967Y9307555I122986J-88133D01*
G01*
X6467599Y9408271D02*
G03*
X6440132Y9370258I334905J-270915D01*
G01*
X6502582Y9448046D02*
G03*
X6467598Y9408271I443969J-425756D01*
G01*
X6637089Y9557840D02*
G03*
X6502582Y9448045I370067J-590651D01*
G01*
X6686597Y9584561D02*
G03*
X6637089Y9557840I200826J-431294D01*
G01*
X6735850Y9602996D02*
G03*
X6686597Y9584562I91358J-319116D01*
G01*
X6783295Y9611132D02*
G03*
X6735850Y9602996I12736J-216676D01*
G01*
X6783295Y9611131D02*
G03*
X6812586Y9617575I-5417J94419D01*
G01*
X6812585Y9617575D02*
G03*
X6826149Y9623341I-75442J196284D01*
G01*
X6855178Y9636410D02*
G03*
X6840076Y9629857I109537J-273097D01*
G01*
X6872268Y9642291D02*
G03*
X6855178Y9636410I52059J-179064D01*
G01*
X6915662Y9649190D02*
G03*
X6872268Y9642291I6792J-182648D01*
G01*
X6943591Y9648786D02*
G03*
X6915662Y9649190I-17601J-251525D01*
G01*
X6976759Y9644866D02*
G03*
X6943591Y9648786I-57612J-345197D01*
G01*
X6976759Y9644867D02*
G03*
X7045484Y9640322I59770J381966D01*
G01*
D02*
G03*
X7080960Y9641750I-12688J756626D01*
G01*
D02*
G03*
X7118140Y9644452I-130618J2054512D01*
G01*
X7200504Y9650101D02*
G03*
X7157748Y9647534I72489J-1564911D01*
G01*
X7247131Y9651258D02*
G03*
X7200505Y9650100I4196J-1108859D01*
G01*
X7417454Y9637329D02*
G03*
X7247131Y9651258I-167914J-1004920D01*
G01*
X7537641Y9617291D02*
G03*
X7559020Y9614132I123449J761525D01*
G01*
X7559020Y9614132D02*
G03*
X7574746Y9612514I33230J245767D01*
G01*
D02*
G03*
X7587033Y9612306I8098J115301D01*
G01*
X7587033D02*
G03*
X7598094Y9613376I-4224J101333D01*
G01*
X7598094D02*
G03*
X7610143Y9615594I-33575J216284D01*
G01*
X7646057Y9622944D02*
G03*
X7625393Y9618827I172551J-919925D01*
G01*
X7688827Y9623461D02*
G03*
X7646057Y9622944I-19368J-167174D01*
G01*
X7716431Y9620121D02*
G03*
X7688827Y9623461I-68091J-447033D01*
G01*
X7746622Y9614853D02*
G03*
X7716431Y9620121I-131913J-666842D01*
G01*
X7778232Y9608009D02*
G03*
X7746622Y9614853I-201663J-855058D01*
G01*
X7869891Y9581556D02*
G03*
X7778232Y9608010I-304438J-882801D01*
G01*
X7895491Y9571939D02*
G03*
X7869891Y9581555I-209041J-517616D01*
G01*
X7916667Y9562512D02*
G03*
X7895491Y9571939I-138533J-282684D01*
G01*
X7916667Y9562512D02*
G03*
X7996572Y9509194I376241J477322D01*
G01*
Y9509194D02*
G03*
X8045171Y9482982I565852J990957D01*
G01*
D02*
G03*
X8097747Y9457436I714327J1403315D01*
G01*
Y9457437D02*
G03*
X8152962Y9432834I858708J1852947D01*
G01*
X8152963D02*
G03*
X8209477Y9409452I984426J2299325D01*
G01*
Y9409451D02*
G03*
X8265952Y9387565I1073857J2687141D01*
G01*
Y9387565D02*
G03*
X8421744Y9333649I1104332J2938966D01*
G01*
X8421744Y9333649D02*
G03*
X8484582Y9317181I203101J646865D01*
G01*
X8484582Y9317181D02*
G03*
X8514495Y9311309I198221J930645D01*
G01*
X8514495Y9311309D02*
G03*
X8543673Y9306347I283976J1581607D01*
G01*
X8628833Y9291934D02*
G03*
X8600639Y9297158I-195478J-976219D01*
G01*
X8657103Y9285625D02*
G03*
X8628833Y9291934I-158798J-645067D01*
G01*
X8685654Y9277732D02*
G03*
X8657103Y9285625I-154672J-503929D01*
G01*
X8714689Y9267757D02*
G03*
X8685654Y9277732I-166427J-437190D01*
G01*
X8714688Y9267757D02*
G03*
X8779644Y9247551I222547J600884D01*
G01*
X8779644D02*
G03*
X8814394Y9238873I432310J1657305D01*
G01*
X8920680Y9212287D02*
G03*
X8885500Y9221763I-304296J-1059713D01*
G01*
X8954828Y9201503D02*
G03*
X8920680Y9212287I-220719J-639433D01*
G01*
X8987355Y9188888D02*
G03*
X8954828Y9201503I-182803J-423129D01*
G01*
X9017674Y9173922D02*
G03*
X8987355Y9188888I-161734J-289461D01*
G01*
X9045197Y9156084D02*
G03*
X9017674Y9173922I-149354J-200284D01*
G01*
X9045197Y9156084D02*
G03*
X9239196Y9026201I1334107J1782851D01*
G01*
D02*
G03*
X9287920Y8998271I903343J1519457D01*
G01*
D02*
G03*
X9334838Y8973496I673689J1219006D01*
G01*
D02*
G03*
X9379002Y8952545I453252J898416D01*
G01*
X9379002D02*
G03*
X9419463Y8936088I267933J600745D01*
G01*
Y8936088D02*
G03*
X9455273Y8924792I132225J356787D01*
G01*
X9455273D02*
G03*
X9485484Y8919329I48575J182333D01*
G01*
X9513535Y8910326D02*
G03*
X9485484Y8919329I-34474J-59211D01*
G01*
X9526117Y8901806D02*
G03*
X9513535Y8910326I-61631J-77468D01*
G01*
X9537906Y8891309D02*
G03*
X9526118Y8901806I-99632J-100019D01*
G01*
X9549027Y8879360D02*
G03*
X9537906Y8891309I-161327J-139007D01*
G01*
X9559609Y8866486D02*
G03*
X9549027Y8879360I-277092J-216950D01*
G01*
X9569776Y8853211D02*
G03*
X9559609Y8866486I-619485J-463975D01*
G01*
X9579657Y8840063D02*
G03*
X9589377Y8827568I412373J310751D01*
G01*
X9589377Y8827568D02*
G03*
X9599064Y8816250I180441J144633D01*
G01*
D02*
G03*
X9620351Y8798745I78282J73500D01*
G01*
D02*
G03*
X9632342Y8791753I93951J147342D01*
G01*
D02*
G03*
X9644812Y8785506I136845J257606D01*
G01*
X9681948Y8768029D02*
G03*
X9669930Y8773965I-135419J-259025D01*
G01*
X9693184Y8761555D02*
G03*
X9681947Y8768029I-83773J-132410D01*
G01*
X9703325Y8754222D02*
G03*
X9693184Y8761555I-63820J-77578D01*
G01*
X9712056Y8745709D02*
G03*
X9703325Y8754222I-54805J-47470D01*
G01*
X9712056Y8745709D02*
G03*
X9777645Y8685280I308798J269358D01*
G01*
Y8685280D02*
G03*
X9814391Y8660109I331454J444476D01*
G01*
D02*
G03*
X9852373Y8637934I363980J579808D01*
G01*
Y8637934D02*
G03*
X9890541Y8618479I407209J751706D01*
G01*
X9890541Y8618478D02*
G03*
X9927847Y8601467I476408J995361D01*
G01*
Y8601467D02*
G03*
X9963240Y8586625I629236J1450913D01*
G01*
X10047458Y8552360D02*
G03*
X10024095Y8562347I-244430J-539462D01*
G01*
X10116711Y8496426D02*
G03*
X10047458Y8552359I-146609J-110683D01*
G01*
X10141031Y8457667D02*
G03*
X10116711Y8496426I-220727J-111488D01*
G01*
X10159546Y8413504D02*
G03*
X10141031Y8457667I-319166J-107848D01*
G01*
X10173054Y8365285D02*
G03*
X10159546Y8413504I-457767J-102240D01*
G01*
X10182355Y8314354D02*
G03*
X10173054Y8365285I-645515J-91565D01*
G01*
X10188247Y8262057D02*
G03*
X10182355Y8314354I-899772J-74886D01*
G01*
X10191528Y8209739D02*
G03*
X10188247Y8262057I-1267949J-53268D01*
G01*
X10192999Y8158744D02*
G03*
X10191528Y8209738I-1922239J-29906D01*
G01*
X10190901Y8026462D02*
G03*
X10193456Y8110418I-1103803J75621D01*
G01*
X10186800Y7984193D02*
G03*
X10190901Y8026463I-805653J99485D01*
G01*
X10180273Y7942200D02*
G03*
X10186800Y7984193I-664773J124845D01*
G01*
X10170907Y7900836D02*
G03*
X10180272Y7942199I-552925J146930D01*
G01*
X10158295Y7860455D02*
G03*
X10170907Y7900836I-462743J166687D01*
G01*
X10142027Y7821410D02*
G03*
X10158295Y7860455I-389962J185394D01*
G01*
X10096883Y7748743D02*
G03*
X10142027Y7821410I-294868J233542D01*
G01*
X10067187Y7715827D02*
G03*
X10096882Y7748743I-250062J255444D01*
G01*
X9163959Y9440533D02*
G03*
X9100440Y9463864I-1280186J-3387168D01*
G01*
D02*
G03*
X8994440Y9498137I-675922J-1909458D01*
G01*
X8618122Y9602873D02*
G03*
X8671707Y9586363I717521J2233614D01*
G01*
X8564824Y9620897D02*
G03*
X8618122Y9602873I617082J1736928D01*
G01*
X8564824Y9620897D02*
G03*
X8520111Y9634298I-225657J-671606D01*
G01*
X8462477Y9650777D02*
G03*
X8492385Y9642012I416648J1366127D01*
G01*
X8431439Y9660878D02*
G03*
X8462477Y9650777I286451J827460D01*
G01*
X8400322Y9672597D02*
G03*
X8431439Y9660878I231616J567857D01*
G01*
X8370174Y9686216D02*
G03*
X8400322Y9672597I196939J395766D01*
G01*
X8342047Y9702018D02*
G03*
X8370174Y9686216I169699J269117D01*
G01*
X8316990Y9720287D02*
G03*
X8342047Y9702019I146437J174532D01*
G01*
X8296054Y9741305D02*
G03*
X8316990Y9720287I127179J105752D01*
G01*
X8248193Y9803374D02*
G03*
X8296054Y9741305I938737J674357D01*
G01*
X8214300Y9854050D02*
G03*
X8248193Y9803374I789382J491292D01*
G01*
X8201417Y9875416D02*
G03*
X8214300Y9854050I801749J468861D01*
G01*
X8190616Y9894295D02*
G03*
X8201416Y9875416I1033078J578466D01*
G01*
X8173386Y9925073D02*
G03*
X8166018Y9937213I-250942J-144014D01*
G01*
X8166017D02*
G03*
X8158853Y9947348I-113013J-72293D01*
G01*
Y9947348D02*
G03*
X8070400Y10115313I-1748669J-813605D01*
G01*
X8070400D02*
G03*
X8030801Y10177262I-1040091J-621204D01*
G01*
X8030802D02*
G03*
X7993426Y10228412I-832359J-568972D01*
G01*
D02*
G03*
X7957629Y10271678I-793676J-620222D01*
G01*
X7957629D02*
G03*
X7922764Y10309977I-1054573J-925009D01*
G01*
X7853244Y10383340D02*
G03*
X7888184Y10346226I1744258J1607079D01*
G01*
X7817297Y10424236D02*
G03*
X7853244Y10383340I922180J774319D01*
G01*
X7779698Y10471831D02*
G03*
X7817297Y10424236I841171J625857D01*
G01*
X7753488Y10507854D02*
G03*
X7779698Y10471831I1991041J1421151D01*
G01*
X7701165Y10580046D02*
G03*
X7687602Y10597691I-938075J-707028D01*
G01*
D02*
G03*
X7673674Y10615026I-726473J-569441D01*
G01*
Y10615026D02*
G03*
X7659294Y10631976I-587029J-483417D01*
G01*
D02*
G03*
X7644377Y10648468I-487884J-426307D01*
G01*
X7522542Y10779519D02*
G03*
X7644378Y10648468I7290460J6655654D01*
G01*
X7465940Y10844231D02*
G03*
X7522541Y10779519I1855462J1565788D01*
G01*
X7416301Y10906734D02*
G03*
X7465940Y10844232I1044763J778794D01*
G01*
X7376686Y10965774D02*
G03*
X7416301Y10906734I592260J354579D01*
G01*
X7350160Y11020102D02*
G03*
X7376686Y10965774I316267J120783D01*
G01*
X7339785Y11068465D02*
G03*
X7350160Y11020101I154209J7787D01*
G01*
X7348624Y11109614D02*
G03*
X7339785Y11068465I73181J-37244D01*
G01*
X7379740Y11142296D02*
G03*
X7348624Y11109614I45916J-74870D01*
G01*
X7436197Y11165261D02*
G03*
X7379740Y11142296I41809J-183663D01*
G01*
X7436197Y11165261D02*
G03*
X7497632Y11181871I-391044J1568208D01*
G01*
Y11181871D02*
G03*
X7528428Y11191459I-282014J960051D01*
G01*
D02*
G03*
X7558884Y11202181I-245227J745237D01*
G01*
D02*
G03*
X7588705Y11214244I-222628J593273D01*
G01*
D02*
G03*
X7617599Y11227856I-207905J478743D01*
G01*
Y11227857D02*
G03*
X7645269Y11243228I-198237J389442D01*
G01*
Y11243228D02*
G03*
X7671423Y11260567I-192473J318725D01*
G01*
Y11260567D02*
G03*
X7695766Y11280081I-190421J262482D01*
G01*
D02*
G03*
X7718005Y11301979I-192558J217786D01*
G01*
X7718005Y11301980D02*
G03*
X7803105Y11529379I-238144J218745D01*
G01*
X7808429Y11546037D02*
G03*
X7803106Y11529379I366748J-126392D01*
G01*
X7835380Y11611387D02*
G03*
X7808429Y11546037I498129J-243663D01*
G01*
X7849102Y11636863D02*
G03*
X7835380Y11611387I342950J-201152D01*
G01*
X7865059Y11661237D02*
G03*
X7849101Y11636863I234683J-171051D01*
G01*
X7883172Y11682742D02*
G03*
X7865059Y11661237I140534J-136747D01*
G01*
X7903361Y11699610D02*
G03*
X7883172Y11682742I69722J-103965D01*
G01*
X7925545Y11710073D02*
G03*
X7903361Y11699610I23256J-78063D01*
G01*
X7969100Y11712599D02*
G03*
X7925545Y11710073I-16128J-98661D01*
G01*
X7990383Y11707413D02*
G03*
X7969100Y11712599I-42299J-127318D01*
G01*
X8011401Y11699020D02*
G03*
X7990383Y11707413I-81137J-172661D01*
G01*
X8032202Y11688238D02*
G03*
X8011400Y11699019I-147315J-258786D01*
G01*
X8052836Y11675890D02*
G03*
X8032202Y11688238I-288573J-458786D01*
G01*
X8093799Y11649768D02*
G03*
X8114224Y11637633I267547J427091D01*
G01*
X8114225D02*
G03*
X8134679Y11627208I135264J240129D01*
G01*
X8203667Y11588871D02*
G03*
X8134678Y11627208I-304230J-466224D01*
G01*
X8237287Y11566570D02*
G03*
X8203667Y11588871I-755075J-1101831D01*
G01*
X8270659Y11543579D02*
G03*
X8304033Y11520947I1154054J1665856D01*
G01*
X8304033Y11520947D02*
G03*
X8337660Y11499721I476632J717876D01*
G01*
D02*
G03*
X8371793Y11480951I267838J446625D01*
G01*
X8371792Y11480951D02*
G03*
X8406680Y11465685I161114J320693D01*
G01*
Y11465685D02*
G03*
X8442573Y11454972I95202J253470D01*
G01*
Y11454971D02*
G03*
X8479724Y11449859I49165J219727D01*
G01*
D02*
G03*
X8552530Y11448615I60225J1394461D01*
G01*
X8631209Y11447905D02*
G03*
X8591145Y11448589I-46680J-1560143D01*
G01*
X8672706Y11445772D02*
G03*
X8631209Y11447905I-70842J-973443D01*
G01*
X8715617Y11441399D02*
G03*
X8672706Y11445772I-97506J-744053D01*
G01*
X8759924Y11433995D02*
G03*
X8715617Y11441399I-127661J-627652D01*
G01*
X8901041Y11385685D02*
G03*
X8759923Y11433995I-255565J-516264D01*
G01*
X8968259Y11350730D02*
G03*
X8901041Y11385685I-728917J-1319587D01*
G01*
X8999139Y11332648D02*
G03*
X8968259Y11350730I-427239J-694229D01*
G01*
X9028027Y11313701D02*
G03*
X8999139Y11332648I-342113J-490107D01*
G01*
X9054789Y11293543D02*
G03*
X9028027Y11313701I-292014J-359852D01*
G01*
X9079297Y11271828D02*
G03*
X9054790Y11293543I-263013J-272150D01*
G01*
X9101418Y11248209D02*
G03*
X9079297Y11271828I-249096J-211138D01*
G01*
X9152157Y11162471D02*
G03*
X9101419Y11248209I-276826J-105937D01*
G01*
X9152156Y11162471D02*
G03*
X9178852Y11113414I211893J83514D01*
G01*
D02*
G03*
X9196035Y11091189I269302J190460D01*
G01*
Y11091189D02*
G03*
X9214998Y11070018I365289J308112D01*
G01*
Y11070018D02*
G03*
X9235158Y11049538I596567J567092D01*
G01*
X9296994Y10988626D02*
G03*
X9276739Y11009204I-601604J-571890D01*
G01*
X9316114Y10967291D02*
G03*
X9296994Y10988626I-371705J-313890D01*
G01*
X9333519Y10944837D02*
G03*
X9316114Y10967291I-276205J-196112D01*
G01*
X9356473Y10910258D02*
G03*
X9333519Y10944837I-637982J-398600D01*
G01*
X9367316Y10892558D02*
G03*
X9356473Y10910258I-887526J-531557D01*
G01*
X9452247Y10740287D02*
G03*
X9439545Y10766265I-186501J-75093D01*
G01*
X9457801Y10726399D02*
G03*
X9452247Y10740287I-592456J-228888D01*
G01*
X9463256Y10712397D02*
G03*
X9468938Y10698642I394490J154894D01*
G01*
X9468938D02*
G03*
X9475170Y10685497I197509J85593D01*
G01*
D02*
G03*
X9482277Y10673327I119514J61627D01*
G01*
X9482277Y10673327D02*
G03*
X9490583Y10662493I77843J51079D01*
G01*
D02*
G03*
X9500412Y10653359I53334J47539D01*
G01*
X9500412D02*
G03*
X9512090Y10646288I38342J50141D01*
G01*
X9512090D02*
G03*
X9563156Y10641278I31652J59874D01*
G01*
D02*
G03*
X9606776Y10649326I-78611J548300D01*
G01*
X9606776Y10649326D02*
G03*
X9659808Y10661983I-392767J1763162D01*
G01*
X9855538Y10709404D02*
G03*
X9786174Y10693841I455033J-2190507D01*
G01*
X9926377Y10722295D02*
G03*
X9855538Y10709404I221654J-1419127D01*
G01*
X9996708Y10730695D02*
G03*
X9926377Y10722295I79528J-964530D01*
G01*
X10064545Y10732783D02*
G03*
X9996708Y10730695I-14005J-647960D01*
G01*
X10104514Y10640429D02*
G03*
X10064545Y10732783I-630440J-218013D01*
G01*
X10121829Y10589803D02*
G03*
X10104514Y10640429I-1869980J-611315D01*
G01*
X10121829Y10589803D02*
G03*
X10156632Y10485575I4187065J1340161D01*
G01*
D02*
G03*
X10176322Y10434341I997723J354047D01*
G01*
X10176322D02*
G03*
X10199007Y10385274I617224J255581D01*
G01*
X10199008Y10385274D02*
G03*
X10225790Y10339557I416574J213333D01*
G01*
D02*
G03*
X10257770Y10298374I295012J196084D01*
G01*
X10257770Y10298374D02*
G03*
X10296050Y10262911I218039J196966D01*
G01*
X10369699Y10184088D02*
G03*
X10296050Y10262910I-284655J-192153D01*
G01*
X10397592Y10137137D02*
G03*
X10369699Y10184088I-390050J-199963D01*
G01*
X10420463Y10086334D02*
G03*
X10397592Y10137137I-511057J-199520D01*
G01*
X10439011Y10032559D02*
G03*
X10420463Y10086334I-676625J-203292D01*
G01*
X10453935Y9976694D02*
G03*
X10439011Y10032559I-907212J-212424D01*
G01*
X10465933Y9919619D02*
G03*
X10453934Y9976694I-1248611J-232696D01*
G01*
X10475706Y9862215D02*
G03*
X10465933Y9919619I-1830502J-282111D01*
G01*
X10483953Y9805363D02*
G03*
X10475706Y9862215I-3198413J-434911D01*
G01*
X10498522Y9534176D02*
G03*
X10491372Y9749942I-1120663J70863D01*
G01*
X10453477Y9266908D02*
G03*
X10498522Y9534176I-1256228J349156D01*
G01*
X10438103Y9215272D02*
G03*
X10453477Y9266908I-1293175J413147D01*
G01*
X10399854Y9127044D02*
G03*
X10438102Y9215272I-414608J232141D01*
G01*
X10368148Y9078742D02*
G03*
X10399855Y9127044I-330499J251507D01*
G01*
X10343401Y9049544D02*
G03*
X10368148Y9078742I-269063J253134D01*
G01*
X10318473Y9028160D02*
G03*
X10343401Y9049544I-111915J155687D01*
G01*
X10303246Y9017461D02*
G03*
X10318473Y9028160I-223147J333743D01*
G01*
X10287306Y9007173D02*
G03*
X10303246Y9017461I-299233J481144D01*
G01*
X10271498Y8997610D02*
G03*
X10287306Y9007173I-370606J630492D01*
G01*
X10256667Y8989084D02*
G03*
X10271498Y8997610I-425088J756632D01*
G01*
X10226499Y8972860D02*
G03*
X10256667Y8989085I-408520J795770D01*
G01*
X10053726Y9009419D02*
G03*
X10224037Y8971612I182220J418344D01*
G01*
X10004239Y9033188D02*
G03*
X10053726Y9009419I297236J555443D01*
G01*
X9956967Y9060336D02*
G03*
X10004239Y9033188I479303J779854D01*
G01*
X9911055Y9089541D02*
G03*
X9956967Y9060336I970215J1474552D01*
G01*
X9865648Y9119480D02*
G03*
X9819889Y9148830I-1106239J-1674359D01*
G01*
X9819888D02*
G03*
X9772922Y9176269I-513417J-824875D01*
G01*
X9772922D02*
G03*
X9723893Y9200475I-312424J-571064D01*
G01*
X7272971Y10841600D02*
G03*
X7317972Y10787399I2253197J1824948D01*
G01*
X7501766Y10573743D02*
G03*
X7553603Y10511994I3020771J2483228D01*
G01*
X7657373Y10388349D02*
G03*
X7631942Y10419628I-1783644J-1424170D01*
G01*
X7682113Y10356592D02*
G03*
X7657373Y10388349I-1338250J-1017037D01*
G01*
X7705952Y10324218D02*
G03*
X7682112Y10356592I-1081402J-771348D01*
G01*
X7728682Y10291086D02*
G03*
X7705952Y10324218I-917110J-604811D01*
G01*
X7750092Y10257058D02*
G03*
X7728682Y10291086I-805787J-483233D01*
G01*
X7750092Y10257058D02*
G03*
X7780781Y10211771I443848J267744D01*
G01*
X7780781D02*
G03*
X7797704Y10190191I575290J433717D01*
G01*
D02*
G03*
X7815418Y10169080I760726J620302D01*
G01*
X7815418Y10169080D02*
G03*
X7833724Y10148259I1155281J997285D01*
G01*
X7908947Y10064280D02*
G03*
X7890235Y10085738I-1098696J-939201D01*
G01*
X7927268Y10042214D02*
G03*
X7908947Y10064280I-779134J-628273D01*
G01*
X7961521Y9992585D02*
G03*
X7927268Y10042214I-377084J-223618D01*
G01*
X7976975Y9965084D02*
G03*
X7961521Y9992585I-518966J-273536D01*
G01*
X7991326Y9936270D02*
G03*
X7976975Y9965084I-630053J-295818D01*
G01*
X8004583Y9906500D02*
G03*
X7991326Y9936270I-746576J-314632D01*
G01*
X8016755Y9876134D02*
G03*
X8004583Y9906500I-863637J-328559D01*
G01*
X8037881Y9815042D02*
G03*
X8016755Y9876134I-1028697J-321525D01*
G01*
X8054774Y9755862D02*
G03*
X8037881Y9815042I-1176261J-303763D01*
G01*
X8054774Y9755862D02*
G03*
X7986428Y9793259I-132197J-160447D01*
G01*
X7986428Y9793259D02*
G03*
X7937106Y9809114I-218654J-595545D01*
G01*
X7937106D02*
G03*
X7880332Y9823346I-301637J-1082936D01*
G01*
D02*
G03*
X7818095Y9836158I-402446J-1797365D01*
G01*
D02*
G03*
X7752378Y9847756I-539282J-2863865D01*
G01*
X7494455Y9886076D02*
G03*
X7049518Y9913142I-369939J-2410722D01*
G01*
X7049518D02*
G03*
X6957169Y9907980I67734J-2040149D01*
G01*
X6957169D02*
G03*
X6874342Y9899486I136256J-1736887D01*
G01*
D02*
G03*
X6802020Y9888383I172243J-1362988D01*
G01*
X6802020D02*
G03*
X6741187Y9875390I171262J-950751D01*
G01*
X6741187Y9875390D02*
G03*
X6692827Y9861228I136616J-556163D01*
G01*
X6692826D02*
G03*
X6657922Y9846617I82809J-246823D01*
G01*
X6527728Y9773595D02*
G03*
X6512489Y9764113I403808J-665918D01*
G01*
X6512489D02*
G03*
X6500086Y9755862I198504J-311834D01*
G01*
X6467737Y9736353D02*
G03*
X6500086Y9755862I-319803J566876D01*
G01*
X6467737Y9736353D02*
G03*
X6444335Y9722079I448428J-761511D01*
G01*
D02*
G03*
X6417627Y9704243I341429J-540173D01*
G01*
X6417627D02*
G03*
X6388748Y9682433I318483J-451742D01*
G01*
D02*
G03*
X6329014Y9625247I303681J-376999D01*
G01*
D02*
G03*
X6251494Y9499377I329847J-289952D01*
G01*
X6228697Y9520608D02*
G03*
X6251494Y9499377I126123J112572D01*
G01*
X6209175Y9541244D02*
G03*
X6228697Y9520608I914518J845621D01*
G01*
X6109843Y9655346D02*
G03*
X6160935Y9595005I1950903J1600068D01*
G01*
X6086755Y9684207D02*
G03*
X6109843Y9655346I1242499J970293D01*
G01*
X6067187Y9710181D02*
G03*
X6086755Y9684207I722414J523887D01*
G01*
X6052550Y9731758D02*
G03*
X6067187Y9710181I323194J203499D01*
G01*
X6033873Y9766449D02*
G03*
X6052550Y9731758I223762J98096D01*
G01*
X6029724Y9778646D02*
G03*
X6033873Y9766449I93505J25004D01*
G01*
X6027456Y9789776D02*
G03*
X6029724Y9778646I103964J15384D01*
G01*
X6025888Y9801610D02*
G03*
X6027456Y9789775I448113J53366D01*
G01*
X6025888Y9801610D02*
G03*
X6023835Y9815923I-352141J-43198D01*
G01*
D02*
G03*
X6020115Y9834489I-291875J-48833D01*
G01*
D02*
G03*
X6013544Y9859079I-407050J-95596D01*
G01*
X6013544D02*
G03*
X6002939Y9891467I-653780J-196129D01*
G01*
X6002939D02*
G03*
X5987118Y9933427I-1081305J-383755D01*
G01*
X5987118D02*
G03*
X5961647Y9995145I-2664336J-1063453D01*
G01*
X5841606Y10285925D02*
G03*
X5845066Y10260938I65827J-3620D01*
G01*
X5842597Y10303132D02*
G03*
X5841606Y10285925I193172J-19760D01*
G01*
X5845188Y10322594D02*
G03*
X5842597Y10303131I303701J-50327D01*
G01*
X5849216Y10343648D02*
G03*
X5845188Y10322594I409281J-89229D01*
G01*
X5854523Y10365631D02*
G03*
X5849217Y10343648I482875J-128189D01*
G01*
X5868324Y10409725D02*
G03*
X5854522Y10365631I486674J-176532D01*
G01*
X5876497Y10430508D02*
G03*
X5868324Y10409725I390632J-165614D01*
G01*
X5885303Y10449563D02*
G03*
X5876497Y10430508I288140J-144731D01*
G01*
X5951875Y10563503D02*
G03*
X5898737Y10473535I2594416J-1593029D01*
G01*
X5973695Y10598145D02*
G03*
X5951875Y10563503I1646029J-1060969D01*
G01*
X5995615Y10631052D02*
G03*
X5973695Y10598145I1043848J-719083D01*
G01*
X6016463Y10659787D02*
G03*
X5995615Y10631052I548032J-419546D01*
G01*
X6035066Y10681911D02*
G03*
X6016463Y10659786I212242J-197347D01*
G01*
X6050252Y10694988D02*
G03*
X6035066Y10681911I42167J-64324D01*
G01*
X6107331Y10742151D02*
G03*
X6050252Y10694988I239095J-347482D01*
G01*
X6131923Y10756523D02*
G03*
X6107331Y10742151I98339J-196503D01*
G01*
X6154186Y10765458D02*
G03*
X6131923Y10756523I42605J-138358D01*
G01*
X6174344Y10769483D02*
G03*
X6154186Y10765458I9714J-101123D01*
G01*
X6192625Y10769128D02*
G03*
X6174344Y10769483I-10700J-80043D01*
G01*
X6224458Y10757384D02*
G03*
X6192625Y10769128I-43170J-68000D01*
G01*
X6238463Y10747051D02*
G03*
X6224458Y10757384I-73895J-85492D01*
G01*
X6251494Y10734447D02*
G03*
X6238463Y10747051I-118403J-109381D01*
G01*
X6251494Y10734447D02*
G03*
X6293795Y10703371I492078J625504D01*
G01*
Y10703372D02*
G03*
X6312892Y10692441I93038J140396D01*
G01*
Y10692440D02*
G03*
X6332778Y10684989I49791J102619D01*
G01*
X6332778D02*
G03*
X6355071Y10681323I29872J112048D01*
G01*
Y10681324D02*
G03*
X6381389Y10681750I10475J165860D01*
G01*
D02*
G03*
X6413350Y10686575I-27943J293379D01*
G01*
X6413350D02*
G03*
X6452572Y10696104I-116563J565259D01*
G01*
X6452572Y10696104D02*
G03*
X6500674Y10710644I-316425J1133653D01*
G01*
Y10710644D02*
G03*
X6559275Y10730501I-760301J2340121D01*
G01*
D02*
G03*
X6627464Y10770293I-142658J322790D01*
G01*
X6627464Y10770292D02*
G03*
X6659509Y10796519I-253329J342219D01*
G01*
Y10796519D02*
G03*
X6690157Y10826730I-329969J365393D01*
G01*
X6690156Y10826730D02*
G03*
X6719383Y10860746I-419936J390370D01*
G01*
X6719383Y10860746D02*
G03*
X6747165Y10898390I-523973J415777D01*
G01*
Y10898390D02*
G03*
X6773479Y10939484I-642251J440232D01*
G01*
X6773479D02*
G03*
X6798302Y10983850I-774356J462380D01*
G01*
D02*
G03*
X6821610Y11031310I-919286J480922D01*
G01*
X6821610D02*
G03*
X6843380Y11081687I-1075463J494646D01*
G01*
X6911463Y11112316D02*
G03*
X6843380Y11081687I48471J-198722D01*
G01*
X6941548Y11115760D02*
G03*
X6911463Y11112316I932J-141273D01*
G01*
X6996016Y11105546D02*
G03*
X6941548Y11115760I-55141J-143705D01*
G01*
X7021286Y11094544D02*
G03*
X6996016Y11105546I-114860J-229293D01*
G01*
X7045835Y11081383D02*
G03*
X7021286Y11094544I-248283J-433661D01*
G01*
X7070108Y11067391D02*
G03*
X7094546Y11053897I325155J559977D01*
G01*
D02*
G03*
X7119593Y11042228I136141J259500D01*
G01*
X10497312Y10724970D02*
G03*
X10538876Y10637917I2000118J901509D01*
G01*
X10320341Y11252861D02*
G03*
X10354724Y11073185I412609J-14171D01*
G01*
X10321564Y11280200D02*
G03*
X10320341Y11252861I628932J-41829D01*
G01*
X10323768Y11307171D02*
G03*
X10321564Y11280200I895046J-86723D01*
G01*
X10352964Y11365499D02*
G03*
X10329612Y11360573I-3108J-43081D01*
G01*
X10366619Y11363876D02*
G03*
X10352964Y11365499I-17856J-91942D01*
G01*
X10381565Y11360385D02*
G03*
X10366619Y11363876I-51563J-187014D01*
G01*
X10397785Y11355669D02*
G03*
X10381565Y11360385I-162642J-529089D01*
G01*
X10415258Y11350369D02*
G03*
X10433965Y11345130I155317J518564D01*
G01*
Y11345130D02*
G03*
X10453886Y11340594I83175J319221D01*
G01*
D02*
G03*
X10475002Y11337402I47894J245407D01*
G01*
X10475001D02*
G03*
X10497292Y11336198I22487J209328D01*
G01*
Y11336198D02*
G03*
X10524953Y11344649I-702J51791D01*
G01*
D02*
G03*
X10537582Y11354233I-48664J77241D01*
G01*
Y11354233D02*
G03*
X10549780Y11366519I-106805J118239D01*
G01*
X10549780Y11366519D02*
G03*
X10561825Y11380856I-233457J208366D01*
G01*
Y11380856D02*
G03*
X10573995Y11396592I-692517J548148D01*
G01*
X10599821Y11429655D02*
G03*
X10586568Y11413076I442362J-367197D01*
G01*
X10614032Y11445678D02*
G03*
X10599821Y11429655I236912J-224433D01*
G01*
X10629479Y11460494D02*
G03*
X10614032Y11445678I146228J-167924D01*
G01*
X10629479Y11460494D02*
G03*
X10656830Y11485934I-659354J736305D01*
G01*
X10670690Y11498220D02*
G03*
X10656830Y11485934I199468J-238983D01*
G01*
X10685863Y11509552D02*
G03*
X10670690Y11498220I98728J-148015D01*
G01*
X10703239Y11519430D02*
G03*
X10685863Y11509552I61962J-129221D01*
G01*
X10748172Y11532828D02*
G03*
X10703239Y11519430I22099J-156149D01*
G01*
X10777511Y11535351D02*
G03*
X10748172Y11532829I5654J-237647D01*
G01*
X10812622Y11534423D02*
G03*
X10777511Y11535351I-26748J-347564D01*
G01*
X10854396Y11529547D02*
G03*
X10812622Y11534423I-82034J-521385D01*
G01*
X10854396Y11529547D02*
G03*
X10943979Y11531444I39399J255539D01*
G01*
D02*
G03*
X10976191Y11539370I-62181J322137D01*
G01*
D02*
G03*
X10992968Y11544804I-111309J372262D01*
G01*
X10992967Y11544804D02*
G03*
X11010259Y11551250I-145862J417733D01*
G01*
X11027918Y11558394D02*
G03*
X11023411Y11556618I49945J-133384D01*
G01*
X11032293Y11559873D02*
G03*
X11027918Y11558395I22197J-72912D01*
G01*
X11037469Y11561284D02*
G03*
X11032293Y11559873I23713J-97185D01*
G01*
X11044381Y11562859D02*
G03*
X11037469Y11561284I47687J-225217D01*
G01*
X11108072Y11575417D02*
G03*
X11106412Y11501000I1102524J-61821D01*
G01*
X11106412D02*
G03*
X11107805Y11463236I813051J11077D01*
G01*
X11107805D02*
G03*
X11111147Y11424985I710935J42844D01*
G01*
X11111147Y11424985D02*
G03*
X11125082Y11346670I630802J71842D01*
G01*
D02*
G03*
X11169370Y11223351I614021J150903D01*
G01*
X11169370Y11223350D02*
G03*
X11191771Y11180334I650420J311378D01*
G01*
X11191772D02*
G03*
X11194673Y11113254I853966J3338D01*
G01*
X11202665Y11012633D02*
G03*
X11200352Y11046173I-1294923J-72455D01*
G01*
X11203791Y10979093D02*
G03*
X11202665Y11012633I-750883J-8417D01*
G01*
X11203103Y10945553D02*
G03*
X11203791Y10979093I-528393J27624D01*
G01*
X11199973Y10912013D02*
G03*
X11203103Y10945553I-410126J55190D01*
G01*
X11193774Y10878472D02*
G03*
X11199973Y10912013I-340645J80300D01*
G01*
X11183879Y10844932D02*
G03*
X11193774Y10878473I-299790J106671D01*
G01*
X11183879Y10844932D02*
G03*
X11075768Y10660572I1428566J-961611D01*
G01*
D02*
G03*
X11006463Y10508167I1773247J-898329D01*
G01*
X11006463D02*
G03*
X10947125Y10343802I2119474J-858045D01*
G01*
X10917388Y10249168D02*
G03*
X10947125Y10343802I-1056918J384107D01*
G01*
X10901419Y10208455D02*
G03*
X10917388Y10249168I-856798J359562D01*
G01*
X10832295Y10077087D02*
G03*
X10901419Y10208455I-722996J464303D01*
G01*
X10814150Y10049427D02*
G03*
X10832295Y10077087I-1041340J702896D01*
G01*
X10777451Y9996562D02*
G03*
X10718133Y10188968I-3248402J-896117D01*
G01*
X10718133D02*
G03*
X10672070Y10317239I-3910735J-1331966D01*
G01*
D02*
G03*
X10621557Y10445510I-4634905J-1751144D01*
G01*
X10621557D02*
G03*
X10567249Y10573781I-5622222J-2304744D01*
G01*
X11053339Y9438939D02*
G03*
X11082960Y9390707I962225J557734D01*
G01*
X11032878Y9476092D02*
G03*
X11053339Y9438939I930956J488485D01*
G01*
X11017462Y9505592D02*
G03*
X11010360Y9518541I-451158J-239010D01*
G01*
D02*
G03*
X11002976Y9530862I-265483J-150740D01*
G01*
X11002976D02*
G03*
X10985304Y9555328I-207009J-130909D01*
G01*
X10960645Y9671120D02*
G03*
X10985304Y9555327I160856J-26266D01*
G01*
X10965230Y9694279D02*
G03*
X10960645Y9671120I225623J-56698D01*
G01*
X10972059Y9717437D02*
G03*
X10965230Y9694279I281325J-95551D01*
G01*
X10980737Y9740595D02*
G03*
X10972059Y9717437I366430J-150504D01*
G01*
X10990864Y9763754D02*
G03*
X10980737Y9740595I505223J-234741D01*
G01*
X11002046Y9786913D02*
G03*
X10990865Y9763754I768267J-385200D01*
G01*
X11033295Y9860148D02*
G03*
X11002046Y9786913I1076269J-502534D01*
G01*
X11064546Y9926167D02*
G03*
X11080171Y9960448I-1424182J669829D01*
G01*
X11080171D02*
G03*
X11095796Y9997699I-1024748J451735D01*
G01*
D02*
G03*
X11127046Y10087476I-1034816J410530D01*
G01*
Y10087476D02*
G03*
X11142671Y10143185I-1387933J419327D01*
G01*
D02*
G03*
X11158296Y10208230I-1828277J473589D01*
G01*
X11177372Y10295730D02*
G03*
X11158295Y10208230I1349699J-340088D01*
G01*
X11187991Y10334441D02*
G03*
X11177372Y10295730I993273J-293268D01*
G01*
X11199309Y10369886D02*
G03*
X11187991Y10334441I797143J-274070D01*
G01*
X11211312Y10402136D02*
G03*
X11199309Y10369886I632710J-253839D01*
G01*
X11223984Y10431262D02*
G03*
X11211311Y10402136I496369J-233281D01*
G01*
X11237310Y10457334D02*
G03*
X11223984Y10431261I384692J-213069D01*
G01*
X11251276Y10480424D02*
G03*
X11237310Y10457334I294423J-193845D01*
G01*
X11265865Y10500602D02*
G03*
X11251276Y10480424I222471J-176217D01*
G01*
X11281064Y10517940D02*
G03*
X11265865Y10500602I165907J-160769D01*
G01*
X11310640Y10547186D02*
G03*
X11281064Y10517939I449448J-484079D01*
G01*
X11325427Y10561284D02*
G03*
X11340215Y10576172I-356557J368957D01*
G01*
D02*
G03*
X11355003Y10592705I-257796J245464D01*
G01*
X11355003D02*
G03*
X11384579Y10634129I-254313J212842D01*
G01*
D02*
G03*
X11399367Y10660731I-351266J212676D01*
G01*
X11399367D02*
G03*
X11414154Y10692401I-467982J237809D01*
G01*
X11414155D02*
G03*
X11428943Y10729993I-644830J275365D01*
G01*
X11428942D02*
G03*
X11446658Y10733460I-6954J82530D01*
G01*
X11446658D02*
G03*
X11455104Y10736429I-34252J110959D01*
G01*
Y10736428D02*
G03*
X11463563Y10740020I-67815J171451D01*
G01*
D02*
G03*
X11472248Y10744086I-173542J382074D01*
G01*
X11491160Y10753037D02*
G03*
X11481376Y10748475I205875J-454267D01*
G01*
X11501815Y10757623D02*
G03*
X11491160Y10753037I117127J-286818D01*
G01*
X11513556Y10762082D02*
G03*
X11501815Y10757623I85575J-243005D01*
G01*
X11526599Y10766265D02*
G03*
X11513556Y10762082I68341J-235513D01*
G01*
X11526599Y10766265D02*
G03*
X11575609Y10775802I-55329J415062D01*
G01*
Y10775802D02*
G03*
X11594833Y10781845I-56701J213959D01*
G01*
X11594833D02*
G03*
X11611439Y10788967I-56998J155822D01*
G01*
X11611439D02*
G03*
X11639505Y10807130I-66482J133495D01*
G01*
D02*
G03*
X11652318Y10818513I-131032J160406D01*
G01*
D02*
G03*
X11665223Y10831659I-238315J246844D01*
G01*
D02*
G03*
X11678894Y10846738I-564292J525346D01*
G01*
X11774901Y10935787D02*
G03*
X11694010Y10863921I474047J-615041D01*
G01*
X11832850Y10976092D02*
G03*
X11774901Y10935787I403112J-641386D01*
G01*
X11851801Y10987697D02*
G03*
X11832850Y10976093I450048J-756235D01*
G01*
X11870615Y10998622D02*
G03*
X11851801Y10987697I502382J-886810D01*
G01*
X11900332Y10981864D02*
G03*
X11889322Y11009011I-67345J-11507D01*
G01*
X11910042Y10946249D02*
G03*
X11900332Y10981864I-588509J-141330D01*
G01*
X11920208Y10898025D02*
G03*
X11910043Y10946250I-834191J-150664D01*
G01*
X11892112Y10431444D02*
G03*
X11920208Y10898025I-933130J290327D01*
G01*
X11876253Y10397651D02*
G03*
X11892112Y10431444I-133708J83363D01*
G01*
X11865788Y10382024D02*
G03*
X11876254Y10397651I-194978J141893D01*
G01*
X11854217Y10366941D02*
G03*
X11865789Y10382023I-290801J235092D01*
G01*
X11841977Y10352176D02*
G03*
X11854217Y10366941I-588082J499988D01*
G01*
X11841977Y10352177D02*
G03*
X11817244Y10322695I1139894J-981403D01*
G01*
D02*
G03*
X11805628Y10307525I291234J-235044D01*
G01*
D02*
G03*
X11795095Y10291767I197381J-143321D01*
G01*
X11795096Y10291767D02*
G03*
X11786086Y10275194I153827J-94364D01*
G01*
X11786085D02*
G03*
X11772282Y10238033I232199J-107396D01*
G01*
X11760908Y10201504D02*
G03*
X11772282Y10238033I-648999J222116D01*
G01*
X11752995Y10182372D02*
G03*
X11760908Y10201504I-196378J92416D01*
G01*
X11726447Y10140161D02*
G03*
X11752995Y10182372I-168029J135136D01*
G01*
X11705302Y10116199D02*
G03*
X11726447Y10140161I-227008J221630D01*
G01*
X11677236Y10089743D02*
G03*
X11705302Y10116199I-303836J350427D01*
G01*
X11640996Y10060350D02*
G03*
X11677236Y10089743I-424246J560121D01*
G01*
X11640997Y10060350D02*
G03*
X11596171Y10020002I229334J-299855D01*
G01*
D02*
G03*
X11569675Y9989366I317297J-301199D01*
G01*
D02*
G03*
X11535062Y9939315I392119J-308170D01*
G01*
D02*
G03*
X11515438Y9904100I471541J-285834D01*
G01*
X11485788Y9851706D02*
G03*
X11515439Y9904100I-572509J358585D01*
G01*
X11470461Y9828585D02*
G03*
X11485787Y9851706I-464612J324615D01*
G01*
X11454839Y9807415D02*
G03*
X11470461Y9828585I-400390J311828D01*
G01*
X11438946Y9788121D02*
G03*
X11454839Y9807415I-344943J300320D01*
G01*
X11406462Y9754860D02*
G03*
X11438946Y9788121I-267765J294002D01*
G01*
X11373228Y9728200D02*
G03*
X11406462Y9754860I-196753J279318D01*
G01*
X11356398Y9717158D02*
G03*
X11373228Y9728200I-164050J268389D01*
G01*
X11356398Y9717158D02*
G03*
X11281447Y9654791I225053J-346682D01*
G01*
Y9654790D02*
G03*
X11243917Y9614010I622669J-610685D01*
G01*
Y9614010D02*
G03*
X11207820Y9570279I941347J-813783D01*
G01*
D02*
G03*
X11174256Y9526182I1274637J-1005017D01*
G01*
X11174256D02*
G03*
X11144325Y9484305I1566944J-1151576D01*
G01*
X11144325D02*
G03*
X11087346Y9397850I1668946J-1161928D01*
G01*
X12997160Y12247962D02*
G03*
X12988652Y12281332I-1631491J-398172D01*
G01*
X13027640Y12107558D02*
G03*
X13006091Y12210424I-2553452J-481187D01*
G01*
X13037985Y12047796D02*
G03*
X13027640Y12107557I-2058903J-325652D01*
G01*
X13046533Y11986192D02*
G03*
X13037987Y12047796I-1597034J-190188D01*
G01*
X13052147Y11925530D02*
G03*
X13046533Y11986192I-1132369J-74205D01*
G01*
X13053693Y11868592D02*
G03*
X13052147Y11925530I-721617J8896D01*
G01*
X13050037Y11818163D02*
G03*
X13053693Y11868592I-400274J54373D01*
G01*
X12873260Y11474013D02*
G03*
X13050037Y11818163I-392008J418835D01*
G01*
X12827557Y11433719D02*
G03*
X12873260Y11474013I-468936J577942D01*
G01*
X12779021Y11397044D02*
G03*
X12827557Y11433719I-506175J720354D01*
G01*
X12728327Y11363519D02*
G03*
X12779021Y11397044I-568000J913966D01*
G01*
X12676152Y11332672D02*
G03*
X12728326Y11363519I-670527J1193651D01*
G01*
X12676152Y11332671D02*
G03*
X12579685Y11277078I2889175J-5124903D01*
G01*
X12114084Y11050445D02*
G03*
X12161365Y11021567I75109J69827D01*
G01*
X12097462Y11072598D02*
G03*
X12114084Y11050444I112432J67047D01*
G01*
X12084568Y11098620D02*
G03*
X12097462Y11072598I173117J69575D01*
G01*
X12074689Y11127554D02*
G03*
X12084568Y11098620I272555J76903D01*
G01*
X12067113Y11158444D02*
G03*
X12074689Y11127554I441852J91998D01*
G01*
X12061126Y11190335D02*
G03*
X12067113Y11158444I793951J132545D01*
G01*
X12051068Y11253293D02*
G03*
X12045572Y11282448I-655406J-108462D01*
G01*
X12028420Y11401350D02*
G03*
X12045572Y11282448I1065592J93024D01*
G01*
X12023142Y11469372D02*
G03*
X12028420Y11401350I1976310J119133D01*
G01*
X12019501Y11667906D02*
G03*
X12023142Y11469372I2308196J-56969D01*
G01*
X12022075Y11721180D02*
G03*
X12019501Y11667906I1235182J-86366D01*
G01*
X12026403Y11762473D02*
G03*
X12022075Y11721180I542503J-77739D01*
G01*
X12032403Y11788466D02*
G03*
X12026403Y11762473I122070J-41867D01*
G01*
X12039992Y11795841D02*
G03*
X12032403Y11788466I50J-7643D01*
G01*
X12131781Y11891715D02*
G03*
X12077014Y11835494I2258186J-2254545D01*
G01*
X12164210Y11923622D02*
G03*
X12131780Y11891715I1803504J-1865460D01*
G01*
X12198235Y11955777D02*
G03*
X12164210Y11923622I1372431J-1486363D01*
G01*
X12232531Y11986466D02*
G03*
X12198235Y11955777I944841J-1090368D01*
G01*
X12265769Y12013977D02*
G03*
X12232531Y11986466I573036J-726179D01*
G01*
X12296625Y12036596D02*
G03*
X12265769Y12013977I289313J-427012D01*
G01*
X12364864Y12077749D02*
G03*
X12296626Y12036596I410199J-757326D01*
G01*
X12400256Y12096138D02*
G03*
X12364864Y12077750I474223J-955991D01*
G01*
X12436324Y12113329D02*
G03*
X12400256Y12096138I529311J-1156941D01*
G01*
X12472937Y12129519D02*
G03*
X12436324Y12113329I617005J-1444820D01*
G01*
X12509967Y12144905D02*
G03*
X12472937Y12129520I765149J-1893786D01*
G01*
X12699959Y12217205D02*
G03*
X12659649Y12202325I714029J-1996221D01*
G01*
X12761097Y12237757D02*
G03*
X12720248Y12224319I467509J-1489977D01*
G01*
X12802313Y12249958D02*
G03*
X12761097Y12237757I354942J-1274750D01*
G01*
X12843901Y12260702D02*
G03*
X12802313Y12249958I265677J-1114251D01*
G01*
X12864836Y12265459D02*
G03*
X12843901Y12260702I219966J-1016521D01*
G01*
X12893330Y12270488D02*
G03*
X12864836Y12265459I67148J-463748D01*
G01*
X5326822Y12911913D02*
G03*
X5356122Y12880650I77481J43258D01*
G01*
X5356122D02*
G03*
X5375063Y12869475I114638J172660D01*
G01*
X5420106Y12845189D02*
G03*
X5396487Y12858379I-213011J-353738D01*
G01*
X5445638Y12827740D02*
G03*
X5420106Y12845189I-170491J-222064D01*
G01*
X5472798Y12803860D02*
G03*
X5445638Y12827740I-198275J-198134D01*
G01*
X5501301Y12771384D02*
G03*
X5472798Y12803860I-269303J-207601D01*
G01*
X5530862Y12728139D02*
G03*
X5501301Y12771384I-395414J-238569D01*
G01*
X5561197Y12671957D02*
G03*
X5530862Y12728139I-600866J-288153D01*
G01*
X5561197Y12671957D02*
G03*
X5590875Y12647182I41348J19368D01*
G01*
D02*
G03*
X5611992Y12644539I19664J71424D01*
G01*
D02*
G03*
X5635812Y12647246I-2013J123850D01*
G01*
X5635813Y12647247D02*
G03*
X5661225Y12654446I-39649J188400D01*
G01*
X5661225Y12654446D02*
G03*
X5687117Y12665279I-88837J248701D01*
G01*
X5687117D02*
G03*
X5756556Y12710985I-132874J277465D01*
G01*
X5756556Y12710986D02*
G03*
X5773251Y12727761I-121859J137965D01*
G01*
X5909746Y12820920D02*
G03*
X5773251Y12727761I109343J-306782D01*
G01*
X5960854Y12835995D02*
G03*
X5909746Y12820921I92087J-406378D01*
G01*
X6013023Y12845003D02*
G03*
X5960854Y12835995I60508J-506058D01*
G01*
X6065207Y12849094D02*
G03*
X6013023Y12845003I23864J-639139D01*
G01*
X6116358Y12849423D02*
G03*
X6065206Y12849094I-20267J-823867D01*
G01*
X6165432Y12847144D02*
G03*
X6116358Y12849423I-76577J-1119137D01*
G01*
X6211382Y12843407D02*
G03*
X6165432Y12847144I-169782J-1803684D01*
G01*
X6253161Y12839368D02*
G03*
X6291288Y12857751I4188J40043D01*
G01*
X6291288D02*
G03*
X6302332Y12880621I-67975J46927D01*
G01*
Y12880621D02*
G03*
X6308122Y12909354I-136200J42397D01*
G01*
X6308122D02*
G03*
X6308728Y12941510I-198568J19825D01*
G01*
X6308728D02*
G03*
X6294664Y13006320I-210782J-11808D01*
G01*
D02*
G03*
X6280133Y13034093I-135742J-53335D01*
G01*
X6280133D02*
G03*
X6260695Y13055521I-80615J-53598D01*
G01*
Y13055521D02*
G03*
X6236420Y13068163I-43009J-52957D01*
G01*
D02*
G03*
X6110677Y13077290I-83111J-274209D01*
G01*
D02*
G03*
X6016530Y13041028I45955J-259651D01*
G01*
X6016530Y13041028D02*
G03*
X5977171Y13014186I256336J-418144D01*
G01*
Y13014186D02*
G03*
X5940752Y12985970I1201927J-1589016D01*
G01*
X5905617Y12959706D02*
G03*
X5940752Y12985970I-422055J601221D01*
G01*
X5870113Y12938716D02*
G03*
X5905617Y12959705I-113557J232603D01*
G01*
X5832588Y12926328D02*
G03*
X5870113Y12938716I-27048J144954D01*
G01*
X5791386Y12925864D02*
G03*
X5832588Y12926328I19210J123779D01*
G01*
X5735196Y12939145D02*
G03*
X5791387Y12925864I107356J328696D01*
G01*
X5716600Y12946017D02*
G03*
X5735196Y12939145I106159J258646D01*
G01*
X5698721Y12954231D02*
G03*
X5716600Y12946017I107883J211237D01*
G01*
X5681950Y12963861D02*
G03*
X5698721Y12954233I106047J165301D01*
G01*
X5666676Y12974974D02*
G03*
X5681950Y12963861I101873J123958D01*
G01*
X5653290Y12987643D02*
G03*
X5666676Y12974974I96805J88871D01*
G01*
X5642182Y13001942D02*
G03*
X5653290Y12987643I92464J60372D01*
G01*
X5633742Y13017940D02*
G03*
X5642182Y13001942I90614J37582D01*
G01*
X5628721Y13096288D02*
G03*
X5633742Y13017940I123635J-31412D01*
G01*
X5641722Y13136386D02*
G03*
X5628721Y13096288I224945J-95091D01*
G01*
X5661029Y13176894D02*
G03*
X5641722Y13136386I424483J-227173D01*
G01*
X5683613Y13217650D02*
G03*
X5661029Y13176894I1289516J-741182D01*
G01*
X5683613Y13217650D02*
G03*
X5706449Y13258504I-1711605J983578D01*
G01*
D02*
G03*
X5726510Y13299294I-479334J261062D01*
G01*
X5726510D02*
G03*
X5740768Y13339864I-248846J110242D01*
G01*
Y13339865D02*
G03*
X5746196Y13380061I-156648J41620D01*
G01*
Y13380061D02*
G03*
X5739768Y13419725I-122258J540D01*
G01*
D02*
G03*
X5724823Y13451027I-155976J-55253D01*
G01*
D02*
G03*
X5688590Y13495804I-175081J-104625D01*
G01*
X5688591D02*
G03*
X5674368Y13507146I-90393J-98757D01*
G01*
X5674367D02*
G03*
X5659712Y13515446I-52430J-75479D01*
G01*
D02*
G03*
X5645010Y13519955I-24855J-54833D01*
G01*
D02*
G03*
X5630645Y13519920I-7081J-41654D01*
G01*
X5630644D02*
G03*
X5617000Y13514590I6951J-37928D01*
G01*
X5617001D02*
G03*
X5527214Y13449649I372194J-609116D01*
G01*
D02*
G03*
X5496584Y13420348I271961J-314961D01*
G01*
D02*
G03*
X5438278Y13337263I270748J-252004D01*
G01*
X5407836Y13279333D02*
G03*
X5423518Y13308989I-1122238J612394D01*
G01*
X5389277Y13247638D02*
G03*
X5407836Y13279332I-536268J335308D01*
G01*
X5365885Y13213252D02*
G03*
X5389277Y13247638I-448077J329965D01*
G01*
X5365884Y13213252D02*
G03*
X5306578Y13121613I598691J-452470D01*
G01*
D02*
G03*
X5290176Y13085820I279497J-149732D01*
G01*
D02*
G03*
X5281239Y13055133I176026J-67911D01*
G01*
X5281239D02*
G03*
X5278738Y13028368I127004J-25365D01*
G01*
X5278738D02*
G03*
X5288937Y12981863I123953J2814D01*
G01*
X5288937D02*
G03*
X5299581Y12959756I225435J94930D01*
G01*
X5299581Y12959756D02*
G03*
X5312552Y12936835I688803J374636D01*
G01*
X5326822Y12911913D02*
G03*
X5312552Y12936835I-1186514J-662822D01*
G01*
X6688429Y13174190D02*
G03*
X6651409Y13120204I600993J-451805D01*
G01*
D02*
G03*
X6634922Y13093048I957233J-599749D01*
G01*
X6574790Y12987730D02*
G03*
X6589608Y13013187I-1220641J727558D01*
G01*
X6559568Y12963171D02*
G03*
X6574790Y12987730I-698672J450013D01*
G01*
X6543614Y12939696D02*
G03*
X6559568Y12963171I-466451J334162D01*
G01*
X6526599Y12917493D02*
G03*
X6543614Y12939696I-335644J274844D01*
G01*
X6526599Y12917493D02*
G03*
X6509469Y12881319I84193J-62010D01*
G01*
Y12881319D02*
G03*
X6503952Y12856317I195504J-56252D01*
G01*
D02*
G03*
X6506611Y12769043I230562J-36654D01*
G01*
D02*
G03*
X6515850Y12740140I175843J40285D01*
G01*
X6515851D02*
G03*
X6530242Y12713469I138152J57330D01*
G01*
X6530242D02*
G03*
X6576822Y12671957I105080J71020D01*
G01*
X6576822D02*
G03*
X6672865Y12630219I324779J615970D01*
G01*
Y12630219D02*
G03*
X6715638Y12617525I170771J497029D01*
G01*
D02*
G03*
X6755099Y12609488I108960J434061D01*
G01*
D02*
G03*
X6791387Y12605511I60774J386967D01*
G01*
D02*
G03*
X6855006Y12607354I21911J342478D01*
G01*
X6855006Y12607355D02*
G03*
X6930135Y12625680I-42900J339051D01*
G01*
X6930135D02*
G03*
X6994806Y12661639I-82333J224203D01*
G01*
Y12661639D02*
G03*
X7023355Y12686714I-188159J243018D01*
G01*
D02*
G03*
X7049924Y12715894I-280347J281949D01*
G01*
D02*
G03*
X7074923Y12748712I-417207J343735D01*
G01*
X7074923D02*
G03*
X7098760Y12784699I-629996J443179D01*
G01*
X7098759D02*
G03*
X7121843Y12823387I-992624J618488D01*
G01*
D02*
G03*
X7144582Y12864308I-1740513J993951D01*
G01*
X7232856Y12987238D02*
G03*
X7190661Y12950975I34876J-83262D01*
G01*
X7264285Y12999927D02*
G03*
X7232856Y12987238I84075J-253496D01*
G01*
X7300037Y13010783D02*
G03*
X7264285Y12999927I176440J-645310D01*
G01*
X7338187Y13021153D02*
G03*
X7376812Y13032382I-261720J972315D01*
G01*
D02*
G03*
X7413988Y13045816I-131928J423248D01*
G01*
Y13045816D02*
G03*
X7447791Y13062801I-95238J231674D01*
G01*
D02*
G03*
X7476296Y13084682I-80973J134996D01*
G01*
D02*
G03*
X7497581Y13112807I-81541J83828D01*
G01*
D02*
G03*
X7518760Y13172330I-212925J109291D01*
G01*
X7518760D02*
G03*
X7524830Y13207443I-344505J77632D01*
G01*
X7524830D02*
G03*
X7521819Y13317755I-358932J45400D01*
G01*
D02*
G03*
X7512869Y13351617I-245390J-46740D01*
G01*
Y13351617D02*
G03*
X7499510Y13381744I-173351J-58845D01*
G01*
X7499511Y13381744D02*
G03*
X7481481Y13406763I-114580J-63565D01*
G01*
X7481481Y13406763D02*
G03*
X7458518Y13425305I-73664J-67732D01*
G01*
D02*
G03*
X7385691Y13457314I-195345J-345615D01*
G01*
X7385690D02*
G03*
X7343845Y13469640I-192987J-577962D01*
G01*
D02*
G03*
X7299831Y13479504I-183261J-714448D01*
G01*
D02*
G03*
X7123854Y13494244I-156115J-806084D01*
G01*
Y13494243D02*
G03*
X7085322Y13491714I16345J-543997D01*
G01*
X7085322D02*
G03*
X7051152Y13486690I37275J-372092D01*
G01*
X7051153D02*
G03*
X6993208Y13469835I60053J-314484D01*
G01*
X6993208Y13469835D02*
G03*
X6933520Y13437659I118385J-291064D01*
G01*
X6933520Y13437659D02*
G03*
X6901285Y13413481I251372J-368718D01*
G01*
D02*
G03*
X6866531Y13382661I400649J-486783D01*
G01*
X6866531Y13382661D02*
G03*
X6828563Y13344260I643060J-673767D01*
G01*
X6828563D02*
G03*
X6786686Y13297337I1027769J-959432D01*
G01*
Y13297337D02*
G03*
X6740206Y13240961I1625953J-1387856D01*
G01*
Y13240961D02*
G03*
X6688429Y13174190I2539931J-2023035D01*
G01*
X9194271Y14176347D02*
G03*
X9244233Y14145171I468855J695766D01*
G01*
X9169791Y14193719D02*
G03*
X9194271Y14176347I393058J527931D01*
G01*
X9146153Y14212325D02*
G03*
X9169791Y14193719I357274J429600D01*
G01*
X9123738Y14232195D02*
G03*
X9146153Y14212325I325033J344085D01*
G01*
X9102926Y14253362D02*
G03*
X9123738Y14232195I295897J270107D01*
G01*
X9084100Y14275859D02*
G03*
X9102926Y14253362I269962J206796D01*
G01*
X9067639Y14299716D02*
G03*
X9084100Y14275859I247660J153265D01*
G01*
X9053926Y14324968D02*
G03*
X9067639Y14299718I229660J108376D01*
G01*
X9043340Y14351645D02*
G03*
X9053926Y14324968I216804J70592D01*
G01*
X9022524Y14555360D02*
G03*
X9043340Y14351645I495299J-52312D01*
G01*
X9029144Y14596288D02*
G03*
X9022524Y14555362I404292J-86395D01*
G01*
X9039888Y14635599D02*
G03*
X9029144Y14596288I342026J-114605D01*
G01*
X9054985Y14672581D02*
G03*
X9039888Y14635599I278972J-135451D01*
G01*
X9074661Y14706519D02*
G03*
X9054985Y14672581I220634J-150595D01*
G01*
X9099144Y14736690D02*
G03*
X9074661Y14706519I170096J-163042D01*
G01*
X9099144Y14736690D02*
G03*
X9152530Y14800082I-602406J561495D01*
G01*
X9242227Y14914447D02*
G03*
X9210826Y14875677I1176039J-984645D01*
G01*
X9275352Y14951942D02*
G03*
X9242227Y14914447I684878J-638424D01*
G01*
X9310365Y14986722D02*
G03*
X9275352Y14951942I430813J-468716D01*
G01*
X9347431Y15017345D02*
G03*
X9310365Y14986722I268736J-363031D01*
G01*
X9386716Y15042368D02*
G03*
X9347431Y15017345I157615J-290794D01*
G01*
X9428384Y15060350D02*
G03*
X9386716Y15042368I79671J-241880D01*
G01*
X9471403Y15059229D02*
G03*
X9428384Y15060350I-23066J-59202D01*
G01*
X9491474Y15048936D02*
G03*
X9471403Y15059229I-56278J-85032D01*
G01*
X9510961Y15034135D02*
G03*
X9491474Y15048936I-120434J-138336D01*
G01*
X9530147Y15016310D02*
G03*
X9510961Y15034135I-271495J-272969D01*
G01*
X9549314Y14996944D02*
G03*
X9530147Y15016310I-1118783J-1088034D01*
G01*
X9549314Y14996944D02*
G03*
X9568742Y14977519I703038J683786D01*
G01*
Y14977519D02*
G03*
X9588713Y14959525I243581J250249D01*
G01*
D02*
G03*
X9609510Y14944440I120180J143822D01*
G01*
X9609511Y14944440D02*
G03*
X9631415Y14933752I61236J97712D01*
G01*
X9751994Y14888730D02*
G03*
X9631414Y14933752I-1186127J-2992686D01*
G01*
X9803813Y14867004D02*
G03*
X9751994Y14888728I-664656J-1512720D01*
G01*
X9851345Y14844868D02*
G03*
X9803813Y14867004I-531506J-1079210D01*
G01*
X9895609Y14821622D02*
G03*
X9851345Y14844868I-472962J-846762D01*
G01*
X10018994Y14738190D02*
G03*
X9895609Y14821622I-557996J-692243D01*
G01*
X10060385Y14703477D02*
G03*
X10018994Y14738190I-794579J-905433D01*
G01*
X10103608Y14664145D02*
G03*
X10060385Y14703477I-1115212J-1182106D01*
G01*
X10147991Y14597751D02*
G03*
X10103608Y14664145I-183974J-74952D01*
G01*
X10162397Y14556567D02*
G03*
X10147991Y14597751I-308943J-84959D01*
G01*
X10171951Y14512534D02*
G03*
X10162397Y14556567I-399332J-63593D01*
G01*
X10174053Y14381853D02*
G03*
X10171951Y14512534I-451608J58096D01*
G01*
X10166747Y14344946D02*
G03*
X10174052Y14381853I-291130J76803D01*
G01*
X10155863Y14314455D02*
G03*
X10166747Y14344946I-166488J76618D01*
G01*
X10141655Y14292233D02*
G03*
X10155863Y14314455I-68885J59698D01*
G01*
X10141654Y14292233D02*
G03*
X10113226Y14242352I113631J-97803D01*
G01*
Y14242352D02*
G03*
X10104165Y14212238I281710J-101174D01*
G01*
Y14212238D02*
G03*
X10097268Y14179874I525829J-128988D01*
G01*
X10097268Y14179874D02*
G03*
X10091577Y14146162I1323515J-240743D01*
G01*
X10079998Y14078299D02*
G03*
X10086139Y14112003I-869173J175785D01*
G01*
X10072198Y14045950D02*
G03*
X10079998Y14078299I-426576J119964D01*
G01*
X10061785Y14015857D02*
G03*
X10072198Y14045950I-246305J102075D01*
G01*
X10047804Y13988922D02*
G03*
X10061786Y14015857I-148312J94079D01*
G01*
X9996691Y13951794D02*
G03*
X10047804Y13988921I-18312J78956D01*
G01*
X9964275Y13949400D02*
G03*
X9996691Y13951794I8037J111821D01*
G01*
X9928542Y13955281D02*
G03*
X9964275Y13949400I49201J187426D01*
G01*
X9890434Y13967561D02*
G03*
X9928542Y13955281I125508J324215D01*
G01*
X9850894Y13984361D02*
G03*
X9890434Y13967561I266790J572965D01*
G01*
X9810864Y14003806D02*
G03*
X9850894Y13984361I587573J1158779D01*
G01*
X9771287Y14024013D02*
G03*
X9733104Y14043108I-833692J-1619331D01*
G01*
X9733103D02*
G03*
X9697257Y14059213I-277744J-570260D01*
G01*
Y14059213D02*
G03*
X9553493Y14105362I-340364J-813290D01*
G01*
Y14105362D02*
G03*
X9498527Y14114658I-121536J-551547D01*
G01*
D02*
G03*
X9412498Y14117616I-61657J-540546D01*
G01*
X9345108Y14115640D02*
G03*
X9412498Y14117616I2700J1057620D01*
G01*
X9313440Y14118764D02*
G03*
X9345108Y14115639I37064J213560D01*
G01*
X9244233Y14145172D02*
G03*
X9313440Y14118765I107687J178336D01*
G01*
X12030837Y14728249D02*
G03*
X11900483Y14781332I-141432J-160712D01*
G01*
X12060645Y14698355D02*
G03*
X12030837Y14728249I-232540J-202064D01*
G01*
X12086676Y14666078D02*
G03*
X12060644Y14698355I-455288J-340546D01*
G01*
X12110758Y14633646D02*
G03*
X12134718Y14603288I463743J341388D01*
G01*
X12134718Y14603288D02*
G03*
X12160384Y14577235I180636J152281D01*
G01*
Y14577235D02*
G03*
X12189583Y14557715I91944J105935D01*
G01*
Y14557715D02*
G03*
X12224143Y14546957I51527J104641D01*
G01*
X12224143D02*
G03*
X12262900Y14550832I10920J86533D01*
G01*
D02*
G03*
X12282196Y14558186I-52227J166055D01*
G01*
D02*
G03*
X12301411Y14567526I-146193J325164D01*
G01*
X12339517Y14587305D02*
G03*
X12320525Y14577638I224625J-464830D01*
G01*
X12358369Y14595309D02*
G03*
X12339517Y14587305I71225J-193950D01*
G01*
X12377059Y14600433D02*
G03*
X12358369Y14595309I20529J-111508D01*
G01*
X12395568Y14601463D02*
G03*
X12377059Y14600435I-5199J-73434D01*
G01*
X12413876Y14597180D02*
G03*
X12395568Y14601463I-22921J-56703D01*
G01*
X12452161Y14574513D02*
G03*
X12413876Y14597180I-98275J-122319D01*
G01*
X12485271Y14541151D02*
G03*
X12452161Y14574513I-159525J-125217D01*
G01*
X12519093Y14478963D02*
G03*
X12485271Y14541151I-194232J-65342D01*
G01*
X12524739Y14456799D02*
G03*
X12519093Y14478963I-162500J-29592D01*
G01*
X12526986Y14434669D02*
G03*
X12524739Y14456799I-140339J-3071D01*
G01*
X12525483Y14413029D02*
G03*
X12526986Y14434669I-117401J19026D01*
G01*
X12505802Y14355896D02*
G03*
X12525483Y14413028I-178639J93495D01*
G01*
X12489074Y14327263D02*
G03*
X12505802Y14355896I-235333J156685D01*
G01*
X12445596Y14275697D02*
G03*
X12489074Y14327264I-200594J213243D01*
G01*
X12420345Y14255095D02*
G03*
X12445596Y14275697I-135871J192315D01*
G01*
X12393752Y14239505D02*
G03*
X12420345Y14255096I-76955J161729D01*
G01*
X12366569Y14230090D02*
G03*
X12393753Y14239505I-28198J125372D01*
G01*
X12339545Y14228020D02*
G03*
X12366569Y14230090I6410J93698D01*
G01*
X12313429Y14234457D02*
G03*
X12339545Y14228020I31875J73112D01*
G01*
X12313429Y14234457D02*
G03*
X12226375Y14265155I-230686J-515395D01*
G01*
Y14265157D02*
G03*
X12193466Y14271860I-85512J-335600D01*
G01*
Y14271860D02*
G03*
X12143551Y14275092I-43603J-286446D01*
G01*
Y14275092D02*
G03*
X12124411Y14274461I19800J-892530D01*
G01*
X12107728Y14274229D02*
G03*
X12124411Y14274461I4787J256812D01*
G01*
X12092433Y14275819D02*
G03*
X12107727Y14274229I17008J89252D01*
G01*
X12061744Y14290150D02*
G03*
X12092433Y14275819I45761J57971D01*
G01*
X12004379Y14335550D02*
G03*
X12061744Y14290150I742377J879106D01*
G01*
X11982640Y14354993D02*
G03*
X12004379Y14335548I403035J428743D01*
G01*
X11964680Y14372975D02*
G03*
X11982641Y14354993I293814J275508D01*
G01*
X11949858Y14390028D02*
G03*
X11964680Y14372975I234687J189010D01*
G01*
X11917841Y14440938D02*
G03*
X11949858Y14390028I239065J114825D01*
G01*
X11909189Y14459599D02*
G03*
X11917841Y14440938I451834J198147D01*
G01*
X11900483Y14479993D02*
G03*
X11909189Y14459599I1028547J427024D01*
G01*
X11879606Y14542043D02*
G03*
X11900483Y14479993I549784J150436D01*
G01*
X11861419Y14621725D02*
G03*
X11879606Y14542043I796509J139885D01*
G01*
X11855756Y14662389D02*
G03*
X11861419Y14621725I583517J60543D01*
G01*
X11853670Y14700516D02*
G03*
X11855756Y14662389I378226J1567D01*
G01*
X11856132Y14733788D02*
G03*
X11853670Y14700516I201350J-31623D01*
G01*
X11864109Y14759891D02*
G03*
X11856132Y14733788I82442J-39463D01*
G01*
X11878570Y14776511D02*
G03*
X11864109Y14759891I22055J-33791D01*
G01*
X11900483Y14781332D02*
G03*
X11878570Y14776511I-3640J-35670D01*
G01*
X9842395Y15149948D02*
G03*
X9882647Y15092764I160428J70166D01*
G01*
X9882647D02*
G03*
X9913876Y15064363I295983J294085D01*
G01*
Y15064363D02*
G03*
X9949865Y15036754I419147J509109D01*
G01*
D02*
G03*
X9988636Y15010432I560770J784303D01*
G01*
D02*
G03*
X10028207Y14985899I720640J1118129D01*
G01*
Y14985899D02*
G03*
X10066599Y14963647I913921J1532644D01*
G01*
X10154896Y14915573D02*
G03*
X10269392Y14913409I59167J100483D01*
G01*
D02*
G03*
X10294696Y14928616I-86039J171819D01*
G01*
Y14928616D02*
G03*
X10318594Y14947679I-158088J222712D01*
G01*
D02*
G03*
X10341048Y14969373I-262873J294554D01*
G01*
X10341048D02*
G03*
X10362021Y14992477I-426699J408396D01*
G01*
Y14992477D02*
G03*
X10381473Y15015770I-766376J659784D01*
G01*
X10399367Y15038029D02*
G03*
X10448035Y15112563I-361194J289009D01*
G01*
D02*
G03*
X10461244Y15140491I-350400J182808D01*
G01*
D02*
G03*
X10471933Y15169139I-306217J130576D01*
G01*
D02*
G03*
X10479496Y15198013I-256126J82512D01*
G01*
X10479496Y15198013D02*
G03*
X10483324Y15226617I-207685J42355D01*
G01*
Y15226617D02*
G03*
X10482811Y15254462I-166231J10863D01*
G01*
X10482812D02*
G03*
X10477349Y15281049I-134862J-13852D01*
G01*
X10477349D02*
G03*
X10466331Y15305885I-114597J-35976D01*
G01*
X10415904Y15428442D02*
G03*
X10466330Y15305885I545301J152715D01*
G01*
X10396941Y15497768D02*
G03*
X10415904Y15428442I1527299J380506D01*
G01*
X10379540Y15568930D02*
G03*
X10361746Y15639281I-2765664J-662116D01*
G01*
X10361745Y15639281D02*
G03*
X10341603Y15706174I-1034052J-274877D01*
G01*
Y15706175D02*
G03*
X10317160Y15766965I-530966J-178194D01*
G01*
Y15766965D02*
G03*
X10286460Y15819003I-291672J-136994D01*
G01*
X10286459D02*
G03*
X10247549Y15859645I-166900J-120843D01*
G01*
D02*
G03*
X10198474Y15886243I-102856J-131207D01*
G01*
Y15886243D02*
G03*
X10162467Y15895177I-79336J-242743D01*
G01*
X10162467D02*
G03*
X10141067Y15898582I-90432J-499198D01*
G01*
Y15898582D02*
G03*
X10117682Y15901447I-107236J-778732D01*
G01*
Y15901447D02*
G03*
X10092519Y15903891I-131972J-1227576D01*
G01*
X9947358Y15914145D02*
G03*
X9899226Y15877203I557J-50553D01*
G01*
Y15877203D02*
G03*
X9884449Y15833060I221290J-98621D01*
G01*
X9884449D02*
G03*
X9873532Y15776804I653688J-156046D01*
G01*
D02*
G03*
X9864725Y15712193I2001311J-305696D01*
G01*
X9846443Y15572917D02*
G03*
X9856278Y15642979I-2073570J326803D01*
G01*
X9833470Y15505759D02*
G03*
X9846443Y15572917I-940642J216548D01*
G01*
X9815607Y15445259D02*
G03*
X9833470Y15505759I-470680J171851D01*
G01*
X9791108Y15395171D02*
G03*
X9815607Y15445259I-216681J137024D01*
G01*
X9791108Y15395171D02*
G03*
X9770501Y15343358I105898J-72120D01*
G01*
X9770501D02*
G03*
X9773881Y15295270I117293J-15920D01*
G01*
D02*
G03*
X9781892Y15271892I183859J49943D01*
G01*
Y15271892D02*
G03*
X9792692Y15248567I304058J126624D01*
G01*
X9792692D02*
G03*
X9805212Y15225003I732657J374152D01*
G01*
X9831132Y15175986D02*
G03*
X9818381Y15200906I-546609J-263957D01*
G01*
X9842396Y15149948D02*
G03*
X9831133Y15175986I-318740J-122417D01*
G01*
X14942165Y13836806D02*
G03*
X14925037Y13815932I28596J-40931D01*
G01*
X14954935Y13844362D02*
G03*
X14942165Y13836806I33799J-71690D01*
G01*
X14969716Y13850082D02*
G03*
X14954935Y13844362I31943J-104503D01*
G01*
X14985912Y13854028D02*
G03*
X14969714Y13850082I25512J-139887D01*
G01*
X15002931Y13856268D02*
G03*
X14985912Y13854028I13679J-169794D01*
G01*
X15052972Y13853371D02*
G03*
X15002931Y13856267I-35145J-173411D01*
G01*
X15067336Y13849413D02*
G03*
X15052972Y13853371I-38785J-112713D01*
G01*
X15110423Y13826241D02*
G03*
X15067336Y13849413I-96571J-127917D01*
G01*
X15129337Y13810188D02*
G03*
X15110423Y13826241I-139788J-145550D01*
G01*
X15146652Y13791768D02*
G03*
X15129337Y13810188I-188421J-159768D01*
G01*
X15162488Y13771429D02*
G03*
X15146652Y13791768I-250608J-178807D01*
G01*
X15176962Y13749631D02*
G03*
X15162488Y13771429I-329572J-203115D01*
G01*
X15190192Y13726823D02*
G03*
X15176962Y13749631I-430669J-234559D01*
G01*
X15202293Y13703461D02*
G03*
X15190192Y13726823I-565129J-277929D01*
G01*
X15213385Y13679999D02*
G03*
X15202293Y13703461I-761264J-345544D01*
G01*
X15223586Y13656891D02*
G03*
X15213385Y13679999I-1110248J-476241D01*
G01*
X15242757Y13601804D02*
G03*
X15223586Y13656891I-471204J-133108D01*
G01*
X15258582Y13533591D02*
G03*
X15242757Y13601804I-629760J-110171D01*
G01*
X15263203Y13499338D02*
G03*
X15258582Y13533591I-449138J-43156D01*
G01*
X15264545Y13467532D02*
G03*
X15263203Y13499338I-286076J3877D01*
G01*
X15261787Y13440085D02*
G03*
X15264545Y13467532I-149101J28833D01*
G01*
X15254121Y13418904D02*
G03*
X15261787Y13440085I-59494J33513D01*
G01*
X15240729Y13405901D02*
G03*
X15254121Y13418904I-15241J29096D01*
G01*
X15220795Y13402985D02*
G03*
X15240729Y13405901I5172J34233D01*
G01*
X15220795Y13402985D02*
G03*
X15143929Y13385951I-15589J-111601D01*
G01*
X15143929Y13385951D02*
G03*
X15130328Y13376506I100918J-159816D01*
G01*
D02*
G03*
X15118053Y13366835I302914J-397192D01*
G01*
X15106635Y13357864D02*
G03*
X15118053Y13366835I-242274J320086D01*
G01*
X15095615Y13350516D02*
G03*
X15106635Y13357864I-53607J92343D01*
G01*
X15084528Y13345717D02*
G03*
X15095613Y13350516I-14502J48703D01*
G01*
X15072916Y13344391D02*
G03*
X15084528Y13345717I1957J34382D01*
G01*
X15044633Y13357590D02*
G03*
X15072916Y13344391I30319J28071D01*
G01*
X15034988Y13371164D02*
G03*
X15044633Y13357590I54901J28788D01*
G01*
X15027933Y13388182D02*
G03*
X15034988Y13371164I95680J29701D01*
G01*
X15023157Y13407735D02*
G03*
X15027933Y13388182I155971J27742D01*
G01*
X15020351Y13428917D02*
G03*
X15023157Y13407735I232598J20023D01*
G01*
X15019209Y13450821D02*
G03*
X15020352Y13428917I316174J5488D01*
G01*
X15019424Y13472540D02*
G03*
X15019209Y13450821I390250J-14723D01*
G01*
X15022691Y13511801D02*
G03*
X15019424Y13472540I425178J-55139D01*
G01*
X15022691Y13511801D02*
G03*
X15017307Y13554794I-75211J12413D01*
G01*
Y13554794D02*
G03*
X15007494Y13570360I-66549J-31077D01*
G01*
D02*
G03*
X14994836Y13583446I-89129J-73553D01*
G01*
X14994836Y13583446D02*
G03*
X14980759Y13595155I-204924J-232016D01*
G01*
X14966689Y13606598D02*
G03*
X14980759Y13595155I314785J372730D01*
G01*
X14954050Y13618878D02*
G03*
X14966689Y13606599I93052J83133D01*
G01*
X14944267Y13633099D02*
G03*
X14954050Y13618878I61019J31491D01*
G01*
X14938982Y13671796D02*
G03*
X14944267Y13633099I61408J-11321D01*
G01*
X14938982Y13671796D02*
G03*
X14940018Y13712418I-151508J24185D01*
G01*
D02*
G03*
X14933029Y13742136I-136875J-16503D01*
G01*
Y13742136D02*
G03*
X14928436Y13754469I-329879J-115809D01*
G01*
X14924129Y13765956D02*
G03*
X14928436Y13754469I324386J115087D01*
G01*
X14920872Y13777219D02*
G03*
X14924129Y13765956I95857J21619D01*
G01*
X14919427Y13788885D02*
G03*
X14920872Y13777219I61081J1638D01*
G01*
X14920561Y13801581D02*
G03*
X14919427Y13788885I56415J-11434D01*
G01*
X14925035Y13815932D02*
G03*
X14920561Y13801581I70066J-29720D01*
G01*
X11505848Y11712103D02*
X11529284Y11720720D01*
X11482834Y11703409D02*
X11505848Y11712103D01*
X11459882Y11694704D02*
X11482834Y11703409D01*
X11436638Y11686052D02*
X11459882Y11694704D01*
X11412742Y11677519D02*
X11436638Y11686052D01*
X11313194Y11567474D02*
X11322730Y11581494D01*
X11303814Y11553440D02*
X11313194Y11567474D01*
X11294365Y11539412D02*
X11303814Y11553440D01*
X11337374Y11344772D02*
X11354159Y11296230D01*
X11370887Y11247787D01*
X11797421Y11392562D02*
X11799018Y11362915D01*
X11795496Y11424981D02*
X11797421Y11392562D01*
X10061698Y10933021D02*
X10062347Y10928454D01*
X10008084Y10928559D02*
X10036860Y10928733D01*
X9489315Y10998324D02*
X9504644Y10979341D01*
X9397541Y11098053D02*
X9418582Y11076584D01*
X8939142Y11527743D02*
X8990677Y11510732D01*
X8881937Y11546478D02*
X8939142Y11527743D01*
X8573191Y11616384D02*
X8620878Y11610942D01*
X8209958Y11768034D02*
X8238320Y11746750D01*
X8129563Y11974042D02*
X8147340Y11982654D01*
X8695455Y12023736D02*
X8728829Y12001551D01*
X8762115Y11979578D01*
X9033980Y11815076D02*
X9064929Y11786163D01*
X9509328Y11615008D02*
X9536727Y11613906D01*
X9566368Y11612645D01*
X10026616Y11321870D02*
X10048607Y11273371D01*
X11178707Y8308118D02*
X11185737Y8275737D01*
X11244835Y8619655D02*
X11273063Y8678395D01*
X12235016Y10448444D02*
X12236114Y10517933D01*
X13620839Y12092006D02*
X13670761Y12109615D01*
X14980579Y12394399D02*
X15005043Y12386784D01*
X15350592Y11884760D02*
X15374683Y11879396D01*
X15933089Y11535908D02*
X15935080Y11539145D01*
X16571957Y11720086D02*
X16611325Y11698043D01*
X16816649Y13479147D02*
X16827856Y13445250D01*
X16645776Y13629745D02*
X16722076Y13584776D01*
X16010933Y15092863D02*
X16041737Y15084824D01*
X15977702Y15101476D02*
X16010933Y15092863D01*
X15762543Y15362933D02*
X15785442Y15300986D01*
X15301668Y15801466D02*
X15317659Y15743053D01*
X14895433Y16044238D02*
X14938393Y16025528D01*
X14268021Y16144800D02*
X14327525Y16120998D01*
X14041740Y16313510D02*
X14085074Y16269983D01*
X11481971Y16752188D02*
X11581488Y16758534D01*
X11381510Y16745618D02*
X11481971Y16752188D01*
X8301475Y16903403D02*
X8352956Y16883202D01*
X7535786Y16792542D02*
X7572466Y16792494D01*
X6541032Y16248624D02*
X6572106Y16282785D01*
X6442268Y15928680D02*
X6459238Y15894569D01*
X3431359Y12960667D02*
X3437877Y12937158D01*
X2942256Y11441477D02*
X2967087Y11516127D01*
X2943189Y11002320D02*
X2959109Y11023085D01*
X3848335Y10533563D02*
X3864720Y10528828D01*
X3882834Y10523679D01*
X4859150Y10475758D02*
X4868628Y10472771D01*
X5086858Y10515709D02*
X5151592Y10555493D01*
X5235901Y10608015D01*
X5325930Y10544395D02*
X5343288Y10514872D01*
X5905809Y9577847D02*
X5933338Y9563046D01*
X6300241Y9190199D02*
X6306375Y9196158D01*
X6312977Y9202554D01*
X6348764Y9230357D02*
X6359703Y9237831D01*
X6826149Y9623341D02*
X6840076Y9629857D01*
X7118140Y9644452D02*
X7157748Y9647534D01*
X7417454Y9637329D02*
X7508396Y9622122D01*
X7537641Y9617291D01*
X7610143Y9615594D02*
X7625392Y9618827D01*
X8543673Y9306347D02*
X8572320Y9301796D01*
X8600639Y9297158D01*
X8814394Y9238873D02*
X8849875Y9230451D01*
X8885500Y9221763D01*
X9569776Y8853211D02*
X9579657Y8840064D01*
X9644812Y8785506D02*
X9657447Y8779684D01*
X9669930Y8773965D01*
X9963240Y8586625D02*
X9995672Y8573677D01*
X10024095Y8562347D01*
X10192999Y8158744D02*
X10193456Y8110418D01*
X15935080Y11539145D02*
X16133304Y11747939D01*
X9600157Y9255479D02*
X9723893Y9200475D01*
X9538322Y9283111D02*
X9600157Y9255479D01*
X9476429Y9310615D02*
X9538322Y9283111D01*
X9414416Y9337827D02*
X9476429Y9310615D01*
X9352223Y9364587D02*
X9414416Y9337827D01*
X9289790Y9390733D02*
X9352223Y9364587D01*
X9227055Y9416102D02*
X9289790Y9390733D01*
X9163959Y9440533D02*
X9227055Y9416102D01*
X8940932Y9513425D02*
X8994440Y9498137D01*
X8887197Y9527980D02*
X8940932Y9513425D01*
X8833322Y9542176D02*
X8887197Y9527980D01*
X8779392Y9556390D02*
X8833322Y9542176D01*
X8725492Y9570994D02*
X8779392Y9556390D01*
X8671707Y9586363D02*
X8725492Y9570994D01*
X8492384Y9642012D02*
X8520111Y9634298D01*
X8181429Y9910807D02*
X8190616Y9894295D01*
X8173386Y9925073D02*
X8181429Y9910807D01*
X7888184Y10346226D02*
X7922764Y10309977D01*
X7740525Y10525995D02*
X7753488Y10507854D01*
X7727540Y10544123D02*
X7740525Y10525995D01*
X7714449Y10562166D02*
X7727540Y10544123D01*
X7701165Y10580046D02*
X7714449Y10562166D01*
X8052836Y11675890D02*
X8073352Y11662793D01*
X8093799Y11649768D01*
X8237287Y11566570D02*
X8270659Y11543579D01*
X8552531Y11448616D02*
X8591145Y11448589D01*
X9235158Y11049538D02*
X9255933Y11029388D01*
X9276739Y11009204D01*
X9367316Y10892558D02*
X9377853Y10874660D01*
X9388172Y10856620D01*
X9398360Y10838494D01*
X9418691Y10802212D01*
X9429009Y10784169D01*
X9439545Y10766265D01*
X9457801Y10726400D02*
X9463256Y10712397D01*
X9659808Y10661982D02*
X9720269Y10677428D01*
X9786174Y10693842D01*
X10483953Y9805363D02*
X10491372Y9749942D01*
X10224037Y8971612D02*
X10226499Y8972860D01*
X9865648Y9119480D02*
X9911055Y9089541D01*
X7119594Y11042228D02*
X7130465Y11027647D01*
X7142721Y11011265D01*
X7176438Y10966464D01*
X7196121Y10940502D01*
X7216504Y10913806D01*
X7236699Y10887604D01*
X7255817Y10863126D01*
X7272971Y10841600D01*
X7317972Y10787399D02*
X7340888Y10760644D01*
X7363976Y10734033D01*
X7387159Y10707501D01*
X7410359Y10680982D01*
X7433498Y10654412D01*
X7456497Y10627726D01*
X7479279Y10600857D01*
X7501766Y10573743D01*
X7553603Y10511994D02*
X7579847Y10481311D01*
X7606031Y10450569D01*
X7631942Y10419628D01*
X7833724Y10148259D02*
X7852427Y10127548D01*
X7871329Y10106768D01*
X7890235Y10085738D01*
X7685170Y9858342D02*
X7752378Y9847755D01*
X7618456Y9868121D02*
X7685170Y9858342D01*
X7494455Y9886076D02*
X7618456Y9868121D01*
X6634938Y9834338D02*
X6657922Y9846617D01*
X6619100Y9825722D02*
X6634938Y9834338D01*
X6582643Y9805501D02*
X6619100Y9825722D01*
X6563587Y9794683D02*
X6582643Y9805501D01*
X6545021Y9783916D02*
X6563587Y9794683D01*
X6527728Y9773595D02*
X6545021Y9783916D01*
X6186117Y9566547D02*
X6209175Y9541244D01*
X6160935Y9595005D02*
X6186117Y9566547D01*
X5947815Y10027335D02*
X5961647Y9995145D01*
X5933459Y10060176D02*
X5947815Y10027335D01*
X5918736Y10093489D02*
X5933459Y10060176D01*
X5903801Y10127098D02*
X5918736Y10093489D01*
X5888811Y10160825D02*
X5903801Y10127098D01*
X5873921Y10194492D02*
X5888811Y10160825D01*
X5859287Y10227922D02*
X5873921Y10194492D01*
X5845065Y10260938D02*
X5859287Y10227922D01*
X5885303Y10449563D02*
X5898737Y10473535D01*
X7045835Y11081383D02*
X7070108Y11067391D01*
X10478099Y10768497D02*
X10497312Y10724971D01*
X10459671Y10812024D02*
X10478099Y10768497D01*
X10441835Y10855551D02*
X10459671Y10812024D01*
X10424397Y10899078D02*
X10441835Y10855551D01*
X10407161Y10942604D02*
X10424397Y10899078D01*
X10389933Y10986131D02*
X10407161Y10942604D01*
X10372519Y11029658D02*
X10389933Y10986131D01*
X10354724Y11073185D02*
X10372519Y11029658D01*
X10323768Y11307170D02*
X10326576Y11333915D01*
X10329612Y11360573D01*
X10397785Y11355668D02*
X10415258Y11350369D01*
X10573995Y11396592D02*
X10586568Y11413076D01*
X11010260Y11551250D02*
X11023411Y11556619D01*
X11044381Y11562859D02*
X11053963Y11564829D01*
X11067149Y11567424D01*
X11084874Y11570877D01*
X11108072Y11575417D01*
X11194673Y11113254D02*
X11197479Y11079714D01*
X11200352Y11046173D01*
X10795839Y10022765D02*
X10814150Y10049427D01*
X10777451Y9996562D02*
X10795839Y10022765D01*
X10538876Y10637917D02*
X10567249Y10573781D01*
X11024797Y9491585D02*
X11032878Y9476092D01*
X11017462Y9505592D02*
X11024797Y9491585D01*
X11033296Y9860148D02*
X11048920Y9893264D01*
X11064546Y9926167D01*
X11310639Y10547186D02*
X11325427Y10561284D01*
X11472248Y10744086D02*
X11481376Y10748475D01*
X11678894Y10846738D02*
X11694010Y10863921D01*
X11870615Y10998622D02*
X11889322Y11009011D01*
X11082961Y9390707D02*
X11087346Y9397850D01*
X12997160Y12247962D02*
X13006091Y12210424D01*
X12530764Y11248056D02*
X12579685Y11277078D01*
X12481184Y11218210D02*
X12530764Y11248056D01*
X12430792Y11187536D02*
X12481184Y11218210D01*
X12379438Y11156029D02*
X12430792Y11187536D01*
X12326969Y11123683D02*
X12379438Y11156029D01*
X12273235Y11090494D02*
X12326969Y11123683D01*
X12218084Y11056457D02*
X12273235Y11090494D01*
X12161365Y11021566D02*
X12218084Y11056457D01*
X12056015Y11222270D02*
X12061126Y11190335D01*
X12051068Y11253293D02*
X12056015Y11222270D01*
X12039992Y11795841D02*
X12057330Y11814607D01*
X12077014Y11835494D01*
X12509967Y12144905D02*
X12547283Y12159682D01*
X12584755Y12174047D01*
X12622254Y12188196D01*
X12659649Y12202325D01*
X12699959Y12217205D02*
X12720248Y12224319D01*
X12893330Y12270488D02*
X12909515Y12272767D01*
X12925989Y12274846D01*
X12941995Y12276694D01*
X12956783Y12278278D01*
X12979680Y12280526D01*
X12986282Y12281125D01*
X12988652Y12281332D01*
X5375064Y12869475D02*
X5396487Y12858379D01*
X6211382Y12843408D02*
X6253161Y12839368D01*
X5423518Y13308989D02*
X5438278Y13337263D01*
X6619345Y13066034D02*
X6634922Y13093048D01*
X6604350Y13039351D02*
X6619345Y13066034D01*
X6589608Y13013187D02*
X6604350Y13039351D01*
X7144582Y12864308D02*
X7167385Y12906993D01*
X7190661Y12950975D01*
X7300037Y13010783D02*
X7338187Y13021153D01*
X9152530Y14800082D02*
X9180981Y14837074D01*
X9210825Y14875677D01*
X10086139Y14112003D02*
X10091577Y14146162D01*
X9771287Y14024013D02*
X9810864Y14003806D01*
X12086676Y14666078D02*
X12110758Y14633646D01*
X12301411Y14567526D02*
X12320525Y14577638D01*
X10066599Y14963647D02*
X10101831Y14944177D01*
X10131923Y14927988D01*
X10154895Y14915573D01*
X10381473Y15015770D02*
X10399367Y15038029D01*
X10379540Y15568929D02*
X10396941Y15497768D01*
X10065789Y15906039D02*
X10092520Y15903891D01*
X10037698Y15908017D02*
X10065789Y15906039D01*
X10008457Y15909944D02*
X10037698Y15908017D01*
X9978274Y15911946D02*
X10008457Y15909944D01*
X9947358Y15914145D02*
X9978274Y15911946D01*
X9856278Y15642979D02*
X9864725Y15712193D01*
X9805212Y15225003D02*
X9818382Y15200906D01*
%TF.MD5,bf3c6990c638dca975e047030c02d064*%
M02*
