%TF.GenerationSoftware,Altium Limited,Altium Designer,20.0.14 (345)*%
G04 Layer_Color=8421504*
%FSLAX45Y45*%
%MOMM*%
%TF.FileFunction,Paste,Top*%
%TF.Part,Single*%
G01*
G75*
%TA.AperFunction,SMDPad,CuDef*%
%ADD11R,0.75000X0.65000*%
%ADD12R,1.25000X2.00000*%
%ADD13R,1.15000X0.85000*%
%ADD14R,1.00000X0.70000*%
%ADD15R,0.60000X1.40000*%
%ADD16R,0.60000X1.80000*%
%ADD17R,2.40000X2.40000*%
%ADD18O,0.30000X0.70000*%
%ADD19O,0.70000X0.30000*%
%ADD20R,1.20000X1.10000*%
G36*
X10930500Y5902200D02*
Y5712200D01*
X10865500Y5647200D01*
X10805500D01*
X10740500Y5712200D01*
Y5902200D01*
X10805500Y5967200D01*
X10865500D01*
X10930500Y5902200D01*
D02*
G37*
D11*
X10668000Y4933100D02*
D03*
Y5303100D02*
D03*
D12*
X9400200Y5689600D02*
D03*
X9675200D02*
D03*
X10088200D02*
D03*
X10363200D02*
D03*
D13*
X11137900Y4945400D02*
D03*
Y5265400D02*
D03*
D14*
X10909300Y5086500D02*
D03*
Y4946500D02*
D03*
D15*
X10985500Y5537200D02*
D03*
X10685500D02*
D03*
D16*
X10835500Y5557200D02*
D03*
D17*
X10229100Y5122600D02*
D03*
D18*
X10131600Y5317600D02*
D03*
X10196600D02*
D03*
X10261600D02*
D03*
X10326600D02*
D03*
Y4927600D02*
D03*
X10261600D02*
D03*
X10196600D02*
D03*
X10131600D02*
D03*
D19*
X10424100Y5220100D02*
D03*
Y5155100D02*
D03*
Y5090100D02*
D03*
Y5025100D02*
D03*
X10034100D02*
D03*
Y5090100D02*
D03*
Y5155100D02*
D03*
Y5220100D02*
D03*
D20*
X9956800Y12004900D02*
D03*
Y11794900D02*
D03*
X8737600Y12563700D02*
D03*
Y12353700D02*
D03*
X7329000Y12728800D02*
D03*
Y12518800D02*
D03*
X8586300Y14646500D02*
D03*
Y14436501D02*
D03*
X7988300Y15192599D02*
D03*
Y14982600D02*
D03*
X7075000Y14557600D02*
D03*
Y14347600D02*
D03*
X9347200Y13236800D02*
D03*
Y13026801D02*
D03*
X8205300Y13528900D02*
D03*
Y13318900D02*
D03*
X7620000Y13982700D02*
D03*
Y13772701D02*
D03*
X8928100Y15700600D02*
D03*
Y15490601D02*
D03*
X8077200Y16348300D02*
D03*
Y16138300D02*
D03*
X7099300Y15599001D02*
D03*
Y15389000D02*
D03*
X6769100Y11954100D02*
D03*
Y11744100D02*
D03*
X6045200Y14443300D02*
D03*
Y14233299D02*
D03*
X5740400Y11395300D02*
D03*
Y11185300D02*
D03*
X5854700Y12347800D02*
D03*
Y12137800D02*
D03*
X4902200Y11115900D02*
D03*
Y10905900D02*
D03*
X4838700Y13884500D02*
D03*
Y13674500D02*
D03*
X9220200Y16348300D02*
D03*
Y16138300D02*
D03*
X4076700Y11217500D02*
D03*
Y11007500D02*
D03*
X4965700Y12766900D02*
D03*
Y12556900D02*
D03*
X4368800Y12398600D02*
D03*
Y12188600D02*
D03*
X3835400Y13008200D02*
D03*
Y12798200D02*
D03*
X16306799Y12360500D02*
D03*
Y12150500D02*
D03*
X15417799Y13071700D02*
D03*
Y12861700D02*
D03*
X14528799Y13071700D02*
D03*
Y12861700D02*
D03*
X14732001Y15217999D02*
D03*
Y15008000D02*
D03*
X13182600Y14735400D02*
D03*
Y14525400D02*
D03*
X13246100Y13249500D02*
D03*
Y13039500D02*
D03*
X16383000Y13211400D02*
D03*
Y13001401D02*
D03*
X16167101Y14138499D02*
D03*
Y13928500D02*
D03*
X15544800Y14862399D02*
D03*
Y14652400D02*
D03*
X14541499Y14113100D02*
D03*
Y13903101D02*
D03*
X14084300Y15776801D02*
D03*
Y15566800D02*
D03*
X13195300Y15776801D02*
D03*
Y15566800D02*
D03*
X13931900Y14024200D02*
D03*
Y13814200D02*
D03*
X12496800Y13033600D02*
D03*
Y12823599D02*
D03*
X11620500Y12665300D02*
D03*
Y12455300D02*
D03*
X10782300Y12284300D02*
D03*
Y12074300D02*
D03*
X12166600Y15116400D02*
D03*
Y14906400D02*
D03*
X11277600Y15116400D02*
D03*
Y14906400D02*
D03*
X10655300Y14875101D02*
D03*
Y14665100D02*
D03*
X12192000Y13973399D02*
D03*
Y13763400D02*
D03*
X11252200Y13757500D02*
D03*
Y13547501D02*
D03*
X10477500Y13274899D02*
D03*
Y13064900D02*
D03*
X12204700Y15916499D02*
D03*
Y15706500D02*
D03*
X10871200Y16335600D02*
D03*
Y16125600D02*
D03*
X9969500Y16678500D02*
D03*
Y16468500D02*
D03*
X3200400Y11077800D02*
D03*
Y10867800D02*
D03*
X3568700Y11814400D02*
D03*
Y11604400D02*
D03*
%TF.MD5,20b5f64f2a91e37d419269ff7193486a*%
M02*
