%TF.GenerationSoftware,Altium Limited,Altium Designer,20.0.14 (345)*%
G04 Layer_Color=32768*
%FSLAX45Y45*%
%MOMM*%
%TF.FileFunction,Other,Mechanical_15*%
%TF.Part,Single*%
G01*
G75*
%TA.AperFunction,NonConductor*%
%ADD31C,0.10000*%
%ADD46C,0.05000*%
D31*
X10668000Y5068100D02*
Y5168100D01*
X10618000Y5118100D02*
X10718000D01*
X11087900Y5105400D02*
X11187900D01*
X11137900Y5055400D02*
Y5155400D01*
X10785500Y5719450D02*
X10885500D01*
X10835500Y5669450D02*
Y5769450D01*
X10229100Y5072600D02*
Y5172600D01*
X10179100Y5122600D02*
X10279100D01*
X9906800Y11899900D02*
X10006800D01*
X9956800Y11849900D02*
Y11949900D01*
X10041800Y11727400D02*
Y12072400D01*
X9871800Y11727400D02*
Y12072400D01*
X10041800D01*
X9871800Y11727400D02*
X10041800D01*
X8687600Y12458700D02*
X8787600D01*
X8737600Y12408700D02*
Y12508700D01*
X8822600Y12286200D02*
Y12631200D01*
X8652600Y12286200D02*
Y12631200D01*
X8822600D01*
X8652600Y12286200D02*
X8822600D01*
X7279000Y12623800D02*
X7379000D01*
X7329000Y12573800D02*
Y12673800D01*
X7414000Y12451300D02*
Y12796300D01*
X7244000Y12451300D02*
Y12796300D01*
X7414000D01*
X7244000Y12451300D02*
X7414000D01*
X8536300Y14541499D02*
X8636300D01*
X8586300Y14491499D02*
Y14591499D01*
X8671300Y14369000D02*
Y14714000D01*
X8501300Y14369000D02*
Y14714000D01*
X8671300D01*
X8501300Y14369000D02*
X8671300D01*
X7938300Y15087601D02*
X8038300D01*
X7988300Y15037601D02*
Y15137601D01*
X8073300Y14915100D02*
Y15260100D01*
X7903300Y14915100D02*
Y15260100D01*
X8073300D01*
X7903300Y14915100D02*
X8073300D01*
X7025000Y14452600D02*
X7125000D01*
X7075000Y14402600D02*
Y14502600D01*
X7160000Y14280099D02*
Y14625101D01*
X6990000Y14280099D02*
Y14625101D01*
X7160000D01*
X6990000Y14280099D02*
X7160000D01*
X9297200Y13131799D02*
X9397200D01*
X9347200Y13081799D02*
Y13181799D01*
X9432200Y12959300D02*
Y13304300D01*
X9262200Y12959300D02*
Y13304300D01*
X9432200D01*
X9262200Y12959300D02*
X9432200D01*
X8155300Y13423900D02*
X8255300D01*
X8205300Y13373900D02*
Y13473900D01*
X8290300Y13251401D02*
Y13596400D01*
X8120300Y13251401D02*
Y13596400D01*
X8290300D01*
X8120300Y13251401D02*
X8290300D01*
X7570000Y13877699D02*
X7670000D01*
X7620000Y13827699D02*
Y13927699D01*
X7705000Y13705200D02*
Y14050200D01*
X7535000Y13705200D02*
Y14050200D01*
X7705000D01*
X7535000Y13705200D02*
X7705000D01*
X8878100Y15595599D02*
X8978100D01*
X8928100Y15545599D02*
Y15645599D01*
X9013100Y15423100D02*
Y15768100D01*
X8843100Y15423100D02*
Y15768100D01*
X9013100D01*
X8843100Y15423100D02*
X9013100D01*
X8027200Y16243300D02*
X8127200D01*
X8077200Y16193300D02*
Y16293300D01*
X8162200Y16070799D02*
Y16415800D01*
X7992200Y16070799D02*
Y16415800D01*
X8162200D01*
X7992200Y16070799D02*
X8162200D01*
X7049300Y15494000D02*
X7149300D01*
X7099300Y15444000D02*
Y15544000D01*
X7184300Y15321500D02*
Y15666499D01*
X7014300Y15321500D02*
Y15666499D01*
X7184300D01*
X7014300Y15321500D02*
X7184300D01*
X6719100Y11849100D02*
X6819100D01*
X6769100Y11799100D02*
Y11899100D01*
X6854100Y11676600D02*
Y12021600D01*
X6684100Y11676600D02*
Y12021600D01*
X6854100D01*
X6684100Y11676600D02*
X6854100D01*
X5995200Y14338300D02*
X6095200D01*
X6045200Y14288300D02*
Y14388300D01*
X6130200Y14165800D02*
Y14510800D01*
X5960200Y14165800D02*
Y14510800D01*
X6130200D01*
X5960200Y14165800D02*
X6130200D01*
X5690400Y11290300D02*
X5790400D01*
X5740400Y11240300D02*
Y11340300D01*
X5825400Y11117800D02*
Y11462800D01*
X5655400Y11117800D02*
Y11462800D01*
X5825400D01*
X5655400Y11117800D02*
X5825400D01*
X5804700Y12242800D02*
X5904700D01*
X5854700Y12192800D02*
Y12292800D01*
X5939700Y12070300D02*
Y12415300D01*
X5769700Y12070300D02*
Y12415300D01*
X5939700D01*
X5769700Y12070300D02*
X5939700D01*
X4852200Y11010900D02*
X4952200D01*
X4902200Y10960900D02*
Y11060900D01*
X4987200Y10838400D02*
Y11183400D01*
X4817200Y10838400D02*
Y11183400D01*
X4987200D01*
X4817200Y10838400D02*
X4987200D01*
X4788700Y13779500D02*
X4888700D01*
X4838700Y13729500D02*
Y13829500D01*
X4923700Y13607001D02*
Y13952000D01*
X4753700Y13607001D02*
Y13952000D01*
X4923700D01*
X4753700Y13607001D02*
X4923700D01*
X9170200Y16243300D02*
X9270200D01*
X9220200Y16193300D02*
Y16293300D01*
X9305200Y16070799D02*
Y16415800D01*
X9135200Y16070799D02*
Y16415800D01*
X9305200D01*
X9135200Y16070799D02*
X9305200D01*
X4026700Y11112500D02*
X4126700D01*
X4076700Y11062500D02*
Y11162500D01*
X4161700Y10940000D02*
Y11285000D01*
X3991700Y10940000D02*
Y11285000D01*
X4161700D01*
X3991700Y10940000D02*
X4161700D01*
X4915700Y12661900D02*
X5015700D01*
X4965700Y12611900D02*
Y12711900D01*
X5050700Y12489400D02*
Y12834399D01*
X4880700Y12489400D02*
Y12834399D01*
X5050700D01*
X4880700Y12489400D02*
X5050700D01*
X4318800Y12293600D02*
X4418800D01*
X4368800Y12243600D02*
Y12343600D01*
X4453800Y12121100D02*
Y12466100D01*
X4283800Y12121100D02*
Y12466100D01*
X4453800D01*
X4283800Y12121100D02*
X4453800D01*
X3785400Y12903200D02*
X3885400D01*
X3835400Y12853200D02*
Y12953200D01*
X3920400Y12730700D02*
Y13075700D01*
X3750400Y12730700D02*
Y13075700D01*
X3920400D01*
X3750400Y12730700D02*
X3920400D01*
X16256799Y12255500D02*
X16356799D01*
X16306799Y12205500D02*
Y12305500D01*
X16391800Y12083000D02*
Y12428000D01*
X16221800Y12083000D02*
Y12428000D01*
X16391800D01*
X16221800Y12083000D02*
X16391800D01*
X15367799Y12966701D02*
X15467799D01*
X15417799Y12916701D02*
Y13016701D01*
X15502800Y12794200D02*
Y13139200D01*
X15332800Y12794200D02*
Y13139200D01*
X15502800D01*
X15332800Y12794200D02*
X15502800D01*
X14478799Y12966701D02*
X14578799D01*
X14528799Y12916701D02*
Y13016701D01*
X14613800Y12794200D02*
Y13139200D01*
X14443800Y12794200D02*
Y13139200D01*
X14613800D01*
X14443800Y12794200D02*
X14613800D01*
X14682001Y15113000D02*
X14782001D01*
X14732001Y15063000D02*
Y15163000D01*
X14817000Y14940500D02*
Y15285500D01*
X14647000Y14940500D02*
Y15285500D01*
X14817000D01*
X14647000Y14940500D02*
X14817000D01*
X13132600Y14630400D02*
X13232600D01*
X13182600Y14580400D02*
Y14680400D01*
X13267599Y14457899D02*
Y14802901D01*
X13097600Y14457899D02*
Y14802901D01*
X13267599D01*
X13097600Y14457899D02*
X13267599D01*
X13196100Y13144501D02*
X13296100D01*
X13246100Y13094501D02*
Y13194501D01*
X13331100Y12972000D02*
Y13317000D01*
X13161099Y12972000D02*
Y13317000D01*
X13331100D01*
X13161099Y12972000D02*
X13331100D01*
X16333000Y13106400D02*
X16433000D01*
X16383000Y13056400D02*
Y13156400D01*
X16467999Y12933900D02*
Y13278900D01*
X16298000Y12933900D02*
Y13278900D01*
X16467999D01*
X16298000Y12933900D02*
X16467999D01*
X16117101Y14033501D02*
X16217101D01*
X16167101Y13983501D02*
Y14083501D01*
X16252100Y13861000D02*
Y14206000D01*
X16082100Y13861000D02*
Y14206000D01*
X16252100D01*
X16082100Y13861000D02*
X16252100D01*
X15494800Y14757401D02*
X15594800D01*
X15544800Y14707401D02*
Y14807401D01*
X15629800Y14584900D02*
Y14929900D01*
X15459801Y14584900D02*
Y14929900D01*
X15629800D01*
X15459801Y14584900D02*
X15629800D01*
X14491499Y14008099D02*
X14591499D01*
X14541499Y13958099D02*
Y14058099D01*
X14626500Y13835600D02*
Y14180600D01*
X14456500Y13835600D02*
Y14180600D01*
X14626500D01*
X14456500Y13835600D02*
X14626500D01*
X14034300Y15671800D02*
X14134300D01*
X14084300Y15621800D02*
Y15721800D01*
X14169299Y15499300D02*
Y15844299D01*
X13999300Y15499300D02*
Y15844299D01*
X14169299D01*
X13999300Y15499300D02*
X14169299D01*
X13145300Y15671800D02*
X13245300D01*
X13195300Y15621800D02*
Y15721800D01*
X13280299Y15499300D02*
Y15844299D01*
X13110300Y15499300D02*
Y15844299D01*
X13280299D01*
X13110300Y15499300D02*
X13280299D01*
X13881900Y13919200D02*
X13981900D01*
X13931900Y13869200D02*
Y13969200D01*
X14016901Y13746700D02*
Y14091701D01*
X13846899Y13746700D02*
Y14091701D01*
X14016901D01*
X13846899Y13746700D02*
X14016901D01*
X12446800Y12928600D02*
X12546800D01*
X12496800Y12878600D02*
Y12978600D01*
X12581800Y12756100D02*
Y13101100D01*
X12411800Y12756100D02*
Y13101100D01*
X12581800D01*
X12411800Y12756100D02*
X12581800D01*
X11570500Y12560300D02*
X11670500D01*
X11620500Y12510300D02*
Y12610300D01*
X11705500Y12387800D02*
Y12732800D01*
X11535500Y12387800D02*
Y12732800D01*
X11705500D01*
X11535500Y12387800D02*
X11705500D01*
X10732300Y12179300D02*
X10832300D01*
X10782300Y12129300D02*
Y12229300D01*
X10867300Y12006800D02*
Y12351800D01*
X10697300Y12006800D02*
Y12351800D01*
X10867300D01*
X10697300Y12006800D02*
X10867300D01*
X12116600Y15011400D02*
X12216600D01*
X12166600Y14961400D02*
Y15061400D01*
X12251600Y14838901D02*
Y15183900D01*
X12081600Y14838901D02*
Y15183900D01*
X12251600D01*
X12081600Y14838901D02*
X12251600D01*
X11227600Y15011400D02*
X11327600D01*
X11277600Y14961400D02*
Y15061400D01*
X11362600Y14838901D02*
Y15183900D01*
X11192600Y14838901D02*
Y15183900D01*
X11362600D01*
X11192600Y14838901D02*
X11362600D01*
X10605300Y14770100D02*
X10705300D01*
X10655300Y14720100D02*
Y14820100D01*
X10740300Y14597600D02*
Y14942599D01*
X10570300Y14597600D02*
Y14942599D01*
X10740300D01*
X10570300Y14597600D02*
X10740300D01*
X12142000Y13868401D02*
X12242000D01*
X12192000Y13818401D02*
Y13918401D01*
X12277000Y13695900D02*
Y14040900D01*
X12107000Y13695900D02*
Y14040900D01*
X12277000D01*
X12107000Y13695900D02*
X12277000D01*
X11202200Y13652499D02*
X11302200D01*
X11252200Y13602499D02*
Y13702499D01*
X11337200Y13480000D02*
Y13825000D01*
X11167200Y13480000D02*
Y13825000D01*
X11337200D01*
X11167200Y13480000D02*
X11337200D01*
X10427500Y13169901D02*
X10527500D01*
X10477500Y13119901D02*
Y13219901D01*
X10562500Y12997400D02*
Y13342400D01*
X10392500Y12997400D02*
Y13342400D01*
X10562500D01*
X10392500Y12997400D02*
X10562500D01*
X12154700Y15811501D02*
X12254700D01*
X12204700Y15761501D02*
Y15861501D01*
X12289700Y15639000D02*
Y15984000D01*
X12119700Y15639000D02*
Y15984000D01*
X12289700D01*
X12119700Y15639000D02*
X12289700D01*
X10821200Y16230600D02*
X10921200D01*
X10871200Y16180600D02*
Y16280600D01*
X10956200Y16058099D02*
Y16403101D01*
X10786200Y16058099D02*
Y16403101D01*
X10956200D01*
X10786200Y16058099D02*
X10956200D01*
X9919500Y16573500D02*
X10019500D01*
X9969500Y16523500D02*
Y16623500D01*
X10054500Y16400999D02*
Y16746001D01*
X9884500Y16400999D02*
Y16746001D01*
X10054500D01*
X9884500Y16400999D02*
X10054500D01*
X3150400Y10972800D02*
X3250400D01*
X3200400Y10922800D02*
Y11022800D01*
X3285400Y10800300D02*
Y11145300D01*
X3115400Y10800300D02*
Y11145300D01*
X3285400D01*
X3115400Y10800300D02*
X3285400D01*
X3518700Y11709400D02*
X3618700D01*
X3568700Y11659400D02*
Y11759400D01*
X3653700Y11536900D02*
Y11881900D01*
X3483700Y11536900D02*
Y11881900D01*
X3653700D01*
X3483700Y11536900D02*
X3653700D01*
D46*
X10563000Y4888100D02*
X10773000D01*
X10563000Y5348100D02*
X10773000D01*
X10563000Y4888100D02*
Y5348100D01*
X10773000Y4888100D02*
Y5348100D01*
X11037900Y4887900D02*
Y5322900D01*
X11237900Y4887900D02*
Y5322900D01*
X11037900Y4887900D02*
X11237900D01*
X11037900Y5322900D02*
X11237900D01*
X11090500Y5442200D02*
Y5992200D01*
X10580500Y5442200D02*
Y5992200D01*
X11090500D01*
X10580500Y5442200D02*
X11090500D01*
X9989100Y4882600D02*
X10469100D01*
X9989100Y5362600D02*
X10469100D01*
Y4882600D02*
Y5362600D01*
X9989100Y4882600D02*
Y5362600D01*
%TF.MD5,cfd3be4ba5407166cf8ac4b6ceb6bee6*%
M02*
