%TF.GenerationSoftware,Altium Limited,Altium Designer,20.0.14 (345)*%
G04 Layer_Color=8388736*
%FSLAX45Y45*%
%MOMM*%
%TF.FileFunction,Soldermask,Top*%
%TF.Part,Single*%
G01*
G75*
%TA.AperFunction,ComponentPad*%
%ADD27R,1.70320X1.70320*%
%ADD28C,1.70320*%
%TA.AperFunction,ViaPad*%
%ADD29C,1.47320*%
%ADD30C,0.70320*%
%TA.AperFunction,SMDPad,CuDef*%
%ADD34R,0.95320X0.85320*%
%ADD35R,1.45320X2.20320*%
%ADD36R,1.35320X1.05320*%
%ADD37R,1.20320X0.90320*%
%ADD38R,0.80320X1.60320*%
%ADD39R,0.80320X2.00320*%
%ADD40R,2.60320X2.60320*%
%ADD41O,0.50320X0.90320*%
%ADD42O,0.90320X0.50320*%
%ADD43R,1.40320X1.30320*%
G36*
X10866829Y5977295D02*
X10868135Y5977035D01*
X10869397Y5976607D01*
X10870591Y5976018D01*
X10871698Y5975278D01*
X10872700Y5974400D01*
X10937700Y5909400D01*
X10938578Y5908398D01*
X10939318Y5907291D01*
X10939907Y5906097D01*
X10940335Y5904835D01*
X10940595Y5903529D01*
X10940682Y5902200D01*
Y5712200D01*
X10940595Y5710871D01*
X10940335Y5709565D01*
X10939907Y5708303D01*
X10939318Y5707109D01*
X10938578Y5706002D01*
X10937700Y5705000D01*
X10872700Y5640000D01*
X10871698Y5639122D01*
X10870591Y5638382D01*
X10869397Y5637793D01*
X10868135Y5637365D01*
X10866829Y5637105D01*
X10865500Y5637018D01*
X10805500D01*
X10804171Y5637105D01*
X10802865Y5637365D01*
X10801603Y5637793D01*
X10800409Y5638382D01*
X10799302Y5639122D01*
X10798300Y5640000D01*
X10733300Y5705000D01*
X10732422Y5706002D01*
X10731682Y5707109D01*
X10731093Y5708303D01*
X10730665Y5709565D01*
X10730405Y5710871D01*
X10730318Y5712200D01*
Y5902200D01*
X10730405Y5903529D01*
X10730665Y5904835D01*
X10731093Y5906097D01*
X10731682Y5907291D01*
X10732422Y5908398D01*
X10733300Y5909400D01*
X10798300Y5974400D01*
X10799302Y5975278D01*
X10800409Y5976018D01*
X10801603Y5976607D01*
X10802865Y5977035D01*
X10804171Y5977295D01*
X10805500Y5977382D01*
X10865500D01*
X10866829Y5977295D01*
D02*
G37*
D27*
X9410700Y5346700D02*
D03*
X9664700Y5029200D02*
D03*
D28*
Y5346700D02*
D03*
X9410700Y5029200D02*
D03*
D29*
X9969500Y16678500D02*
D03*
X10871200Y16335600D02*
D03*
X10655300Y14875101D02*
D03*
X11277600Y15116400D02*
D03*
X12204700Y15916499D02*
D03*
X13195300Y15776801D02*
D03*
X14084300D02*
D03*
X12166600Y15116400D02*
D03*
X13182600Y14735400D02*
D03*
X13931900Y14024200D02*
D03*
X14732001Y15217999D02*
D03*
X14541499Y14113100D02*
D03*
X15544800Y14862399D02*
D03*
X16167101Y14138499D02*
D03*
X14528799Y13071700D02*
D03*
X15417799D02*
D03*
X16383000Y13211400D02*
D03*
X16306799Y12360500D02*
D03*
X12192000Y13973399D02*
D03*
X13246100Y13249500D02*
D03*
X12496800Y13033600D02*
D03*
X11252200Y13757500D02*
D03*
X11620500Y12665300D02*
D03*
X10477500Y13274899D02*
D03*
X10782300Y12284300D02*
D03*
X9956800Y12004900D02*
D03*
X9347200Y13236800D02*
D03*
X8586300Y14646500D02*
D03*
X8928100Y15700600D02*
D03*
X8077200Y16348300D02*
D03*
X7988300Y15192599D02*
D03*
X8205300Y13528900D02*
D03*
X7620000Y13982700D02*
D03*
X7075000Y14557600D02*
D03*
X7099300Y15599001D02*
D03*
X8737600Y12563700D02*
D03*
X7329000Y12728800D02*
D03*
X6769100Y11954100D02*
D03*
X5740400Y11395300D02*
D03*
X4902200Y11115900D02*
D03*
X4076700Y11217500D02*
D03*
X3200400Y11077800D02*
D03*
X3568700Y11814400D02*
D03*
X5854700Y12347800D02*
D03*
X4965700Y12766900D02*
D03*
X4368800Y12398600D02*
D03*
X3835400Y13008200D02*
D03*
X9220200Y16348300D02*
D03*
X4838700Y13884500D02*
D03*
X9675200Y5689600D02*
D03*
X6045200Y14443300D02*
D03*
D30*
X10284100Y5067600D02*
D03*
X10174100D02*
D03*
X10284100Y5177600D02*
D03*
X10174100D02*
D03*
D34*
X10668000Y4933100D02*
D03*
Y5303100D02*
D03*
D35*
X9400200Y5689600D02*
D03*
X9675200D02*
D03*
X10088200D02*
D03*
X10363200D02*
D03*
D36*
X11137900Y4945400D02*
D03*
Y5265400D02*
D03*
D37*
X10909300Y5086500D02*
D03*
Y4946500D02*
D03*
D38*
X10985500Y5537200D02*
D03*
X10685500D02*
D03*
D39*
X10835500Y5557200D02*
D03*
D40*
X10229100Y5122600D02*
D03*
D41*
X10131600Y5317600D02*
D03*
X10196600D02*
D03*
X10261600D02*
D03*
X10326600D02*
D03*
Y4927600D02*
D03*
X10261600D02*
D03*
X10196600D02*
D03*
X10131600D02*
D03*
D42*
X10424100Y5220100D02*
D03*
Y5155100D02*
D03*
Y5090100D02*
D03*
Y5025100D02*
D03*
X10034100D02*
D03*
Y5090100D02*
D03*
Y5155100D02*
D03*
Y5220100D02*
D03*
D43*
X9956800Y12004900D02*
D03*
Y11794900D02*
D03*
X8737600Y12563700D02*
D03*
Y12353700D02*
D03*
X7329000Y12728800D02*
D03*
Y12518800D02*
D03*
X8586300Y14646500D02*
D03*
Y14436501D02*
D03*
X7988300Y15192599D02*
D03*
Y14982600D02*
D03*
X7075000Y14557600D02*
D03*
Y14347600D02*
D03*
X9347200Y13236800D02*
D03*
Y13026801D02*
D03*
X8205300Y13528900D02*
D03*
Y13318900D02*
D03*
X7620000Y13982700D02*
D03*
Y13772701D02*
D03*
X8928100Y15700600D02*
D03*
Y15490601D02*
D03*
X8077200Y16348300D02*
D03*
Y16138300D02*
D03*
X7099300Y15599001D02*
D03*
Y15389000D02*
D03*
X6769100Y11954100D02*
D03*
Y11744100D02*
D03*
X6045200Y14443300D02*
D03*
Y14233299D02*
D03*
X5740400Y11395300D02*
D03*
Y11185300D02*
D03*
X5854700Y12347800D02*
D03*
Y12137800D02*
D03*
X4902200Y11115900D02*
D03*
Y10905900D02*
D03*
X4838700Y13884500D02*
D03*
Y13674500D02*
D03*
X9220200Y16348300D02*
D03*
Y16138300D02*
D03*
X4076700Y11217500D02*
D03*
Y11007500D02*
D03*
X4965700Y12766900D02*
D03*
Y12556900D02*
D03*
X4368800Y12398600D02*
D03*
Y12188600D02*
D03*
X3835400Y13008200D02*
D03*
Y12798200D02*
D03*
X16306799Y12360500D02*
D03*
Y12150500D02*
D03*
X15417799Y13071700D02*
D03*
Y12861700D02*
D03*
X14528799Y13071700D02*
D03*
Y12861700D02*
D03*
X14732001Y15217999D02*
D03*
Y15008000D02*
D03*
X13182600Y14735400D02*
D03*
Y14525400D02*
D03*
X13246100Y13249500D02*
D03*
Y13039500D02*
D03*
X16383000Y13211400D02*
D03*
Y13001401D02*
D03*
X16167101Y14138499D02*
D03*
Y13928500D02*
D03*
X15544800Y14862399D02*
D03*
Y14652400D02*
D03*
X14541499Y14113100D02*
D03*
Y13903101D02*
D03*
X14084300Y15776801D02*
D03*
Y15566800D02*
D03*
X13195300Y15776801D02*
D03*
Y15566800D02*
D03*
X13931900Y14024200D02*
D03*
Y13814200D02*
D03*
X12496800Y13033600D02*
D03*
Y12823599D02*
D03*
X11620500Y12665300D02*
D03*
Y12455300D02*
D03*
X10782300Y12284300D02*
D03*
Y12074300D02*
D03*
X12166600Y15116400D02*
D03*
Y14906400D02*
D03*
X11277600Y15116400D02*
D03*
Y14906400D02*
D03*
X10655300Y14875101D02*
D03*
Y14665100D02*
D03*
X12192000Y13973399D02*
D03*
Y13763400D02*
D03*
X11252200Y13757500D02*
D03*
Y13547501D02*
D03*
X10477500Y13274899D02*
D03*
Y13064900D02*
D03*
X12204700Y15916499D02*
D03*
Y15706500D02*
D03*
X10871200Y16335600D02*
D03*
Y16125600D02*
D03*
X9969500Y16678500D02*
D03*
Y16468500D02*
D03*
X3200400Y11077800D02*
D03*
Y10867800D02*
D03*
X3568700Y11814400D02*
D03*
Y11604400D02*
D03*
%TF.MD5,a2cca18d12c40eb53cf45f0c9d335a9a*%
M02*
