%TF.GenerationSoftware,Altium Limited,Altium Designer,20.0.14 (345)*%
G04 Layer_Color=16711935*
%FSLAX45Y45*%
%MOMM*%
%TF.FileFunction,Soldermask,Bot*%
%TF.Part,Single*%
G01*
G75*
%TA.AperFunction,ComponentPad*%
%ADD27R,1.70320X1.70320*%
%ADD28C,1.70320*%
%TA.AperFunction,ViaPad*%
%ADD29C,1.47320*%
%ADD30C,0.70320*%
D27*
X9410700Y5346700D02*
D03*
X9664700Y5029200D02*
D03*
D28*
Y5346700D02*
D03*
X9410700Y5029200D02*
D03*
D29*
X9969500Y16678500D02*
D03*
X10871200Y16335600D02*
D03*
X10655300Y14875101D02*
D03*
X11277600Y15116400D02*
D03*
X12204700Y15916499D02*
D03*
X13195300Y15776801D02*
D03*
X14084300D02*
D03*
X12166600Y15116400D02*
D03*
X13182600Y14735400D02*
D03*
X13931900Y14024200D02*
D03*
X14732001Y15217999D02*
D03*
X14541499Y14113100D02*
D03*
X15544800Y14862399D02*
D03*
X16167101Y14138499D02*
D03*
X14528799Y13071700D02*
D03*
X15417799D02*
D03*
X16383000Y13211400D02*
D03*
X16306799Y12360500D02*
D03*
X12192000Y13973399D02*
D03*
X13246100Y13249500D02*
D03*
X12496800Y13033600D02*
D03*
X11252200Y13757500D02*
D03*
X11620500Y12665300D02*
D03*
X10477500Y13274899D02*
D03*
X10782300Y12284300D02*
D03*
X9956800Y12004900D02*
D03*
X9347200Y13236800D02*
D03*
X8586300Y14646500D02*
D03*
X8928100Y15700600D02*
D03*
X8077200Y16348300D02*
D03*
X7988300Y15192599D02*
D03*
X8205300Y13528900D02*
D03*
X7620000Y13982700D02*
D03*
X7075000Y14557600D02*
D03*
X7099300Y15599001D02*
D03*
X8737600Y12563700D02*
D03*
X7329000Y12728800D02*
D03*
X6769100Y11954100D02*
D03*
X5740400Y11395300D02*
D03*
X4902200Y11115900D02*
D03*
X4076700Y11217500D02*
D03*
X3200400Y11077800D02*
D03*
X3568700Y11814400D02*
D03*
X5854700Y12347800D02*
D03*
X4965700Y12766900D02*
D03*
X4368800Y12398600D02*
D03*
X3835400Y13008200D02*
D03*
X9220200Y16348300D02*
D03*
X4838700Y13884500D02*
D03*
X9675200Y5689600D02*
D03*
X6045200Y14443300D02*
D03*
D30*
X10284100Y5067600D02*
D03*
X10174100D02*
D03*
X10284100Y5177600D02*
D03*
X10174100D02*
D03*
%TF.MD5,ea8a85b6b94187fe56fe9cd969e0a516*%
M02*
