%TF.GenerationSoftware,Altium Limited,Altium Designer,20.0.14 (345)*%
G04 Layer_Color=16711935*
%FSLAX45Y45*%
%MOMM*%
%TF.FileFunction,Other,Mechanical_13*%
%TF.Part,Single*%
G01*
G75*
%TA.AperFunction,NonConductor*%
%ADD31C,0.10000*%
D31*
X10750500Y5684450D02*
G03*
X10750500Y5684450I-50000J0D01*
G01*
X10161600Y5240100D02*
G03*
X10161600Y5240100I-50000J0D01*
G01*
X10578000Y4976100D02*
X10758000D01*
X10578000Y5260100D02*
X10758000D01*
X10578000Y4976100D02*
Y5260100D01*
X10758000Y4976100D02*
Y5260100D01*
X11052900Y4970400D02*
Y5240400D01*
X11222900Y4970400D02*
Y5240400D01*
X11052900Y4970400D02*
X11222900D01*
X11052900Y5240400D02*
X11222900D01*
X11065500Y5589450D02*
Y5849450D01*
X10605500Y5589450D02*
Y5849450D01*
X11065500D01*
X10605500Y5589450D02*
X11065500D01*
X10021600Y4915100D02*
X10436600D01*
X10021600Y5330100D02*
X10436600D01*
Y4915100D02*
Y5330100D01*
X10021600Y4915100D02*
Y5330100D01*
X10024300Y11794900D02*
Y12004900D01*
X9889300Y11794900D02*
Y12004900D01*
X10024300D01*
X9889300Y11794900D02*
X10024300D01*
X8805100Y12353700D02*
Y12563700D01*
X8670100Y12353700D02*
Y12563700D01*
X8805100D01*
X8670100Y12353700D02*
X8805100D01*
X7396500Y12518800D02*
Y12728800D01*
X7261500Y12518800D02*
Y12728800D01*
X7396500D01*
X7261500Y12518800D02*
X7396500D01*
X8653800Y14436501D02*
Y14646500D01*
X8518800Y14436501D02*
Y14646500D01*
X8653800D01*
X8518800Y14436501D02*
X8653800D01*
X8055800Y14982600D02*
Y15192599D01*
X7920800Y14982600D02*
Y15192599D01*
X8055800D01*
X7920800Y14982600D02*
X8055800D01*
X7142500Y14347600D02*
Y14557600D01*
X7007500Y14347600D02*
Y14557600D01*
X7142500D01*
X7007500Y14347600D02*
X7142500D01*
X9414700Y13026801D02*
Y13236800D01*
X9279700Y13026801D02*
Y13236800D01*
X9414700D01*
X9279700Y13026801D02*
X9414700D01*
X8272800Y13318900D02*
Y13528900D01*
X8137800Y13318900D02*
Y13528900D01*
X8272800D01*
X8137800Y13318900D02*
X8272800D01*
X7687500Y13772701D02*
Y13982700D01*
X7552500Y13772701D02*
Y13982700D01*
X7687500D01*
X7552500Y13772701D02*
X7687500D01*
X8995600Y15490601D02*
Y15700600D01*
X8860600Y15490601D02*
Y15700600D01*
X8995600D01*
X8860600Y15490601D02*
X8995600D01*
X8144700Y16138300D02*
Y16348300D01*
X8009700Y16138300D02*
Y16348300D01*
X8144700D01*
X8009700Y16138300D02*
X8144700D01*
X7166800Y15389000D02*
Y15599001D01*
X7031800Y15389000D02*
Y15599001D01*
X7166800D01*
X7031800Y15389000D02*
X7166800D01*
X6836600Y11744100D02*
Y11954100D01*
X6701600Y11744100D02*
Y11954100D01*
X6836600D01*
X6701600Y11744100D02*
X6836600D01*
X6112700Y14233299D02*
Y14443300D01*
X5977700Y14233299D02*
Y14443300D01*
X6112700D01*
X5977700Y14233299D02*
X6112700D01*
X5807900Y11185300D02*
Y11395300D01*
X5672900Y11185300D02*
Y11395300D01*
X5807900D01*
X5672900Y11185300D02*
X5807900D01*
X5922200Y12137800D02*
Y12347800D01*
X5787200Y12137800D02*
Y12347800D01*
X5922200D01*
X5787200Y12137800D02*
X5922200D01*
X4969700Y10905900D02*
Y11115900D01*
X4834700Y10905900D02*
Y11115900D01*
X4969700D01*
X4834700Y10905900D02*
X4969700D01*
X4906200Y13674500D02*
Y13884500D01*
X4771200Y13674500D02*
Y13884500D01*
X4906200D01*
X4771200Y13674500D02*
X4906200D01*
X9287700Y16138300D02*
Y16348300D01*
X9152700Y16138300D02*
Y16348300D01*
X9287700D01*
X9152700Y16138300D02*
X9287700D01*
X4144200Y11007500D02*
Y11217500D01*
X4009200Y11007500D02*
Y11217500D01*
X4144200D01*
X4009200Y11007500D02*
X4144200D01*
X5033200Y12556900D02*
Y12766900D01*
X4898200Y12556900D02*
Y12766900D01*
X5033200D01*
X4898200Y12556900D02*
X5033200D01*
X4436300Y12188600D02*
Y12398600D01*
X4301300Y12188600D02*
Y12398600D01*
X4436300D01*
X4301300Y12188600D02*
X4436300D01*
X3902900Y12798200D02*
Y13008200D01*
X3767900Y12798200D02*
Y13008200D01*
X3902900D01*
X3767900Y12798200D02*
X3902900D01*
X16374300Y12150500D02*
Y12360500D01*
X16239301Y12150500D02*
Y12360500D01*
X16374300D01*
X16239301Y12150500D02*
X16374300D01*
X15485300Y12861700D02*
Y13071700D01*
X15350301Y12861700D02*
Y13071700D01*
X15485300D01*
X15350301Y12861700D02*
X15485300D01*
X14596300D02*
Y13071700D01*
X14461301Y12861700D02*
Y13071700D01*
X14596300D01*
X14461301Y12861700D02*
X14596300D01*
X14799500Y15008000D02*
Y15217999D01*
X14664500Y15008000D02*
Y15217999D01*
X14799500D01*
X14664500Y15008000D02*
X14799500D01*
X13250101Y14525400D02*
Y14735400D01*
X13115100Y14525400D02*
Y14735400D01*
X13250101D01*
X13115100Y14525400D02*
X13250101D01*
X13313600Y13039500D02*
Y13249500D01*
X13178600Y13039500D02*
Y13249500D01*
X13313600D01*
X13178600Y13039500D02*
X13313600D01*
X16450500Y13001401D02*
Y13211400D01*
X16315500Y13001401D02*
Y13211400D01*
X16450500D01*
X16315500Y13001401D02*
X16450500D01*
X16234599Y13928500D02*
Y14138499D01*
X16099600Y13928500D02*
Y14138499D01*
X16234599D01*
X16099600Y13928500D02*
X16234599D01*
X15612300Y14652400D02*
Y14862399D01*
X15477299Y14652400D02*
Y14862399D01*
X15612300D01*
X15477299Y14652400D02*
X15612300D01*
X14609000Y13903101D02*
Y14113100D01*
X14474001Y13903101D02*
Y14113100D01*
X14609000D01*
X14474001Y13903101D02*
X14609000D01*
X14151801Y15566800D02*
Y15776801D01*
X14016800Y15566800D02*
Y15776801D01*
X14151801D01*
X14016800Y15566800D02*
X14151801D01*
X13262801D02*
Y15776801D01*
X13127800Y15566800D02*
Y15776801D01*
X13262801D01*
X13127800Y15566800D02*
X13262801D01*
X13999400Y13814200D02*
Y14024200D01*
X13864400Y13814200D02*
Y14024200D01*
X13999400D01*
X13864400Y13814200D02*
X13999400D01*
X12564300Y12823599D02*
Y13033600D01*
X12429300Y12823599D02*
Y13033600D01*
X12564300D01*
X12429300Y12823599D02*
X12564300D01*
X11688000Y12455300D02*
Y12665300D01*
X11553000Y12455300D02*
Y12665300D01*
X11688000D01*
X11553000Y12455300D02*
X11688000D01*
X10849800Y12074300D02*
Y12284300D01*
X10714800Y12074300D02*
Y12284300D01*
X10849800D01*
X10714800Y12074300D02*
X10849800D01*
X12234100Y14906400D02*
Y15116400D01*
X12099100Y14906400D02*
Y15116400D01*
X12234100D01*
X12099100Y14906400D02*
X12234100D01*
X11345100D02*
Y15116400D01*
X11210100Y14906400D02*
Y15116400D01*
X11345100D01*
X11210100Y14906400D02*
X11345100D01*
X10722800Y14665100D02*
Y14875101D01*
X10587800Y14665100D02*
Y14875101D01*
X10722800D01*
X10587800Y14665100D02*
X10722800D01*
X12259500Y13763400D02*
Y13973399D01*
X12124500Y13763400D02*
Y13973399D01*
X12259500D01*
X12124500Y13763400D02*
X12259500D01*
X11319700Y13547501D02*
Y13757500D01*
X11184700Y13547501D02*
Y13757500D01*
X11319700D01*
X11184700Y13547501D02*
X11319700D01*
X10545000Y13064900D02*
Y13274899D01*
X10410000Y13064900D02*
Y13274899D01*
X10545000D01*
X10410000Y13064900D02*
X10545000D01*
X12272200Y15706500D02*
Y15916499D01*
X12137200Y15706500D02*
Y15916499D01*
X12272200D01*
X12137200Y15706500D02*
X12272200D01*
X10938700Y16125600D02*
Y16335600D01*
X10803700Y16125600D02*
Y16335600D01*
X10938700D01*
X10803700Y16125600D02*
X10938700D01*
X10037000Y16468500D02*
Y16678500D01*
X9902000Y16468500D02*
Y16678500D01*
X10037000D01*
X9902000Y16468500D02*
X10037000D01*
X3267900Y10867800D02*
Y11077800D01*
X3132900Y10867800D02*
Y11077800D01*
X3267900D01*
X3132900Y10867800D02*
X3267900D01*
X3636200Y11604400D02*
Y11814400D01*
X3501200Y11604400D02*
Y11814400D01*
X3636200D01*
X3501200Y11604400D02*
X3636200D01*
%TF.MD5,f6f5a11169c4c4106479ac81fc46fba5*%
M02*
