%TF.GenerationSoftware,Altium Limited,Altium Designer,20.0.14 (345)*%
G04 Layer_Color=65535*
%FSLAX45Y45*%
%MOMM*%
%TF.FileFunction,Legend,Top*%
%TF.Part,Single*%
G01*
G75*
%TA.AperFunction,NonConductor*%
%ADD31C,0.10000*%
%ADD32C,0.25000*%
%ADD33C,0.20000*%
D31*
X10605500Y4910600D02*
G03*
X10605500Y4910600I-5000J0D01*
G01*
X11230400Y5297900D02*
G03*
X11230400Y5297900I-5000J0D01*
G01*
X10833100Y4889500D02*
X10887300D01*
X10833100D02*
Y5143500D01*
X10985500D01*
Y4889500D02*
Y5143500D01*
X10887300Y4889500D02*
X10985500D01*
D32*
X10613000Y5524450D02*
G03*
X10613000Y5524450I-12500J0D01*
G01*
X9954100Y5330100D02*
G03*
X9954100Y5330100I-12500J0D01*
G01*
D33*
X10578000Y4978100D02*
Y5258100D01*
X10758000Y4978100D02*
Y5258100D01*
X10578000Y4978100D02*
X10600500D01*
X10578000Y5258100D02*
X10600500D01*
X10735500Y4978100D02*
X10758000D01*
X10735500Y5258100D02*
X10758000D01*
X9791700Y5537200D02*
Y5643600D01*
X9283700Y5537200D02*
X9791700D01*
X9283700D02*
Y5842000D01*
X9791700D01*
Y5643600D02*
Y5842000D01*
Y5219700D02*
Y5473700D01*
X9283700Y5219700D02*
X9791700D01*
X9283700D02*
Y5473700D01*
X9791700D01*
X9283700Y4902200D02*
Y5156200D01*
X9791700D01*
Y4902200D02*
Y5156200D01*
X9283700Y4902200D02*
X9791700D01*
X10970500Y5849450D02*
X11065500D01*
Y5589450D02*
Y5849450D01*
X10605500D02*
X10700500D01*
X10605500Y5589450D02*
Y5849450D01*
X10006600Y4900100D02*
X10076600D01*
X10006600D02*
Y4970100D01*
X10381600Y4900100D02*
X10451600D01*
Y4970100D01*
Y5275100D02*
Y5345100D01*
X10381600D02*
X10451600D01*
X10006600D02*
X10076600D01*
X10006600Y5275100D02*
Y5345100D01*
X9906800Y11884900D02*
X10006800D01*
Y11914900D01*
X9906800Y11884900D02*
Y11914900D01*
X8687600Y12443700D02*
X8787600D01*
Y12473700D01*
X8687600Y12443700D02*
Y12473700D01*
X7279000Y12608800D02*
X7379000D01*
Y12638800D01*
X7279000Y12608800D02*
Y12638800D01*
X8536300Y14526500D02*
X8636300D01*
Y14556500D01*
X8536300Y14526500D02*
Y14556500D01*
X7938300Y15072600D02*
X8038300D01*
Y15102600D01*
X7938300Y15072600D02*
Y15102600D01*
X7025000Y14437601D02*
X7125000D01*
Y14467599D01*
X7025000Y14437601D02*
Y14467599D01*
X9297200Y13116800D02*
X9397200D01*
Y13146800D01*
X9297200Y13116800D02*
Y13146800D01*
X8155300Y13408900D02*
X8255300D01*
Y13438901D01*
X8155300Y13408900D02*
Y13438901D01*
X7570000Y13862700D02*
X7670000D01*
Y13892700D01*
X7570000Y13862700D02*
Y13892700D01*
X8878100Y15580600D02*
X8978100D01*
Y15610600D01*
X8878100Y15580600D02*
Y15610600D01*
X8027200Y16228300D02*
X8127200D01*
Y16258299D01*
X8027200Y16228300D02*
Y16258299D01*
X7049300Y15478999D02*
X7149300D01*
Y15509000D01*
X7049300Y15478999D02*
Y15509000D01*
X6719100Y11834100D02*
X6819100D01*
Y11864100D01*
X6719100Y11834100D02*
Y11864100D01*
X5995200Y14323300D02*
X6095200D01*
Y14353300D01*
X5995200Y14323300D02*
Y14353300D01*
X5690400Y11275300D02*
X5790400D01*
Y11305300D01*
X5690400Y11275300D02*
Y11305300D01*
X5804700Y12227800D02*
X5904700D01*
Y12257800D01*
X5804700Y12227800D02*
Y12257800D01*
X4852200Y10995900D02*
X4952200D01*
Y11025900D01*
X4852200Y10995900D02*
Y11025900D01*
X4788700Y13764500D02*
X4888700D01*
Y13794501D01*
X4788700Y13764500D02*
Y13794501D01*
X9170200Y16228300D02*
X9270200D01*
Y16258299D01*
X9170200Y16228300D02*
Y16258299D01*
X4026700Y11097500D02*
X4126700D01*
Y11127500D01*
X4026700Y11097500D02*
Y11127500D01*
X4915700Y12646900D02*
X5015700D01*
Y12676900D01*
X4915700Y12646900D02*
Y12676900D01*
X4318800Y12278600D02*
X4418800D01*
Y12308600D01*
X4318800Y12278600D02*
Y12308600D01*
X3785400Y12888200D02*
X3885400D01*
Y12918201D01*
X3785400Y12888200D02*
Y12918201D01*
X16256799Y12240500D02*
X16356799D01*
Y12270500D01*
X16256799Y12240500D02*
Y12270500D01*
X15367799Y12951700D02*
X15467799D01*
Y12981700D01*
X15367799Y12951700D02*
Y12981700D01*
X14478799Y12951700D02*
X14578799D01*
Y12981700D01*
X14478799Y12951700D02*
Y12981700D01*
X14682001Y15098000D02*
X14782001D01*
Y15128000D01*
X14682001Y15098000D02*
Y15128000D01*
X13132600Y14615401D02*
X13232600D01*
Y14645399D01*
X13132600Y14615401D02*
Y14645399D01*
X13196100Y13129500D02*
X13296100D01*
Y13159500D01*
X13196100Y13129500D02*
Y13159500D01*
X16333000Y13091400D02*
X16433000D01*
Y13121400D01*
X16333000Y13091400D02*
Y13121400D01*
X16117101Y14018500D02*
X16217101D01*
Y14048500D01*
X16117101Y14018500D02*
Y14048500D01*
X15494800Y14742400D02*
X15594800D01*
Y14772400D01*
X15494800Y14742400D02*
Y14772400D01*
X14491499Y13993100D02*
X14591499D01*
Y14023100D01*
X14491499Y13993100D02*
Y14023100D01*
X14034300Y15656799D02*
X14134300D01*
Y15686800D01*
X14034300Y15656799D02*
Y15686800D01*
X13145300Y15656799D02*
X13245300D01*
Y15686800D01*
X13145300Y15656799D02*
Y15686800D01*
X13881900Y13904201D02*
X13981900D01*
Y13934200D01*
X13881900Y13904201D02*
Y13934200D01*
X12446800Y12913600D02*
X12546800D01*
Y12943600D01*
X12446800Y12913600D02*
Y12943600D01*
X11570500Y12545300D02*
X11670500D01*
Y12575300D01*
X11570500Y12545300D02*
Y12575300D01*
X10732300Y12164300D02*
X10832300D01*
Y12194300D01*
X10732300Y12164300D02*
Y12194300D01*
X12116600Y14996400D02*
X12216600D01*
Y15026401D01*
X12116600Y14996400D02*
Y15026401D01*
X11227600Y14996400D02*
X11327600D01*
Y15026401D01*
X11227600Y14996400D02*
Y15026401D01*
X10605300Y14755099D02*
X10705300D01*
Y14785100D01*
X10605300Y14755099D02*
Y14785100D01*
X12142000Y13853400D02*
X12242000D01*
Y13883400D01*
X12142000Y13853400D02*
Y13883400D01*
X11202200Y13637500D02*
X11302200D01*
Y13667500D01*
X11202200Y13637500D02*
Y13667500D01*
X10427500Y13154900D02*
X10527500D01*
Y13184900D01*
X10427500Y13154900D02*
Y13184900D01*
X12154700Y15796500D02*
X12254700D01*
Y15826500D01*
X12154700Y15796500D02*
Y15826500D01*
X10821200Y16215601D02*
X10921200D01*
Y16245599D01*
X10821200Y16215601D02*
Y16245599D01*
X9919500Y16558501D02*
X10019500D01*
Y16588499D01*
X9919500Y16558501D02*
Y16588499D01*
X3150400Y10957800D02*
X3250400D01*
Y10987800D01*
X3150400Y10957800D02*
Y10987800D01*
X3518700Y11694400D02*
X3618700D01*
Y11724400D01*
X3518700Y11694400D02*
Y11724400D01*
X9971700Y5537200D02*
Y5735600D01*
Y5537200D02*
X10479700D01*
Y5842000D01*
X9971700D02*
X10479700D01*
X9971700Y5735600D02*
Y5842000D01*
X10605520Y4812688D02*
Y4737712D01*
X10643008D01*
X10655504Y4750208D01*
Y4800192D01*
X10643008Y4812688D01*
X10605520D01*
X10730480Y4737712D02*
X10680496D01*
X10730480Y4787696D01*
Y4800192D01*
X10717984Y4812688D01*
X10692992D01*
X10680496Y4800192D01*
X9018020Y4991712D02*
Y5066688D01*
X9055508D01*
X9068004Y5054192D01*
Y5029200D01*
X9055508Y5016704D01*
X9018020D01*
X9142980Y4991712D02*
X9092996D01*
X9142980Y5041696D01*
Y5054192D01*
X9130484Y5066688D01*
X9105492D01*
X9092996Y5054192D01*
X9017816Y5334612D02*
Y5409588D01*
X9055304D01*
X9067800Y5397092D01*
Y5372100D01*
X9055304Y5359604D01*
X9017816D01*
X9092792Y5334612D02*
X9117784D01*
X9105288D01*
Y5409588D01*
X9092792Y5397092D01*
X10909300Y4803362D02*
X10896804Y4815858D01*
X10871812D01*
X10859316Y4803362D01*
Y4753378D01*
X10871812Y4740882D01*
X10896804D01*
X10909300Y4753378D01*
X10934292Y4740882D02*
X10959284D01*
X10946788D01*
Y4815858D01*
X10934292Y4803362D01*
X11087916Y4815858D02*
Y4740882D01*
X11125404D01*
X11137900Y4753378D01*
Y4803362D01*
X11125404Y4815858D01*
X11087916D01*
X11162892Y4740882D02*
X11187884D01*
X11175388D01*
Y4815858D01*
X11162892Y4803362D01*
X10644324Y6078016D02*
Y6128000D01*
X10631828Y6140496D01*
X10606836D01*
X10594340Y6128000D01*
Y6078016D01*
X10606836Y6065520D01*
X10631828D01*
X10619332Y6090512D02*
X10644324Y6065520D01*
X10631828D02*
X10644324Y6078016D01*
X10669316Y6065520D02*
X10694308D01*
X10681812D01*
Y6140496D01*
X10669316Y6128000D01*
X9017816Y5664812D02*
Y5739788D01*
X9055304D01*
X9067800Y5727292D01*
Y5702300D01*
X9055304Y5689804D01*
X9017816D01*
X9042808D02*
X9067800Y5664812D01*
X9092792D02*
X9117784D01*
X9105288D01*
Y5739788D01*
X9092792Y5727292D01*
X10122716Y4812688D02*
Y4750208D01*
X10135212Y4737712D01*
X10160204D01*
X10172700Y4750208D01*
Y4812688D01*
X10197692Y4737712D02*
X10222684D01*
X10210188D01*
Y4812688D01*
X10197692Y4800192D01*
X9982200Y5923280D02*
Y5998256D01*
X10019688D01*
X10032184Y5985760D01*
Y5960768D01*
X10019688Y5948272D01*
X9982200D01*
X10007192D02*
X10032184Y5923280D01*
X10094664D02*
Y5998256D01*
X10057176Y5960768D01*
X10107160D01*
%TF.MD5,4ee432163139fe284fbd7c6b380aa128*%
M02*
