%TF.GenerationSoftware,Altium Limited,Altium Designer,20.0.14 (345)*%
G04 Layer_Color=2752767*
%FSLAX45Y45*%
%MOMM*%
%TF.FileFunction,Drawing*%
%TF.Part,Single*%
G01*
G75*
%TA.AperFunction,NonConductor*%
%ADD52C,0.12700*%
%ADD53C,0.16933*%
D52*
X9359900Y5295900D02*
Y5397500D01*
X9461500D01*
Y5295900D01*
X9359900D01*
X9613900D02*
Y5397500D01*
X9715500D01*
Y5295900D01*
X9613900D01*
Y4978400D02*
Y5080000D01*
X9715500D01*
Y4978400D01*
X9613900D01*
X9359900D02*
Y5080000D01*
X9461500D01*
Y4978400D01*
X9359900D01*
X10284100Y5016800D02*
X10233300Y5118400D01*
X10334900D01*
X10284100Y5016800D01*
X10174100D02*
X10123300Y5118400D01*
X10224900D01*
X10174100Y5016800D01*
X10284100Y5126800D02*
X10233300Y5228400D01*
X10334900D01*
X10284100Y5126800D01*
X10174100D02*
X10123300Y5228400D01*
X10224900D01*
X10174100Y5126800D01*
D53*
X10020300Y16678500D02*
G03*
X10020300Y16678500I-50800J0D01*
G01*
X10922000Y16335600D02*
G03*
X10922000Y16335600I-50800J0D01*
G01*
X10706100Y14875101D02*
G03*
X10706100Y14875101I-50800J0D01*
G01*
X11328400Y15116400D02*
G03*
X11328400Y15116400I-50800J0D01*
G01*
X12255500Y15916499D02*
G03*
X12255500Y15916499I-50800J0D01*
G01*
X13246100Y15776801D02*
G03*
X13246100Y15776801I-50800J0D01*
G01*
X14135100D02*
G03*
X14135100Y15776801I-50800J0D01*
G01*
X12217400Y15116400D02*
G03*
X12217400Y15116400I-50800J0D01*
G01*
X13233400Y14735400D02*
G03*
X13233400Y14735400I-50800J0D01*
G01*
X13982700Y14024200D02*
G03*
X13982700Y14024200I-50800J0D01*
G01*
X14782800Y15217999D02*
G03*
X14782800Y15217999I-50800J0D01*
G01*
X14592300Y14113100D02*
G03*
X14592300Y14113100I-50800J0D01*
G01*
X15595599Y14862399D02*
G03*
X15595599Y14862399I-50800J0D01*
G01*
X16217900Y14138499D02*
G03*
X16217900Y14138499I-50800J0D01*
G01*
X14579601Y13071700D02*
G03*
X14579601Y13071700I-50800J0D01*
G01*
X15468600D02*
G03*
X15468600Y13071700I-50800J0D01*
G01*
X16433800Y13211400D02*
G03*
X16433800Y13211400I-50800J0D01*
G01*
X16357600Y12360500D02*
G03*
X16357600Y12360500I-50800J0D01*
G01*
X12242800Y13973399D02*
G03*
X12242800Y13973399I-50800J0D01*
G01*
X13296899Y13249500D02*
G03*
X13296899Y13249500I-50800J0D01*
G01*
X12547600Y13033600D02*
G03*
X12547600Y13033600I-50800J0D01*
G01*
X11303000Y13757500D02*
G03*
X11303000Y13757500I-50800J0D01*
G01*
X11671300Y12665300D02*
G03*
X11671300Y12665300I-50800J0D01*
G01*
X10528300Y13274899D02*
G03*
X10528300Y13274899I-50800J0D01*
G01*
X10833100Y12284300D02*
G03*
X10833100Y12284300I-50800J0D01*
G01*
X10007600Y12004900D02*
G03*
X10007600Y12004900I-50800J0D01*
G01*
X9398000Y13236800D02*
G03*
X9398000Y13236800I-50800J0D01*
G01*
X8637100Y14646500D02*
G03*
X8637100Y14646500I-50800J0D01*
G01*
X8978900Y15700600D02*
G03*
X8978900Y15700600I-50800J0D01*
G01*
X8128000Y16348300D02*
G03*
X8128000Y16348300I-50800J0D01*
G01*
X8039100Y15192599D02*
G03*
X8039100Y15192599I-50800J0D01*
G01*
X8256100Y13528900D02*
G03*
X8256100Y13528900I-50800J0D01*
G01*
X7670800Y13982700D02*
G03*
X7670800Y13982700I-50800J0D01*
G01*
X7125800Y14557600D02*
G03*
X7125800Y14557600I-50800J0D01*
G01*
X7150100Y15599001D02*
G03*
X7150100Y15599001I-50800J0D01*
G01*
X8788400Y12563700D02*
G03*
X8788400Y12563700I-50800J0D01*
G01*
X7379800Y12728800D02*
G03*
X7379800Y12728800I-50800J0D01*
G01*
X6819900Y11954100D02*
G03*
X6819900Y11954100I-50800J0D01*
G01*
X5791200Y11395300D02*
G03*
X5791200Y11395300I-50800J0D01*
G01*
X4953000Y11115900D02*
G03*
X4953000Y11115900I-50800J0D01*
G01*
X4127500Y11217500D02*
G03*
X4127500Y11217500I-50800J0D01*
G01*
X3251200Y11077800D02*
G03*
X3251200Y11077800I-50800J0D01*
G01*
X3619500Y11814400D02*
G03*
X3619500Y11814400I-50800J0D01*
G01*
X5905500Y12347800D02*
G03*
X5905500Y12347800I-50800J0D01*
G01*
X5016500Y12766900D02*
G03*
X5016500Y12766900I-50800J0D01*
G01*
X4419600Y12398600D02*
G03*
X4419600Y12398600I-50800J0D01*
G01*
X3886200Y13008200D02*
G03*
X3886200Y13008200I-50800J0D01*
G01*
X9271000Y16348300D02*
G03*
X9271000Y16348300I-50800J0D01*
G01*
X4889500Y13884500D02*
G03*
X4889500Y13884500I-50800J0D01*
G01*
X9726000Y5689600D02*
G03*
X9726000Y5689600I-50800J0D01*
G01*
X6096000Y14443300D02*
G03*
X6096000Y14443300I-50800J0D01*
G01*
%TF.MD5,63f8ce2f4ebe8a925bbc2c5bdcdb0a45*%
M02*
