%TF.GenerationSoftware,Altium Limited,Altium Designer,20.0.14 (345)*%
G04 Layer_Color=128*
%FSLAX45Y45*%
%MOMM*%
%TF.FileFunction,Drillmap*%
%TF.Part,Single*%
G01*
G75*
%TA.AperFunction,NonConductor*%
%ADD52C,0.12700*%
D52*
X9365700Y5346700D02*
X9455700D01*
X9410700Y5301700D02*
Y5391700D01*
X9619700Y5346700D02*
X9709700D01*
X9664700Y5301700D02*
Y5391700D01*
X9619700Y5029200D02*
X9709700D01*
X9664700Y4984200D02*
Y5074200D01*
X9365700Y5029200D02*
X9455700D01*
X9410700Y4984200D02*
Y5074200D01*
X9933940Y16678500D02*
X10005060D01*
X9969500Y16642940D02*
Y16714059D01*
X10835640Y16335600D02*
X10906760D01*
X10871200Y16300040D02*
Y16371159D01*
X10619740Y14875101D02*
X10690860D01*
X10655300Y14839540D02*
Y14910660D01*
X11242040Y15116400D02*
X11313160D01*
X11277600Y15080840D02*
Y15151961D01*
X12169140Y15916499D02*
X12240260D01*
X12204700Y15880940D02*
Y15952060D01*
X13159740Y15776801D02*
X13230859D01*
X13195300Y15741240D02*
Y15812360D01*
X14048740Y15776801D02*
X14119859D01*
X14084300Y15741240D02*
Y15812360D01*
X12131040Y15116400D02*
X12202160D01*
X12166600Y15080840D02*
Y15151961D01*
X13147040Y14735400D02*
X13218159D01*
X13182600Y14699840D02*
Y14770959D01*
X13896339Y14024200D02*
X13967461D01*
X13931900Y13988640D02*
Y14059760D01*
X14696440Y15217999D02*
X14767560D01*
X14732001Y15182440D02*
Y15253560D01*
X14505940Y14113100D02*
X14577060D01*
X14541499Y14077541D02*
Y14148660D01*
X15509241Y14862399D02*
X15580360D01*
X15544800Y14826840D02*
Y14897960D01*
X16131540Y14138499D02*
X16202660D01*
X16167101Y14102940D02*
Y14174060D01*
X14493240Y13071700D02*
X14564360D01*
X14528799Y13036140D02*
Y13107260D01*
X15382240Y13071700D02*
X15453360D01*
X15417799Y13036140D02*
Y13107260D01*
X16347440Y13211400D02*
X16418559D01*
X16383000Y13175841D02*
Y13246960D01*
X16271240Y12360500D02*
X16342360D01*
X16306799Y12324940D02*
Y12396060D01*
X12156440Y13973399D02*
X12227560D01*
X12192000Y13937840D02*
Y14008960D01*
X13210539Y13249500D02*
X13281660D01*
X13246100Y13213940D02*
Y13285060D01*
X12461240Y13033600D02*
X12532360D01*
X12496800Y12998039D02*
Y13069160D01*
X11216640Y13757500D02*
X11287760D01*
X11252200Y13721941D02*
Y13793060D01*
X11584940Y12665300D02*
X11656060D01*
X11620500Y12629740D02*
Y12700860D01*
X10441940Y13274899D02*
X10513060D01*
X10477500Y13239340D02*
Y13310460D01*
X10746740Y12284300D02*
X10817860D01*
X10782300Y12248740D02*
Y12319860D01*
X9921240Y12004900D02*
X9992360D01*
X9956800Y11969340D02*
Y12040460D01*
X9311640Y13236800D02*
X9382760D01*
X9347200Y13201241D02*
Y13272360D01*
X8550740Y14646500D02*
X8621860D01*
X8586300Y14610941D02*
Y14682060D01*
X8892540Y15700600D02*
X8963660D01*
X8928100Y15665041D02*
Y15736160D01*
X8041640Y16348300D02*
X8112760D01*
X8077200Y16312740D02*
Y16383859D01*
X7952740Y15192599D02*
X8023860D01*
X7988300Y15157040D02*
Y15228160D01*
X8169740Y13528900D02*
X8240860D01*
X8205300Y13493340D02*
Y13564461D01*
X7584440Y13982700D02*
X7655560D01*
X7620000Y13947141D02*
Y14018260D01*
X7039440Y14557600D02*
X7110560D01*
X7075000Y14522040D02*
Y14593159D01*
X7063740Y15599001D02*
X7134860D01*
X7099300Y15563440D02*
Y15634560D01*
X8702040Y12563700D02*
X8773160D01*
X8737600Y12528140D02*
Y12599260D01*
X7293440Y12728800D02*
X7364560D01*
X7329000Y12693240D02*
Y12764360D01*
X6733540Y11954100D02*
X6804660D01*
X6769100Y11918540D02*
Y11989660D01*
X5704840Y11395300D02*
X5775960D01*
X5740400Y11359740D02*
Y11430860D01*
X4866640Y11115900D02*
X4937760D01*
X4902200Y11080340D02*
Y11151460D01*
X4041140Y11217500D02*
X4112260D01*
X4076700Y11181940D02*
Y11253060D01*
X3164840Y11077800D02*
X3235960D01*
X3200400Y11042240D02*
Y11113360D01*
X3533140Y11814400D02*
X3604260D01*
X3568700Y11778840D02*
Y11849960D01*
X5819140Y12347800D02*
X5890260D01*
X5854700Y12312240D02*
Y12383360D01*
X4930140Y12766900D02*
X5001260D01*
X4965700Y12731340D02*
Y12802460D01*
X4333240Y12398600D02*
X4404360D01*
X4368800Y12363040D02*
Y12434160D01*
X3799840Y13008200D02*
X3870960D01*
X3835400Y12972639D02*
Y13043761D01*
X9184640Y16348300D02*
X9255760D01*
X9220200Y16312740D02*
Y16383859D01*
X4803140Y13884500D02*
X4874260D01*
X4838700Y13848940D02*
Y13920061D01*
X9639640Y5689600D02*
X9710760D01*
X9675200Y5654040D02*
Y5725160D01*
X6009640Y14443300D02*
X6080760D01*
X6045200Y14407739D02*
Y14478860D01*
X10274100Y5067600D02*
X10294100D01*
X10284100Y5057600D02*
Y5077600D01*
X10164100Y5067600D02*
X10184100D01*
X10174100Y5057600D02*
Y5077600D01*
X10274100Y5177600D02*
X10294100D01*
X10284100Y5167600D02*
Y5187600D01*
X10164100Y5177600D02*
X10184100D01*
X10174100Y5167600D02*
Y5187600D01*
%TF.MD5,b9f810558decff51283fcc8c5b31263e*%
M02*
