%TF.GenerationSoftware,Altium Limited,Altium Designer,20.0.14 (345)*%
G04 Layer_Color=8421504*
%FSLAX45Y45*%
%MOMM*%
%TF.FileFunction,Paste,Top*%
%TF.Part,Single*%
G01*
G75*
%TA.AperFunction,SMDPad,CuDef*%
%ADD12O,0.70000X0.30000*%
%ADD13O,0.30000X0.70000*%
%ADD14R,2.40000X2.40000*%
%ADD15R,2.00000X1.25000*%
%ADD16R,1.20000X1.10000*%
%ADD17R,1.00000X0.70000*%
%ADD18R,2.85000X1.35000*%
%ADD19R,1.25000X2.00000*%
%ADD20R,0.60000X1.40000*%
%ADD21R,0.60000X1.80000*%
%ADD22R,1.15000X0.85000*%
G36*
X1126100Y1952500D02*
Y1762500D01*
X1061100Y1697500D01*
X1001100D01*
X936100Y1762500D01*
Y1952500D01*
X1001100Y2017500D01*
X1061100D01*
X1126100Y1952500D01*
D02*
G37*
D12*
X229700Y1016400D02*
D03*
Y951400D02*
D03*
Y886400D02*
D03*
Y821400D02*
D03*
X619700D02*
D03*
Y886400D02*
D03*
Y951400D02*
D03*
Y1016400D02*
D03*
D13*
X327200Y723900D02*
D03*
X392200D02*
D03*
X457200D02*
D03*
X522200D02*
D03*
Y1113900D02*
D03*
X457200D02*
D03*
X392200D02*
D03*
X327200D02*
D03*
D14*
X424700Y918900D02*
D03*
D15*
X3086100Y5001600D02*
D03*
Y4726600D02*
D03*
X2044700Y4726600D02*
D03*
Y5001600D02*
D03*
X952500Y4726600D02*
D03*
Y5001600D02*
D03*
D16*
X1500000Y5852400D02*
D03*
Y5642400D02*
D03*
X2500000Y5852400D02*
D03*
Y5642400D02*
D03*
D17*
X863600Y742800D02*
D03*
Y882800D02*
D03*
D18*
X3105900Y1380300D02*
D03*
Y1130300D02*
D03*
Y880300D02*
D03*
X3675900D02*
D03*
Y1130300D02*
D03*
Y1380300D02*
D03*
D19*
X307000Y1739900D02*
D03*
X582000D02*
D03*
D20*
X881100Y1587500D02*
D03*
X1181100D02*
D03*
D21*
X1031100Y1607500D02*
D03*
D22*
X1168400Y1061700D02*
D03*
Y741700D02*
D03*
%TF.MD5,2136a7bd29857f36a6833a15f2869159*%
M02*
