%TF.GenerationSoftware,Altium Limited,Altium Designer,20.0.14 (345)*%
G04 Layer_Color=8388736*
%FSLAX45Y45*%
%MOMM*%
%TF.FileFunction,Soldermask,Top*%
%TF.Part,Single*%
G01*
G75*
%TA.AperFunction,ComponentPad*%
%ADD26C,1.72720*%
%TA.AperFunction,ViaPad*%
%ADD27C,0.70320*%
%TA.AperFunction,SMDPad,CuDef*%
%ADD31O,0.90320X0.50320*%
%ADD32O,0.50320X0.90320*%
%ADD33R,2.60320X2.60320*%
%ADD34R,2.20320X1.45320*%
%ADD35R,1.40320X1.30320*%
%ADD36R,1.20320X0.90320*%
%ADD37R,3.05320X1.55320*%
%ADD38R,1.45320X2.20320*%
%ADD39R,0.80320X1.60320*%
%ADD40R,0.80320X2.00320*%
%ADD41R,1.35320X1.05320*%
G36*
X1062429Y2027595D02*
X1063735Y2027335D01*
X1064997Y2026907D01*
X1066191Y2026318D01*
X1067298Y2025578D01*
X1068300Y2024700D01*
X1133300Y1959700D01*
X1134178Y1958698D01*
X1134918Y1957591D01*
X1135507Y1956397D01*
X1135935Y1955135D01*
X1136195Y1953829D01*
X1136282Y1952500D01*
Y1762500D01*
X1136195Y1761171D01*
X1135935Y1759865D01*
X1135507Y1758603D01*
X1134918Y1757409D01*
X1134178Y1756302D01*
X1133300Y1755300D01*
X1068300Y1690300D01*
X1067298Y1689422D01*
X1066191Y1688682D01*
X1064997Y1688093D01*
X1063735Y1687665D01*
X1062429Y1687405D01*
X1061100Y1687318D01*
X1001100D01*
X999771Y1687405D01*
X998465Y1687665D01*
X997203Y1688093D01*
X996009Y1688682D01*
X994902Y1689422D01*
X993900Y1690300D01*
X928900Y1755300D01*
X928022Y1756302D01*
X927282Y1757409D01*
X926693Y1758603D01*
X926265Y1759865D01*
X926005Y1761171D01*
X925918Y1762500D01*
Y1952500D01*
X926005Y1953829D01*
X926265Y1955135D01*
X926693Y1956397D01*
X927282Y1957591D01*
X928022Y1958698D01*
X928900Y1959700D01*
X993900Y2024700D01*
X994902Y2025578D01*
X996009Y2026318D01*
X997203Y2026907D01*
X998465Y2027335D01*
X999771Y2027595D01*
X1001100Y2027682D01*
X1061100D01*
X1062429Y2027595D01*
D02*
G37*
D26*
X1473900Y317500D02*
D03*
X2513900D02*
D03*
D27*
X369700Y973900D02*
D03*
X479700D02*
D03*
X369700Y863900D02*
D03*
X479700D02*
D03*
D31*
X229700Y1016400D02*
D03*
Y951400D02*
D03*
Y886400D02*
D03*
Y821400D02*
D03*
X619700D02*
D03*
Y886400D02*
D03*
Y951400D02*
D03*
Y1016400D02*
D03*
D32*
X327200Y723900D02*
D03*
X392200D02*
D03*
X457200D02*
D03*
X522200D02*
D03*
Y1113900D02*
D03*
X457200D02*
D03*
X392200D02*
D03*
X327200D02*
D03*
D33*
X424700Y918900D02*
D03*
D34*
X3086100Y5001600D02*
D03*
Y4726600D02*
D03*
X2044700Y4726600D02*
D03*
Y5001600D02*
D03*
X952500Y4726600D02*
D03*
Y5001600D02*
D03*
D35*
X1500000Y5852400D02*
D03*
Y5642400D02*
D03*
X2500000Y5852400D02*
D03*
Y5642400D02*
D03*
D36*
X863600Y742800D02*
D03*
Y882800D02*
D03*
D37*
X3105900Y1380300D02*
D03*
Y1130300D02*
D03*
Y880300D02*
D03*
X3675900D02*
D03*
Y1130300D02*
D03*
Y1380300D02*
D03*
D38*
X307000Y1739900D02*
D03*
X582000D02*
D03*
D39*
X881100Y1587500D02*
D03*
X1181100D02*
D03*
D40*
X1031100Y1607500D02*
D03*
D41*
X1168400Y1061700D02*
D03*
Y741700D02*
D03*
%TF.MD5,cbf416919446b797904fe263bfe4ab6e*%
M02*
