%TF.GenerationSoftware,Altium Limited,Altium Designer,20.0.14 (345)*%
G04 Layer_Color=16711935*
%FSLAX45Y45*%
%MOMM*%
%TF.FileFunction,Other,Mechanical_13*%
%TF.Part,Single*%
G01*
G75*
%TA.AperFunction,NonConductor*%
%ADD25C,0.25400*%
%ADD29C,0.10000*%
D25*
X-1730Y774701D02*
G03*
X774700Y-136I774519J-319D01*
G01*
X3225799Y-1730D02*
G03*
X4000636Y774700I319J774519D01*
G01*
X4002230Y5676899D02*
G03*
X3225800Y6451736I-774519J319D01*
G01*
X774701Y6453330D02*
G03*
X-136Y5676900I-319J-774519D01*
G01*
D29*
X357200Y1036400D02*
G03*
X357200Y1036400I-50000J0D01*
G01*
X946100Y1734750D02*
G03*
X946100Y1734750I-50000J0D01*
G01*
X217200Y711400D02*
Y1126400D01*
X632200Y711400D02*
Y1126400D01*
X217200D02*
X632200D01*
X217200Y711400D02*
X632200D01*
X1567500Y5642400D02*
Y5852400D01*
X1432500Y5642400D02*
Y5852400D01*
X1567500D01*
X1432500Y5642400D02*
X1567500D01*
X2567500D02*
Y5852400D01*
X2432500Y5642400D02*
Y5852400D01*
X2567500D01*
X2432500Y5642400D02*
X2567500D01*
X3240900Y680300D02*
Y1580300D01*
X3540900Y680300D02*
Y1580300D01*
X3240900D02*
X3540900D01*
X3240900Y680300D02*
X3540900D01*
X801100Y1639750D02*
X1261100D01*
X801100Y1899750D02*
X1261100D01*
X801100Y1639750D02*
Y1899750D01*
X1261100Y1639750D02*
Y1899750D01*
X1083400Y1036700D02*
X1253400D01*
X1083400Y766700D02*
X1253400D01*
Y1036700D01*
X1083400Y766700D02*
Y1036700D01*
%TF.MD5,9673e16ed921f98f0ff8bf423f933aeb*%
M02*
