%TF.GenerationSoftware,Altium Limited,Altium Designer,20.0.14 (345)*%
G04 Layer_Color=32768*
%FSLAX45Y45*%
%MOMM*%
%TF.FileFunction,Other,Mechanical_15*%
%TF.Part,Single*%
G01*
G75*
%TA.AperFunction,NonConductor*%
%ADD29C,0.10000*%
%ADD42C,0.05000*%
D29*
X374700Y918900D02*
X474700D01*
X424700Y868900D02*
Y968900D01*
X1450000Y5747400D02*
X1550000D01*
X1500000Y5697400D02*
Y5797400D01*
X1585000Y5574900D02*
Y5919900D01*
X1415000Y5574900D02*
Y5919900D01*
X1585000D01*
X1415000Y5574900D02*
X1585000D01*
X2450000Y5747400D02*
X2550000D01*
X2500000Y5697400D02*
Y5797400D01*
X2585000Y5574900D02*
Y5919900D01*
X2415000Y5574900D02*
Y5919900D01*
X2585000D01*
X2415000Y5574900D02*
X2585000D01*
X3340900Y1130300D02*
X3440900D01*
X3390900Y1080300D02*
Y1180300D01*
X1031100Y1719750D02*
Y1819750D01*
X981100Y1769750D02*
X1081100D01*
X1168400Y851700D02*
Y951700D01*
X1118400Y901700D02*
X1218400D01*
D42*
X184700Y678900D02*
Y1158900D01*
X664700Y678900D02*
Y1158900D01*
X184700D02*
X664700D01*
X184700Y678900D02*
X664700D01*
X2948400Y665300D02*
Y1595300D01*
X3833400Y665300D02*
Y1595300D01*
X2948400D02*
X3833400D01*
X2948400Y665300D02*
X3833400D01*
X776100Y1492500D02*
X1286100D01*
X776100Y2042500D02*
X1286100D01*
X776100Y1492500D02*
Y2042500D01*
X1286100Y1492500D02*
Y2042500D01*
X1068400Y1119200D02*
X1268400D01*
X1068400Y684200D02*
X1268400D01*
Y1119200D01*
X1068400Y684200D02*
Y1119200D01*
%TF.MD5,fa78d8577fe92f4957c8ac5e6920fc9a*%
M02*
