  0
SECTION
  2
HEADER
  9
$ACADVER
  1
AC1014
  9
$HANDSEED
  5
FFFF
  9
$MEASUREMENT
 70
     1
  0
ENDSEC
  0
SECTION
  2
TABLES
  0
TABLE
  2
VPORT
  5
8
330
0
100
AcDbSymbolTable
 70
     4
  0
VPORT
  5
2E
330
8
100
AcDbSymbolTableRecord
100
AcDbViewportTableRecord
  2
*ACTIVE
 70
     0
 10
0.0
 20
0.0
 11
1.0
 21
1.0
 12
210.0
 22
148.5
 13
0.0
 23
0.0
 14
10.0
 24
10.0
 15
10.0
 25
10.0
 16
0.0
 26
0.0
 36
1.0
 17
0.0
 27
0.0
 37
0.0
 40
341.0
 41
1.24
 42
50.0
 43
0.0
 44
0.0
 50
0.0
 51
0.0
 71
     0
 72
   100
 73
     1
 74
     3
 75
     0
 76
     0
 77
     0
 78
     0
  0
ENDTAB
  0
TABLE
  2
LTYPE
  5
5
330
0
100
AcDbSymbolTable
 70
     1
  0
LTYPE
  5
14
330
5
100
AcDbSymbolTableRecord
100
AcDbLinetypeTableRecord
  2
BYBLOCK
 70
     0
  3

 72
    65
 73
     0
 40
0.0
  0
LTYPE
  5
15
330
5
100
AcDbSymbolTableRecord
100
AcDbLinetypeTableRecord
  2
BYLAYER
 70
     0
  3

 72
    65
 73
     0
 40
0.0
  0
LTYPE
  5
16
330
5
100
AcDbSymbolTableRecord
100
AcDbLinetypeTableRecord
  2
CONTINUOUS
 70
     0
  3
Solid line
 72
    65
 73
     0
 40
0.0
  0
ENDTAB
  0
TABLE
  2
LAYER
  5
2
100
AcDbSymbolTable
 70
2
  0
LAYER
  5
50
100
AcDbSymbolTableRecord
100
AcDbLayerTableRecord
  2
0
 70
0
  6
CONTINUOUS
  0
LAYER
  5
51
100
AcDbSymbolTableRecord
100
AcDbLayerTableRecord
  2
Layer_2
 70
0
  6
CONTINUOUS
  0
ENDTAB
  0
TABLE
  2
STYLE
  5
3
330
0
100
AcDbSymbolTable
 70
     1
  0
STYLE
  5
11
330
3
100
AcDbSymbolTableRecord
100
AcDbTextStyleTableRecord
  2
STANDARD
 70
     0
 40
0.0
 41
1.0
 50
0.0
 71
     0
 42
2.5
  3
txt
  4

  0
ENDTAB
  0
TABLE
  2
VIEW
  5
6
330
0
100
AcDbSymbolTable
 70
     0
  0
ENDTAB
  0
TABLE
  2
UCS
  5
7
330
0
100
AcDbSymbolTable
 70
     0
  0
ENDTAB
  0
TABLE
  2
APPID
  5
9
330
0
100
AcDbSymbolTable
 70
     2
  0
APPID
  5
12
330
9
100
AcDbSymbolTableRecord
100
AcDbRegAppTableRecord
  2
ACAD
 70
     0
  0
ENDTAB
  0
TABLE
  2
DIMSTYLE
  5
A
330
0
100
AcDbSymbolTable
 70
     1
  0
DIMSTYLE
105
27
330
A
100
AcDbSymbolTableRecord
100
AcDbDimStyleTableRecord
  2
ISO-25
 70
     0
  3

  4

  5

  6

  7

 40
1.0
 41
2.5
 42
0.625
 43
3.75
 44
1.25
 45
0.0
 46
0.0
 47
0.0
 48
0.0
140
2.5
141
2.5
142
0.0
143
0.03937007874016
144
1.0
145
0.0
146
1.0
147
0.625
 71
     0
 72
     0
 73
     0
 74
     0
 75
     0
 76
     0
 77
     1
 78
     8
170
     0
171
     3
172
     1
173
     0
174
     0
175
     0
176
     0
177
     0
178
     0
270
     2
271
     2
272
     2
273
     2
274
     3
340
11
275
     0
280
     0
281
     0
282
     0
283
     0
284
     8
285
     0
286
     0
287
     3
288
     0
  0
ENDTAB
  0
TABLE
  2
BLOCK_RECORD
  5
1
330
0
100
AcDbSymbolTable
 70
     1
  0
BLOCK_RECORD
  5
1F
330
1
100
AcDbSymbolTableRecord
100
AcDbBlockTableRecord
  2
*MODEL_SPACE
  0
BLOCK_RECORD
  5
1B
330
1
100
AcDbSymbolTableRecord
100
AcDbBlockTableRecord
  2
*PAPER_SPACE
  0
ENDTAB
  0
ENDSEC
  0
SECTION
  2
BLOCKS
  0
BLOCK
  5
20
330
1F
100
AcDbEntity
  8
0
100
AcDbBlockBegin
  2
*MODEL_SPACE
 70
     0
 10
0.0
 20
0.0
 30
0.0
  3
*MODEL_SPACE
  1

  0
ENDBLK
  5
21
330
1F
100
AcDbEntity
  8
0
100
AcDbBlockEnd
  0
BLOCK
  5
1C
330
1B
100
AcDbEntity
 67
     1
  8
0
100
AcDbBlockBegin
  2
*PAPER_SPACE
  1

  0
ENDBLK
  5
1D
330
1B
100
AcDbEntity
 67
     1
  8
0
100
AcDbBlockEnd
  0
ENDSEC
  0
SECTION
  2
ENTITIES
  0
SPLINE
  5
100
100
AcDbEntity
  8
Layer_2
 62
7
100
AcDbSpline
 70
8
 71
3
 72
8
 73
4
 74
0
 40
0
 40
0
 40
0
 40
0
 40
1
 40
1
 40
1
 40
1
 10
92.689393
 20
43.010401
 30
0.0
 10
92.507700
 20
43.306427
 30
0.0
 10
92.290187
 20
43.553201
 30
0.0
 10
91.900205
 20
43.562830
 30
0.0
  0
SPLINE
  5
101
100
AcDbEntity
  8
Layer_2
 62
7
100
AcDbSpline
 70
8
 71
3
 72
8
 73
4
 74
0
 40
0
 40
0
 40
0
 40
0
 40
1
 40
1
 40
1
 40
1
 10
91.900205
 20
43.562830
 30
0.0
 10
90.829485
 20
43.328239
 30
0.0
 10
90.186156
 20
43.015941
 30
0.0
 10
89.374830
 20
42.734189
 30
0.0
  0
SPLINE
  5
102
100
AcDbEntity
  8
Layer_2
 62
7
100
AcDbSpline
 70
8
 71
3
 72
8
 73
4
 74
0
 40
0
 40
0
 40
0
 40
0
 40
1
 40
1
 40
1
 40
1
 10
89.374830
 20
42.734189
 30
0.0
 10
88.779370
 20
42.292093
 30
0.0
 10
88.509648
 20
41.820385
 30
0.0
 10
88.191057
 20
41.353120
 30
0.0
  0
SPLINE
  5
103
100
AcDbEntity
  8
Layer_2
 62
7
100
AcDbSpline
 70
8
 71
3
 72
8
 73
4
 74
0
 40
0
 40
0
 40
0
 40
0
 40
1
 40
1
 40
1
 40
1
 10
88.191057
 20
41.353120
 30
0.0
 10
88.051577
 20
40.558474
 30
0.0
 10
89.096013
 20
38.364742
 30
0.0
 10
89.335369
 20
37.130998
 30
0.0
  0
SPLINE
  5
104
100
AcDbEntity
  8
Layer_2
 62
7
100
AcDbSpline
 70
8
 71
3
 72
8
 73
4
 74
0
 40
0
 40
0
 40
0
 40
0
 40
1
 40
1
 40
1
 40
1
 10
89.335369
 20
37.130998
 30
0.0
 10
89.395885
 20
36.599596
 30
0.0
 10
89.141725
 20
36.732305
 30
0.0
 10
89.394424
 20
35.912632
 30
0.0
  0
SPLINE
  5
105
100
AcDbEntity
  8
Layer_2
 62
7
100
AcDbSpline
 70
8
 71
3
 72
8
 73
4
 74
0
 40
0
 40
0
 40
0
 40
0
 40
1
 40
1
 40
1
 40
1
 10
89.394424
 20
35.912632
 30
0.0
 10
90.099663
 20
35.902415
 30
0.0
 10
90.463087
 20
35.452722
 30
0.0
 10
91.840884
 20
36.307223
 30
0.0
  0
SPLINE
  5
106
100
AcDbEntity
  8
Layer_2
 62
7
100
AcDbSpline
 70
8
 71
3
 72
8
 73
4
 74
0
 40
0
 40
0
 40
0
 40
0
 40
1
 40
1
 40
1
 40
1
 10
91.840884
 20
36.307223
 30
0.0
 10
93.313003
 20
37.530964
 30
0.0
 10
93.505770
 20
37.493605
 30
0.0
 10
93.813845
 20
37.569913
 30
0.0
  0
SPLINE
  5
107
100
AcDbEntity
  8
Layer_2
 62
7
100
AcDbSpline
 70
8
 71
3
 72
8
 73
4
 74
0
 40
0
 40
0
 40
0
 40
0
 40
1
 40
1
 40
1
 40
1
 10
93.813845
 20
37.569913
 30
0.0
 10
93.218582
 20
38.494536
 30
0.0
 10
93.277291
 20
39.076049
 30
0.0
 10
93.202362
 20
40.208806
 30
0.0
  0
SPLINE
  5
108
100
AcDbEntity
  8
Layer_2
 62
7
100
AcDbSpline
 70
8
 71
3
 72
8
 73
4
 74
0
 40
0
 40
0
 40
0
 40
0
 40
1
 40
1
 40
1
 40
1
 10
93.202362
 20
40.208806
 30
0.0
 10
93.229453
 20
41.038232
 30
0.0
 10
92.875825
 20
42.394501
 30
0.0
 10
92.689393
 20
43.010401
 30
0.0
  0
SPLINE
  5
109
100
AcDbEntity
  8
Layer_2
 62
7
100
AcDbSpline
 70
8
 71
3
 72
8
 73
4
 74
0
 40
0
 40
0
 40
0
 40
0
 40
1
 40
1
 40
1
 40
1
 10
75.958740
 20
38.235854
 30
0.0
 10
75.627173
 20
36.824342
 30
0.0
 10
75.870877
 20
35.243537
 30
0.0
 10
75.870877
 20
35.243537
 30
0.0
  0
SPLINE
  5
10a
100
AcDbEntity
  8
Layer_2
 62
7
100
AcDbSpline
 70
8
 71
3
 72
8
 73
4
 74
0
 40
0
 40
0
 40
0
 40
0
 40
1
 40
1
 40
1
 40
1
 10
75.870877
 20
35.243537
 30
0.0
 10
75.870877
 20
35.243537
 30
0.0
 10
73.518423
 20
35.305454
 30
0.0
 10
72.240641
 20
34.848949
 30
0.0
  0
SPLINE
  5
10b
100
AcDbEntity
  8
Layer_2
 62
7
100
AcDbSpline
 70
8
 71
3
 72
8
 73
4
 74
0
 40
0
 40
0
 40
0
 40
0
 40
1
 40
1
 40
1
 40
1
 10
72.240641
 20
34.848949
 30
0.0
 10
70.997702
 20
34.763475
 30
0.0
 10
70.667488
 20
35.296498
 30
0.0
 10
70.140557
 20
35.942245
 30
0.0
  0
SPLINE
  5
10c
100
AcDbEntity
  8
Layer_2
 62
7
100
AcDbSpline
 70
8
 71
3
 72
8
 73
4
 74
0
 40
0
 40
0
 40
0
 40
0
 40
1
 40
1
 40
1
 40
1
 10
70.140557
 20
35.942245
 30
0.0
 10
69.260808
 20
37.020367
 30
0.0
 10
68.769847
 20
37.170423
 30
0.0
 10
67.907322
 20
38.720723
 30
0.0
  0
SPLINE
  5
10d
100
AcDbEntity
  8
Layer_2
 62
7
100
AcDbSpline
 70
8
 71
3
 72
8
 73
4
 74
0
 40
0
 40
0
 40
0
 40
0
 40
1
 40
1
 40
1
 40
1
 10
67.907322
 20
38.720723
 30
0.0
 10
66.680695
 20
40.925461
 30
0.0
 10
65.672970
 20
40.817968
 30
0.0
 10
63.429297
 20
41.647879
 30
0.0
  0
SPLINE
  5
10e
100
AcDbEntity
  8
Layer_2
 62
7
100
AcDbSpline
 70
8
 71
3
 72
8
 73
4
 74
0
 40
0
 40
0
 40
0
 40
0
 40
1
 40
1
 40
1
 40
1
 10
63.429297
 20
41.647879
 30
0.0
 10
61.796735
 20
42.251744
 30
0.0
 10
60.024019
 20
41.985733
 30
0.0
 10
58.942930
 20
42.622386
 30
0.0
  0
SPLINE
  5
10f
100
AcDbEntity
  8
Layer_2
 62
7
100
AcDbSpline
 70
8
 71
3
 72
8
 73
4
 74
0
 40
0
 40
0
 40
0
 40
0
 40
1
 40
1
 40
1
 40
1
 10
58.942930
 20
42.622386
 30
0.0
 10
57.622244
 20
43.186138
 30
0.0
 10
57.086315
 20
44.165472
 30
0.0
 10
55.707285
 20
44.437504
 30
0.0
  0
SPLINE
  5
110
100
AcDbEntity
  8
Layer_2
 62
7
100
AcDbSpline
 70
8
 71
3
 72
8
 73
4
 74
0
 40
0
 40
0
 40
0
 40
0
 40
1
 40
1
 40
1
 40
1
 10
55.707285
 20
44.437504
 30
0.0
 10
56.354150
 20
46.069778
 30
0.0
 10
56.278893
 20
45.326700
 30
0.0
 10
57.570806
 20
46.324964
 30
0.0
  0
SPLINE
  5
111
100
AcDbEntity
  8
Layer_2
 62
7
100
AcDbSpline
 70
8
 71
3
 72
8
 73
4
 74
0
 40
0
 40
0
 40
0
 40
0
 40
1
 40
1
 40
1
 40
1
 10
57.570806
 20
46.324964
 30
0.0
 10
58.537562
 20
46.989949
 30
0.0
 10
59.289033
 20
47.357130
 30
0.0
 10
60.096187
 20
47.153605
 30
0.0
  0
SPLINE
  5
112
100
AcDbEntity
  8
Layer_2
 62
7
100
AcDbSpline
 70
8
 71
3
 72
8
 73
4
 74
0
 40
0
 40
0
 40
0
 40
0
 40
1
 40
1
 40
1
 40
1
 10
60.096187
 20
47.153605
 30
0.0
 10
61.944646
 20
46.687516
 30
0.0
 10
62.567526
 20
45.731277
 30
0.0
 10
63.982907
 20
45.160923
 30
0.0
  0
SPLINE
  5
113
100
AcDbEntity
  8
Layer_2
 62
7
100
AcDbSpline
 70
8
 71
3
 72
8
 73
4
 74
0
 40
0
 40
0
 40
0
 40
0
 40
1
 40
1
 40
1
 40
1
 10
63.982907
 20
45.160923
 30
0.0
 10
65.744193
 20
44.451181
 30
0.0
 10
66.084295
 20
43.133877
 30
0.0
 10
67.705214
 20
42.648958
 30
0.0
  0
SPLINE
  5
114
100
AcDbEntity
  8
Layer_2
 62
7
100
AcDbSpline
 70
8
 71
3
 72
8
 73
4
 74
0
 40
0
 40
0
 40
0
 40
0
 40
1
 40
1
 40
1
 40
1
 10
67.705214
 20
42.648958
 30
0.0
 10
69.384621
 20
42.087089
 30
0.0
 10
69.874057
 20
42.134838
 30
0.0
 10
70.911091
 20
42.085448
 30
0.0
  0
SPLINE
  5
115
100
AcDbEntity
  8
Layer_2
 62
7
100
AcDbSpline
 70
8
 71
3
 72
8
 73
4
 74
0
 40
0
 40
0
 40
0
 40
0
 40
1
 40
1
 40
1
 40
1
 10
70.911091
 20
42.085448
 30
0.0
 10
74.893936
 20
41.895760
 30
0.0
 10
75.170785
 20
39.693402
 30
0.0
 10
75.958740
 20
38.235854
 30
0.0
  0
LWPOLYLINE
  5
116
100
AcDbEntity
  8
Layer_2
 62
7
100
AcDbPolyline
 90
1
 70
1
 10
92.689393
 20
43.010401
 30
0.0
  0
SPLINE
  5
117
100
AcDbEntity
  8
Layer_2
 62
7
100
AcDbSpline
 70
8
 71
3
 72
8
 73
4
 74
0
 40
0
 40
0
 40
0
 40
0
 40
1
 40
1
 40
1
 40
1
 10
89.334839
 20
3.117270
 30
0.0
 10
89.282299
 20
3.055970
 30
0.0
 10
87.182330
 20
6.026912
 30
0.0
 10
87.220985
 20
7.756696
 30
0.0
  0
SPLINE
  5
118
100
AcDbEntity
  8
Layer_2
 62
7
100
AcDbSpline
 70
8
 71
3
 72
8
 73
4
 74
0
 40
0
 40
0
 40
0
 40
0
 40
1
 40
1
 40
1
 40
1
 10
87.220985
 20
7.756696
 30
0.0
 10
87.244282
 20
8.799594
 30
0.0
 10
86.575657
 20
9.954450
 30
0.0
 10
87.053569
 20
10.881695
 30
0.0
  0
SPLINE
  5
119
100
AcDbEntity
  8
Layer_2
 62
7
100
AcDbSpline
 70
8
 71
3
 72
8
 73
4
 74
0
 40
0
 40
0
 40
0
 40
0
 40
1
 40
1
 40
1
 40
1
 10
87.053569
 20
10.881695
 30
0.0
 10
88.208179
 20
13.121865
 30
0.0
 10
88.947898
 20
14.753165
 30
0.0
 10
89.174109
 20
16.127233
 30
0.0
  0
SPLINE
  5
11a
100
AcDbEntity
  8
Layer_2
 62
7
100
AcDbSpline
 70
8
 71
3
 72
8
 73
4
 74
0
 40
0
 40
0
 40
0
 40
0
 40
1
 40
1
 40
1
 40
1
 10
89.174109
 20
16.127233
 30
0.0
 10
89.579554
 20
18.590021
 30
0.0
 10
91.597613
 20
20.687124
 30
0.0
 10
93.359374
 20
21.986608
 30
0.0
  0
SPLINE
  5
11b
100
AcDbEntity
  8
Layer_2
 62
7
100
AcDbSpline
 70
8
 71
3
 72
8
 73
4
 74
0
 40
0
 40
0
 40
0
 40
0
 40
1
 40
1
 40
1
 40
1
 10
93.359374
 20
21.986608
 30
0.0
 10
95.498513
 20
23.564446
 30
0.0
 10
96.977153
 20
26.086244
 30
0.0
 10
97.488836
 20
29.017858
 30
0.0
  0
SPLINE
  5
11c
100
AcDbEntity
  8
Layer_2
 62
7
100
AcDbSpline
 70
8
 71
3
 72
8
 73
4
 74
0
 40
0
 40
0
 40
0
 40
0
 40
1
 40
1
 40
1
 40
1
 10
97.488836
 20
29.017858
 30
0.0
 10
97.911485
 20
31.439354
 30
0.0
 10
96.643536
 20
33.614136
 30
0.0
 10
100.936335
 20
35.828847
 30
0.0
  0
SPLINE
  5
11d
100
AcDbEntity
  8
Layer_2
 62
7
100
AcDbSpline
 70
8
 71
3
 72
8
 73
4
 74
0
 40
0
 40
0
 40
0
 40
0
 40
1
 40
1
 40
1
 40
1
 10
100.936335
 20
35.828847
 30
0.0
 10
103.252810
 20
37.023949
 30
0.0
 10
105.515433
 20
38.444712
 30
0.0
 10
107.031248
 20
40.736608
 30
0.0
  0
SPLINE
  5
11e
100
AcDbEntity
  8
Layer_2
 62
7
100
AcDbSpline
 70
8
 71
3
 72
8
 73
4
 74
0
 40
0
 40
0
 40
0
 40
0
 40
1
 40
1
 40
1
 40
1
 10
107.031248
 20
40.736608
 30
0.0
 10
108.233472
 20
42.554360
 30
0.0
 10
107.694883
 20
45.250011
 30
0.0
 10
110.435265
 20
46.484375
 30
0.0
  0
SPLINE
  5
11f
100
AcDbEntity
  8
Layer_2
 62
7
100
AcDbSpline
 70
8
 71
3
 72
8
 73
4
 74
0
 40
0
 40
0
 40
0
 40
0
 40
1
 40
1
 40
1
 40
1
 10
110.435265
 20
46.484375
 30
0.0
 10
112.154424
 20
47.258744
 30
0.0
 10
113.803211
 20
47.219171
 30
0.0
 10
115.066961
 20
49.832587
 30
0.0
  0
SPLINE
  5
120
100
AcDbEntity
  8
Layer_2
 62
7
100
AcDbSpline
 70
8
 71
3
 72
8
 73
4
 74
0
 40
0
 40
0
 40
0
 40
0
 40
1
 40
1
 40
1
 40
1
 10
115.066961
 20
49.832587
 30
0.0
 10
116.544033
 20
52.887149
 30
0.0
 10
121.427345
 20
51.395407
 30
0.0
 10
124.609373
 20
50.055804
 30
0.0
  0
SPLINE
  5
121
100
AcDbEntity
  8
Layer_2
 62
7
100
AcDbSpline
 70
8
 71
3
 72
8
 73
4
 74
0
 40
0
 40
0
 40
0
 40
0
 40
1
 40
1
 40
1
 40
1
 10
124.609373
 20
50.055804
 30
0.0
 10
125.273439
 20
49.776237
 30
0.0
 10
126.399552
 20
49.701972
 30
0.0
 10
126.730276
 20
48.618860
 30
0.0
  0
SPLINE
  5
122
100
AcDbEntity
  8
Layer_2
 62
7
100
AcDbSpline
 70
8
 71
3
 72
8
 73
4
 74
0
 40
0
 40
0
 40
0
 40
0
 40
1
 40
1
 40
1
 40
1
 10
126.730276
 20
48.618860
 30
0.0
 10
128.046924
 20
44.306868
 30
0.0
 10
128.284550
 20
45.033243
 30
0.0
 10
129.268976
 20
44.670757
 30
0.0
  0
SPLINE
  5
123
100
AcDbEntity
  8
Layer_2
 62
7
100
AcDbSpline
 70
8
 71
3
 72
8
 73
4
 74
0
 40
0
 40
0
 40
0
 40
0
 40
1
 40
1
 40
1
 40
1
 10
129.268976
 20
44.670757
 30
0.0
 10
131.213593
 20
43.954711
 30
0.0
 10
131.863917
 20
43.448177
 30
0.0
 10
131.808039
 20
42.354910
 30
0.0
  0
SPLINE
  5
124
100
AcDbEntity
  8
Layer_2
 62
7
100
AcDbSpline
 70
8
 71
3
 72
8
 73
4
 74
0
 40
0
 40
0
 40
0
 40
0
 40
1
 40
1
 40
1
 40
1
 10
131.808039
 20
42.354910
 30
0.0
 10
131.778806
 20
41.783192
 30
0.0
 10
132.111349
 20
40.677559
 30
0.0
 10
132.532379
 20
40.586083
 30
0.0
  0
SPLINE
  5
125
100
AcDbEntity
  8
Layer_2
 62
7
100
AcDbSpline
 70
8
 71
3
 72
8
 73
4
 74
0
 40
0
 40
0
 40
0
 40
0
 40
1
 40
1
 40
1
 40
1
 10
132.532379
 20
40.586083
 30
0.0
 10
134.016470
 20
40.263642
 30
0.0
 10
134.589369
 20
41.341135
 30
0.0
 10
134.598210
 20
41.350445
 30
0.0
  0
LWPOLYLINE
  5
126
100
AcDbEntity
  8
Layer_2
 62
7
100
AcDbPolyline
 90
1
 70
1
 10
75.958740
 20
38.235854
 30
0.0
  0
SPLINE
  5
127
100
AcDbEntity
  8
Layer_2
 62
7
100
AcDbSpline
 70
8
 71
3
 72
8
 73
4
 74
0
 40
0
 40
0
 40
0
 40
0
 40
1
 40
1
 40
1
 40
1
 10
136.580442
 20
43.438395
 30
0.0
 10
138.160323
 20
45.102538
 30
0.0
 10
140.834522
 20
43.174527
 30
0.0
 10
141.661125
 20
42.780261
 30
0.0
  0
SPLINE
  5
128
100
AcDbEntity
  8
Layer_2
 62
7
100
AcDbSpline
 70
8
 71
3
 72
8
 73
4
 74
0
 40
0
 40
0
 40
0
 40
0
 40
1
 40
1
 40
1
 40
1
 10
141.661125
 20
42.780261
 30
0.0
 10
142.217354
 20
42.514956
 30
0.0
 10
143.372176
 20
43.015043
 30
0.0
 10
144.208604
 20
44.201960
 30
0.0
  0
SPLINE
  5
129
100
AcDbEntity
  8
Layer_2
 62
7
100
AcDbSpline
 70
8
 71
3
 72
8
 73
4
 74
0
 40
0
 40
0
 40
0
 40
0
 40
1
 40
1
 40
1
 40
1
 10
144.208604
 20
44.201960
 30
0.0
 10
145.916726
 20
46.625844
 30
0.0
 10
144.481793
 20
46.881848
 30
0.0
 10
143.753410
 20
47.837121
 30
0.0
  0
SPLINE
  5
12a
100
AcDbEntity
  8
Layer_2
 62
7
100
AcDbSpline
 70
8
 71
3
 72
8
 73
4
 74
0
 40
0
 40
0
 40
0
 40
0
 40
1
 40
1
 40
1
 40
1
 10
143.753410
 20
47.837121
 30
0.0
 10
143.093720
 20
48.702305
 30
0.0
 10
144.353250
 20
51.214288
 30
0.0
 10
144.866073
 20
51.674109
 30
0.0
  0
SPLINE
  5
12b
100
AcDbEntity
  8
Layer_2
 62
7
100
AcDbSpline
 70
8
 71
3
 72
8
 73
4
 74
0
 40
0
 40
0
 40
0
 40
0
 40
1
 40
1
 40
1
 40
1
 10
144.866073
 20
51.674109
 30
0.0
 10
145.002101
 20
51.796076
 30
0.0
 10
147.493456
 20
52.554544
 30
0.0
 10
147.375505
 20
55.223115
 30
0.0
  0
SPLINE
  5
12c
100
AcDbEntity
  8
Layer_2
 62
7
100
AcDbSpline
 70
8
 71
3
 72
8
 73
4
 74
0
 40
0
 40
0
 40
0
 40
0
 40
1
 40
1
 40
1
 40
1
 10
147.375505
 20
55.223115
 30
0.0
 10
147.309712
 20
56.711632
 30
0.0
 10
145.512617
 20
58.143704
 30
0.0
 10
145.112835
 20
58.407048
 30
0.0
  0
SPLINE
  5
12d
100
AcDbEntity
  8
Layer_2
 62
7
100
AcDbSpline
 70
8
 71
3
 72
8
 73
4
 74
0
 40
0
 40
0
 40
0
 40
0
 40
1
 40
1
 40
1
 40
1
 10
145.112835
 20
58.407048
 30
0.0
 10
142.893721
 20
59.868819
 30
0.0
 10
143.981850
 20
61.157260
 30
0.0
 10
142.468164
 20
61.806763
 30
0.0
  0
SPLINE
  5
12e
100
AcDbEntity
  8
Layer_2
 62
7
100
AcDbSpline
 70
8
 71
3
 72
8
 73
4
 74
0
 40
0
 40
0
 40
0
 40
0
 40
1
 40
1
 40
1
 40
1
 10
142.468164
 20
61.806763
 30
0.0
 10
141.027588
 20
62.667568
 30
0.0
 10
140.396870
 20
62.838364
 30
0.0
 10
141.097719
 20
64.319841
 30
0.0
  0
SPLINE
  5
12f
100
AcDbEntity
  8
Layer_2
 62
7
100
AcDbSpline
 70
8
 71
3
 72
8
 73
4
 74
0
 40
0
 40
0
 40
0
 40
0
 40
1
 40
1
 40
1
 40
1
 10
141.097719
 20
64.319841
 30
0.0
 10
141.581823
 20
65.343156
 30
0.0
 10
141.798688
 20
66.076685
 30
0.0
 10
139.923812
 20
66.569214
 30
0.0
  0
SPLINE
  5
130
100
AcDbEntity
  8
Layer_2
 62
7
100
AcDbSpline
 70
8
 71
3
 72
8
 73
4
 74
0
 40
0
 40
0
 40
0
 40
0
 40
1
 40
1
 40
1
 40
1
 10
139.923812
 20
66.569214
 30
0.0
 10
138.133190
 20
67.039605
 30
0.0
 10
138.269584
 20
68.175531
 30
0.0
 10
139.843751
 20
70.089285
 30
0.0
  0
SPLINE
  5
131
100
AcDbEntity
  8
Layer_2
 62
7
100
AcDbSpline
 70
8
 71
3
 72
8
 73
4
 74
0
 40
0
 40
0
 40
0
 40
0
 40
1
 40
1
 40
1
 40
1
 10
139.843751
 20
70.089285
 30
0.0
 10
140.604898
 20
71.014632
 30
0.0
 10
140.927714
 20
73.567027
 30
0.0
 10
138.551734
 20
74.080829
 30
0.0
  0
SPLINE
  5
132
100
AcDbEntity
  8
Layer_2
 62
7
100
AcDbSpline
 70
8
 71
3
 72
8
 73
4
 74
0
 40
0
 40
0
 40
0
 40
0
 40
1
 40
1
 40
1
 40
1
 10
138.551734
 20
74.080829
 30
0.0
 10
137.436957
 20
74.321898
 30
0.0
 10
137.488722
 20
73.643351
 30
0.0
 10
136.821815
 20
75.970765
 30
0.0
  0
SPLINE
  5
133
100
AcDbEntity
  8
Layer_2
 62
7
100
AcDbSpline
 70
8
 71
3
 72
8
 73
4
 74
0
 40
0
 40
0
 40
0
 40
0
 40
1
 40
1
 40
1
 40
1
 10
136.821815
 20
75.970765
 30
0.0
 10
136.583785
 20
76.801460
 30
0.0
 10
135.563073
 20
76.740167
 30
0.0
 10
134.299982
 20
77.196912
 30
0.0
  0
SPLINE
  5
134
100
AcDbEntity
  8
Layer_2
 62
7
100
AcDbSpline
 70
8
 71
3
 72
8
 73
4
 74
0
 40
0
 40
0
 40
0
 40
0
 40
1
 40
1
 40
1
 40
1
 10
134.299982
 20
77.196912
 30
0.0
 10
132.864050
 20
77.716157
 30
0.0
 10
133.020390
 20
81.602261
 30
0.0
 10
131.029367
 20
81.554561
 30
0.0
  0
SPLINE
  5
135
100
AcDbEntity
  8
Layer_2
 62
7
100
AcDbSpline
 70
8
 71
3
 72
8
 73
4
 74
0
 40
0
 40
0
 40
0
 40
0
 40
1
 40
1
 40
1
 40
1
 10
131.029367
 20
81.554561
 30
0.0
 10
127.155508
 20
81.461751
 30
0.0
 10
129.445110
 20
85.189355
 30
0.0
 10
126.560782
 20
85.608239
 30
0.0
  0
SPLINE
  5
136
100
AcDbEntity
  8
Layer_2
 62
7
100
AcDbSpline
 70
8
 71
3
 72
8
 73
4
 74
0
 40
0
 40
0
 40
0
 40
0
 40
1
 40
1
 40
1
 40
1
 10
126.560782
 20
85.608239
 30
0.0
 10
124.778879
 20
85.867020
 30
0.0
 10
123.498591
 20
87.044098
 30
0.0
 10
122.220700
 20
86.869493
 30
0.0
  0
SPLINE
  5
137
100
AcDbEntity
  8
Layer_2
 62
7
100
AcDbSpline
 70
8
 71
3
 72
8
 73
4
 74
0
 40
0
 40
0
 40
0
 40
0
 40
1
 40
1
 40
1
 40
1
 10
122.220700
 20
86.869493
 30
0.0
 10
120.193317
 20
86.592480
 30
0.0
 10
120.106943
 20
86.520225
 30
0.0
 10
117.927603
 20
87.406998
 30
0.0
  0
SPLINE
  5
138
100
AcDbEntity
  8
Layer_2
 62
7
100
AcDbSpline
 70
8
 71
3
 72
8
 73
4
 74
0
 40
0
 40
0
 40
0
 40
0
 40
1
 40
1
 40
1
 40
1
 10
117.927603
 20
87.406998
 30
0.0
 10
115.094200
 20
88.559909
 30
0.0
 10
115.828409
 20
90.988738
 30
0.0
 10
111.143292
 20
89.867958
 30
0.0
  0
SPLINE
  5
139
100
AcDbEntity
  8
Layer_2
 62
7
100
AcDbSpline
 70
8
 71
3
 72
8
 73
4
 74
0
 40
0
 40
0
 40
0
 40
0
 40
1
 40
1
 40
1
 40
1
 10
111.143292
 20
89.867958
 30
0.0
 10
107.100818
 20
88.900912
 30
0.0
 10
107.508493
 20
91.138612
 30
0.0
 10
103.571433
 20
89.815848
 30
0.0
  0
SPLINE
  5
13a
100
AcDbEntity
  8
Layer_2
 62
7
100
AcDbSpline
 70
8
 71
3
 72
8
 73
4
 74
0
 40
0
 40
0
 40
0
 40
0
 40
1
 40
1
 40
1
 40
1
 10
103.571433
 20
89.815848
 30
0.0
 10
101.316609
 20
89.058278
 30
0.0
 10
101.013635
 20
88.240855
 30
0.0
 10
98.660714
 20
90.848214
 30
0.0
  0
SPLINE
  5
13b
100
AcDbEntity
  8
Layer_2
 62
7
100
AcDbSpline
 70
8
 71
3
 72
8
 73
4
 74
0
 40
0
 40
0
 40
0
 40
0
 40
1
 40
1
 40
1
 40
1
 10
98.660714
 20
90.848214
 30
0.0
 10
95.636708
 20
94.199227
 30
0.0
 10
92.426767
 20
93.608993
 30
0.0
 10
89.062503
 20
93.415179
 30
0.0
  0
SPLINE
  5
13c
100
AcDbEntity
  8
Layer_2
 62
7
100
AcDbSpline
 70
8
 71
3
 72
8
 73
4
 74
0
 40
0
 40
0
 40
0
 40
0
 40
1
 40
1
 40
1
 40
1
 10
89.062503
 20
93.415179
 30
0.0
 10
86.070871
 20
93.242831
 30
0.0
 10
83.793505
 20
93.810251
 30
0.0
 10
80.580361
 20
96.093750
 30
0.0
  0
SPLINE
  5
13d
100
AcDbEntity
  8
Layer_2
 62
7
100
AcDbSpline
 70
8
 71
3
 72
8
 73
4
 74
0
 40
0
 40
0
 40
0
 40
0
 40
1
 40
1
 40
1
 40
1
 10
80.580361
 20
96.093750
 30
0.0
 10
77.826768
 20
98.050659
 30
0.0
 10
75.090302
 20
98.603080
 30
0.0
 10
70.200895
 20
95.089286
 30
0.0
  0
SPLINE
  5
13e
100
AcDbEntity
  8
Layer_2
 62
7
100
AcDbSpline
 70
8
 71
3
 72
8
 73
4
 74
0
 40
0
 40
0
 40
0
 40
0
 40
1
 40
1
 40
1
 40
1
 10
70.200895
 20
95.089286
 30
0.0
 10
65.336064
 20
91.593154
 30
0.0
 10
62.300673
 20
93.859501
 30
0.0
 10
59.486611
 20
94.531250
 30
0.0
  0
SPLINE
  5
13f
100
AcDbEntity
  8
Layer_2
 62
7
100
AcDbSpline
 70
8
 71
3
 72
8
 73
4
 74
0
 40
0
 40
0
 40
0
 40
0
 40
1
 40
1
 40
1
 40
1
 10
59.486611
 20
94.531250
 30
0.0
 10
58.746219
 20
94.707990
 30
0.0
 10
55.504731
 20
96.485216
 30
0.0
 10
54.102470
 20
95.069716
 30
0.0
  0
SPLINE
  5
140
100
AcDbEntity
  8
Layer_2
 62
7
100
AcDbSpline
 70
8
 71
3
 72
8
 73
4
 74
0
 40
0
 40
0
 40
0
 40
0
 40
1
 40
1
 40
1
 40
1
 10
54.102470
 20
95.069716
 30
0.0
 10
52.550770
 20
93.503367
 30
0.0
 10
50.869427
 20
94.000807
 30
0.0
 10
49.987716
 20
93.850036
 30
0.0
  0
SPLINE
  5
141
100
AcDbEntity
  8
Layer_2
 62
7
100
AcDbSpline
 70
8
 71
3
 72
8
 73
4
 74
0
 40
0
 40
0
 40
0
 40
0
 40
1
 40
1
 40
1
 40
1
 10
49.987716
 20
93.850036
 30
0.0
 10
47.893332
 20
93.491902
 30
0.0
 10
48.432975
 20
91.372149
 30
0.0
 10
45.895034
 20
90.822695
 30
0.0
  0
SPLINE
  5
142
100
AcDbEntity
  8
Layer_2
 62
7
100
AcDbSpline
 70
8
 71
3
 72
8
 73
4
 74
0
 40
0
 40
0
 40
0
 40
0
 40
1
 40
1
 40
1
 40
1
 10
45.895034
 20
90.822695
 30
0.0
 10
41.704713
 20
89.915508
 30
0.0
 10
41.798622
 20
89.677893
 30
0.0
 10
40.657728
 20
88.445239
 30
0.0
  0
SPLINE
  5
143
100
AcDbEntity
  8
Layer_2
 62
7
100
AcDbSpline
 70
8
 71
3
 72
8
 73
4
 74
0
 40
0
 40
0
 40
0
 40
0
 40
1
 40
1
 40
1
 40
1
 10
40.657728
 20
88.445239
 30
0.0
 10
37.553631
 20
85.091489
 30
0.0
 10
41.716858
 20
84.830750
 30
0.0
 10
38.891475
 20
83.754469
 30
0.0
  0
SPLINE
  5
144
100
AcDbEntity
  8
Layer_2
 62
7
100
AcDbSpline
 70
8
 71
3
 72
8
 73
4
 74
0
 40
0
 40
0
 40
0
 40
0
 40
1
 40
1
 40
1
 40
1
 10
38.891475
 20
83.754469
 30
0.0
 10
37.826655
 20
83.348844
 30
0.0
 10
32.635946
 20
81.583348
 30
0.0
 10
36.479035
 20
77.805813
 30
0.0
  0
SPLINE
  5
145
100
AcDbEntity
  8
Layer_2
 62
7
100
AcDbSpline
 70
8
 71
3
 72
8
 73
4
 74
0
 40
0
 40
0
 40
0
 40
0
 40
1
 40
1
 40
1
 40
1
 10
36.479035
 20
77.805813
 30
0.0
 10
37.778950
 20
76.528070
 30
0.0
 10
36.337722
 20
75.469096
 30
0.0
 10
34.707931
 20
76.274442
 30
0.0
  0
SPLINE
  5
146
100
AcDbEntity
  8
Layer_2
 62
7
100
AcDbSpline
 70
8
 71
3
 72
8
 73
4
 74
0
 40
0
 40
0
 40
0
 40
0
 40
1
 40
1
 40
1
 40
1
 10
34.707931
 20
76.274442
 30
0.0
 10
32.269046
 20
77.479593
 30
0.0
 10
27.451530
 20
72.596323
 30
0.0
 10
26.595426
 20
71.420942
 30
0.0
  0
SPLINE
  5
147
100
AcDbEntity
  8
Layer_2
 62
7
100
AcDbSpline
 70
8
 71
3
 72
8
 73
4
 74
0
 40
0
 40
0
 40
0
 40
0
 40
1
 40
1
 40
1
 40
1
 10
26.595426
 20
71.420942
 30
0.0
 10
26.394228
 20
71.144711
 30
0.0
 10
23.112396
 20
68.457046
 30
0.0
 10
20.268904
 20
68.325909
 30
0.0
  0
SPLINE
  5
148
100
AcDbEntity
  8
Layer_2
 62
7
100
AcDbSpline
 70
8
 71
3
 72
8
 73
4
 74
0
 40
0
 40
0
 40
0
 40
0
 40
1
 40
1
 40
1
 40
1
 10
20.268904
 20
68.325909
 30
0.0
 10
17.162670
 20
68.182653
 30
0.0
 10
15.457388
 20
65.758856
 30
0.0
 10
15.545150
 20
63.728434
 30
0.0
  0
SPLINE
  5
149
100
AcDbEntity
  8
Layer_2
 62
7
100
AcDbSpline
 70
8
 71
3
 72
8
 73
4
 74
0
 40
0
 40
0
 40
0
 40
0
 40
1
 40
1
 40
1
 40
1
 10
15.545150
 20
63.728434
 30
0.0
 10
15.687074
 20
60.444881
 30
0.0
 10
12.788070
 20
61.323863
 30
0.0
 10
10.555967
 20
59.630732
 30
0.0
  0
SPLINE
  5
14a
100
AcDbEntity
  8
Layer_2
 62
7
100
AcDbSpline
 70
8
 71
3
 72
8
 73
4
 74
0
 40
0
 40
0
 40
0
 40
0
 40
1
 40
1
 40
1
 40
1
 10
10.555967
 20
59.630732
 30
0.0
 10
8.716350
 20
58.235316
 30
0.0
 10
9.455224
 20
55.957598
 30
0.0
 10
9.626177
 20
55.330581
 30
0.0
  0
SPLINE
  5
14b
100
AcDbEntity
  8
Layer_2
 62
7
100
AcDbSpline
 70
8
 71
3
 72
8
 73
4
 74
0
 40
0
 40
0
 40
0
 40
0
 40
1
 40
1
 40
1
 40
1
 10
9.626177
 20
55.330581
 30
0.0
 10
9.833879
 20
54.568778
 30
0.0
 10
11.318029
 20
51.415654
 30
0.0
 10
9.344298
 20
50.340928
 30
0.0
  0
SPLINE
  5
14c
100
AcDbEntity
  8
Layer_2
 62
7
100
AcDbSpline
 70
8
 71
3
 72
8
 73
4
 74
0
 40
0
 40
0
 40
0
 40
0
 40
1
 40
1
 40
1
 40
1
 10
9.344298
 20
50.340928
 30
0.0
 10
8.346420
 20
49.797568
 30
0.0
 10
8.168038
 20
49.343945
 30
0.0
 10
8.404787
 20
47.982246
 30
0.0
  0
SPLINE
  5
14d
100
AcDbEntity
  8
Layer_2
 62
7
100
AcDbSpline
 70
8
 71
3
 72
8
 73
4
 74
0
 40
0
 40
0
 40
0
 40
0
 40
1
 40
1
 40
1
 40
1
 10
8.404787
 20
47.982246
 30
0.0
 10
8.583313
 20
46.833677
 30
0.0
 10
7.982428
 20
44.977666
 30
0.0
 10
7.570394
 20
44.537599
 30
0.0
  0
SPLINE
  5
14e
100
AcDbEntity
  8
Layer_2
 62
7
100
AcDbSpline
 70
8
 71
3
 72
8
 73
4
 74
0
 40
0
 40
0
 40
0
 40
0
 40
1
 40
1
 40
1
 40
1
 10
7.570394
 20
44.537599
 30
0.0
 10
5.348504
 20
42.267314
 30
0.0
 10
5.604467
 20
43.218278
 30
0.0
 10
4.669967
 20
40.373768
 30
0.0
  0
SPLINE
  5
14f
100
AcDbEntity
  8
Layer_2
 62
7
100
AcDbSpline
 70
8
 71
3
 72
8
 73
4
 74
0
 40
0
 40
0
 40
0
 40
0
 40
1
 40
1
 40
1
 40
1
 10
4.669967
 20
40.373768
 30
0.0
 10
4.289121
 20
39.214522
 30
0.0
 10
4.762601
 20
38.631420
 30
0.0
 10
5.042416
 20
38.036582
 30
0.0
  0
SPLINE
  5
150
100
AcDbEntity
  8
Layer_2
 62
7
100
AcDbSpline
 70
8
 71
3
 72
8
 73
4
 74
0
 40
0
 40
0
 40
0
 40
0
 40
1
 40
1
 40
1
 40
1
 10
5.042416
 20
38.036582
 30
0.0
 10
5.682996
 20
36.674827
 30
0.0
 10
4.821848
 20
36.400303
 30
0.0
 10
4.378512
 20
35.506660
 30
0.0
  0
SPLINE
  5
151
100
AcDbEntity
  8
Layer_2
 62
7
100
AcDbSpline
 70
8
 71
3
 72
8
 73
4
 74
0
 40
0
 40
0
 40
0
 40
0
 40
1
 40
1
 40
1
 40
1
 10
4.378512
 20
35.506660
 30
0.0
 10
3.624892
 20
33.987568
 30
0.0
 10
3.395298
 20
34.174093
 30
0.0
 10
3.669437
 20
32.255986
 30
0.0
  0
SPLINE
  5
152
100
AcDbEntity
  8
Layer_2
 62
7
100
AcDbSpline
 70
8
 71
3
 72
8
 73
4
 74
0
 40
0
 40
0
 40
0
 40
0
 40
1
 40
1
 40
1
 40
1
 10
3.669437
 20
32.255986
 30
0.0
 10
3.845696
 20
31.022750
 30
0.0
 10
5.158335
 20
28.593869
 30
0.0
 10
8.602084
 20
31.172676
 30
0.0
  0
SPLINE
  5
153
100
AcDbEntity
  8
Layer_2
 62
7
100
AcDbSpline
 70
8
 71
3
 72
8
 73
4
 74
0
 40
0
 40
0
 40
0
 40
0
 40
1
 40
1
 40
1
 40
1
 10
8.602084
 20
31.172676
 30
0.0
 10
9.376515
 20
31.752597
 30
0.0
 10
10.135353
 20
33.732733
 30
0.0
 10
12.293339
 20
32.094792
 30
0.0
  0
SPLINE
  5
154
100
AcDbEntity
  8
Layer_2
 62
7
100
AcDbSpline
 70
8
 71
3
 72
8
 73
4
 74
0
 40
0
 40
0
 40
0
 40
0
 40
1
 40
1
 40
1
 40
1
 10
12.293339
 20
32.094792
 30
0.0
 10
13.188718
 20
31.415189
 30
0.0
 10
13.436212
 20
31.379614
 30
0.0
 10
14.075749
 20
31.195790
 30
0.0
  0
SPLINE
  5
155
100
AcDbEntity
  8
Layer_2
 62
7
100
AcDbSpline
 70
8
 71
3
 72
8
 73
4
 74
0
 40
0
 40
0
 40
0
 40
0
 40
1
 40
1
 40
1
 40
1
 10
14.075749
 20
31.195790
 30
0.0
 10
16.938470
 20
30.372961
 30
0.0
 10
21.163093
 20
29.206395
 30
0.0
 10
22.973318
 20
30.369240
 30
0.0
  0
SPLINE
  5
156
100
AcDbEntity
  8
Layer_2
 62
7
100
AcDbSpline
 70
8
 71
3
 72
8
 73
4
 74
0
 40
0
 40
0
 40
0
 40
0
 40
1
 40
1
 40
1
 40
1
 10
22.973318
 20
30.369240
 30
0.0
 10
23.829919
 20
30.919498
 30
0.0
 10
23.601384
 20
30.728694
 30
0.0
 10
24.217373
 20
30.616539
 30
0.0
  0
SPLINE
  5
157
100
AcDbEntity
  8
Layer_2
 62
7
100
AcDbSpline
 70
8
 71
3
 72
8
 73
4
 74
0
 40
0
 40
0
 40
0
 40
0
 40
1
 40
1
 40
1
 40
1
 10
24.217373
 20
30.616539
 30
0.0
 10
25.049085
 20
30.465110
 30
0.0
 10
24.435009
 20
30.058495
 30
0.0
 10
27.606420
 20
32.039148
 30
0.0
  0
SPLINE
  5
158
100
AcDbEntity
  8
Layer_2
 62
7
100
AcDbSpline
 70
8
 71
3
 72
8
 73
4
 74
0
 40
0
 40
0
 40
0
 40
0
 40
1
 40
1
 40
1
 40
1
 10
27.606420
 20
32.039148
 30
0.0
 10
28.266325
 20
32.451278
 30
0.0
 10
28.737296
 20
30.574873
 30
0.0
 10
29.436384
 20
30.106028
 30
0.0
  0
SPLINE
  5
159
100
AcDbEntity
  8
Layer_2
 62
7
100
AcDbSpline
 70
8
 71
3
 72
8
 73
4
 74
0
 40
0
 40
0
 40
0
 40
0
 40
1
 40
1
 40
1
 40
1
 10
29.436384
 20
30.106028
 30
0.0
 10
32.717200
 20
27.905744
 30
0.0
 10
32.659282
 20
24.760424
 30
0.0
 10
33.235492
 20
22.761535
 30
0.0
  0
SPLINE
  5
15a
100
AcDbEntity
  8
Layer_2
 62
7
100
AcDbSpline
 70
8
 71
3
 72
8
 73
4
 74
0
 40
0
 40
0
 40
0
 40
0
 40
1
 40
1
 40
1
 40
1
 10
33.235492
 20
22.761535
 30
0.0
 10
33.511294
 20
21.804766
 30
0.0
 10
35.107683
 20
21.589900
 30
0.0
 10
35.351563
 20
20.954245
 30
0.0
  0
SPLINE
  5
15b
100
AcDbEntity
  8
Layer_2
 62
7
100
AcDbSpline
 70
8
 71
3
 72
8
 73
4
 74
0
 40
0
 40
0
 40
0
 40
0
 40
1
 40
1
 40
1
 40
1
 10
35.351563
 20
20.954245
 30
0.0
 10
35.778172
 20
19.842320
 30
0.0
 10
36.657998
 20
18.284496
 30
0.0
 10
37.822683
 20
17.664518
 30
0.0
  0
SPLINE
  5
15c
100
AcDbEntity
  8
Layer_2
 62
7
100
AcDbSpline
 70
8
 71
3
 72
8
 73
4
 74
0
 40
0
 40
0
 40
0
 40
0
 40
1
 40
1
 40
1
 40
1
 10
37.822683
 20
17.664518
 30
0.0
 10
38.153741
 20
17.668179
 30
0.0
 10
38.234767
 20
17.888815
 30
0.0
 10
38.534549
 20
18.120651
 30
0.0
  0
SPLINE
  5
15d
100
AcDbEntity
  8
Layer_2
 62
7
100
AcDbSpline
 70
8
 71
3
 72
8
 73
4
 74
0
 40
0
 40
0
 40
0
 40
0
 40
1
 40
1
 40
1
 40
1
 10
38.534549
 20
18.120651
 30
0.0
 10
38.834330
 20
18.352483
 30
0.0
 10
39.352870
 20
18.595510
 30
0.0
 10
39.387071
 20
19.034555
 30
0.0
  0
SPLINE
  5
15e
100
AcDbEntity
  8
Layer_2
 62
7
100
AcDbSpline
 70
8
 71
3
 72
8
 73
4
 74
0
 40
0
 40
0
 40
0
 40
0
 40
1
 40
1
 40
1
 40
1
 10
39.387071
 20
19.034555
 30
0.0
 10
39.451728
 20
19.864542
 30
0.0
 10
41.546274
 20
21.993081
 30
0.0
 10
43.080358
 20
22.070316
 30
0.0
  0
SPLINE
  5
15f
100
AcDbEntity
  8
Layer_2
 62
7
100
AcDbSpline
 70
8
 71
3
 72
8
 73
4
 74
0
 40
0
 40
0
 40
0
 40
0
 40
1
 40
1
 40
1
 40
1
 10
43.080358
 20
22.070316
 30
0.0
 10
43.619643
 20
22.097452
 30
0.0
 10
43.813060
 20
22.604833
 30
0.0
 10
45.014994
 20
22.407665
 30
0.0
  0
SPLINE
  5
160
100
AcDbEntity
  8
Layer_2
 62
7
100
AcDbSpline
 70
8
 71
3
 72
8
 73
4
 74
0
 40
0
 40
0
 40
0
 40
0
 40
1
 40
1
 40
1
 40
1
 10
45.014994
 20
22.407665
 30
0.0
 10
46.159728
 20
22.219885
 30
0.0
 10
47.227657
 20
22.691697
 30
0.0
 10
49.421944
 20
22.332287
 30
0.0
  0
SPLINE
  5
161
100
AcDbEntity
  8
Layer_2
 62
7
100
AcDbSpline
 70
8
 71
3
 72
8
 73
4
 74
0
 40
0
 40
0
 40
0
 40
0
 40
1
 40
1
 40
1
 40
1
 10
49.421944
 20
22.332287
 30
0.0
 10
51.372006
 20
22.012879
 30
0.0
 10
50.904325
 20
22.037918
 30
0.0
 10
51.707974
 20
22.188441
 30
0.0
  0
SPLINE
  5
162
100
AcDbEntity
  8
Layer_2
 62
7
100
AcDbSpline
 70
8
 71
3
 72
8
 73
4
 74
0
 40
0
 40
0
 40
0
 40
0
 40
1
 40
1
 40
1
 40
1
 10
51.707974
 20
22.188441
 30
0.0
 10
52.243678
 20
22.288778
 30
0.0
 10
53.794911
 20
21.891293
 30
0.0
 10
54.414077
 20
21.584118
 30
0.0
  0
SPLINE
  5
163
100
AcDbEntity
  8
Layer_2
 62
7
100
AcDbSpline
 70
8
 71
3
 72
8
 73
4
 74
0
 40
0
 40
0
 40
0
 40
0
 40
1
 40
1
 40
1
 40
1
 10
54.414079
 20
21.584118
 30
0.0
 10
55.509052
 20
20.694778
 30
0.0
 10
57.936721
 20
19.778260
 30
0.0
 10
59.464842
 20
19.295493
 30
0.0
  0
SPLINE
  5
164
100
AcDbEntity
  8
Layer_2
 62
7
100
AcDbSpline
 70
8
 71
3
 72
8
 73
4
 74
0
 40
0
 40
0
 40
0
 40
0
 40
1
 40
1
 40
1
 40
1
 10
59.464842
 20
19.295493
 30
0.0
 10
60.552396
 20
18.951910
 30
0.0
 10
61.416181
 20
19.009306
 30
0.0
 10
62.394291
 20
18.636574
 30
0.0
  0
SPLINE
  5
165
100
AcDbEntity
  8
Layer_2
 62
7
100
AcDbSpline
 70
8
 71
3
 72
8
 73
4
 74
0
 40
0
 40
0
 40
0
 40
0
 40
1
 40
1
 40
1
 40
1
 10
62.394291
 20
18.636574
 30
0.0
 10
63.406780
 20
18.250737
 30
0.0
 10
64.835081
 20
18.168131
 30
0.0
 10
65.699377
 20
17.519839
 30
0.0
  0
SPLINE
  5
166
100
AcDbEntity
  8
Layer_2
 62
7
100
AcDbSpline
 70
8
 71
3
 72
8
 73
4
 74
0
 40
0
 40
0
 40
0
 40
0
 40
1
 40
1
 40
1
 40
1
 10
65.699377
 20
17.519839
 30
0.0
 10
67.204683
 20
16.390737
 30
0.0
 10
69.199064
 20
15.229784
 30
0.0
 10
70.102244
 20
15.152289
 30
0.0
  0
SPLINE
  5
167
100
AcDbEntity
  8
Layer_2
 62
7
100
AcDbSpline
 70
8
 71
3
 72
8
 73
4
 74
0
 40
0
 40
0
 40
0
 40
0
 40
1
 40
1
 40
1
 40
1
 10
70.102244
 20
15.152289
 30
0.0
 10
70.606075
 20
15.109061
 30
0.0
 10
70.914307
 20
14.473279
 30
0.0
 10
71.238044
 20
14.121500
 30
0.0
  0
SPLINE
  5
168
100
AcDbEntity
  8
Layer_2
 62
7
100
AcDbSpline
 70
8
 71
3
 72
8
 73
4
 74
0
 40
0
 40
0
 40
0
 40
0
 40
1
 40
1
 40
1
 40
1
 10
71.238044
 20
14.121500
 30
0.0
 10
71.552367
 20
13.779949
 30
0.0
 10
72.103957
 20
13.723091
 30
0.0
 10
72.367962
 20
13.416087
 30
0.0
  0
SPLINE
  5
169
100
AcDbEntity
  8
Layer_2
 62
7
100
AcDbSpline
 70
8
 71
3
 72
8
 73
4
 74
0
 40
0
 40
0
 40
0
 40
0
 40
1
 40
1
 40
1
 40
1
 10
72.367962
 20
13.416087
 30
0.0
 10
73.338332
 20
12.287673
 30
0.0
 10
75.039194
 20
11.796190
 30
0.0
 10
75.721984
 20
11.482595
 30
0.0
  0
SPLINE
  5
16a
100
AcDbEntity
  8
Layer_2
 62
7
100
AcDbSpline
 70
8
 71
3
 72
8
 73
4
 74
0
 40
0
 40
0
 40
0
 40
0
 40
1
 40
1
 40
1
 40
1
 10
75.721984
 20
11.482595
 30
0.0
 10
77.131840
 20
10.835074
 30
0.0
 10
77.174704
 20
8.614607
 30
0.0
 10
77.181970
 20
7.063182
 30
0.0
  0
SPLINE
  5
16b
100
AcDbEntity
  8
Layer_2
 62
7
100
AcDbSpline
 70
8
 71
3
 72
8
 73
4
 74
0
 40
0
 40
0
 40
0
 40
0
 40
1
 40
1
 40
1
 40
1
 10
77.181970
 20
7.063182
 30
0.0
 10
77.188438
 20
5.682190
 30
0.0
 10
76.995081
 20
4.170609
 30
0.0
 10
75.919279
 20
3.117270
 30
0.0
  0
LWPOLYLINE
  5
16c
100
AcDbEntity
  8
Layer_2
 62
7
100
AcDbPolyline
 90
2
 70
0
 10
134.598210
 20
41.350445
 30
0.0
 10
136.580442
 20
43.438395
 30
0.0
  0
SPLINE
  5
16d
100
AcDbEntity
  8
Layer_2
 62
7
100
AcDbSpline
 70
8
 71
3
 72
8
 73
4
 74
0
 40
0
 40
0
 40
0
 40
0
 40
1
 40
1
 40
1
 40
1
 10
72.486337
 20
17.963751
 30
0.0
 10
70.421301
 20
18.872196
 30
0.0
 10
68.376824
 20
19.840065
 30
0.0
 10
66.251803
 20
20.597642
 30
0.0
  0
SPLINE
  5
16e
100
AcDbEntity
  8
Layer_2
 62
7
100
AcDbSpline
 70
8
 71
3
 72
8
 73
4
 74
0
 40
0
 40
0
 40
0
 40
0
 40
1
 40
1
 40
1
 40
1
 10
66.251803
 20
20.597642
 30
0.0
 10
64.499304
 20
21.222413
 30
0.0
 10
62.666546
 20
21.537758
 30
0.0
 10
60.895648
 20
22.167968
 30
0.0
  0
SPLINE
  5
16f
100
AcDbEntity
  8
Layer_2
 62
7
100
AcDbSpline
 70
8
 71
3
 72
8
 73
4
 74
0
 40
0
 40
0
 40
0
 40
0
 40
1
 40
1
 40
1
 40
1
 10
60.895648
 20
22.167968
 30
0.0
 10
60.304787
 20
22.378239
 30
0.0
 10
58.825483
 20
22.622509
 30
0.0
 10
58.207943
 20
23.372048
 30
0.0
  0
SPLINE
  5
170
100
AcDbEntity
  8
Layer_2
 62
7
100
AcDbSpline
 70
8
 71
3
 72
8
 73
4
 74
0
 40
0
 40
0
 40
0
 40
0
 40
1
 40
1
 40
1
 40
1
 10
58.207943
 20
23.372048
 30
0.0
 10
57.273000
 20
24.506840
 30
0.0
 10
57.076559
 20
25.126747
 30
0.0
 10
56.835936
 20
25.432478
 30
0.0
  0
SPLINE
  5
171
100
AcDbEntity
  8
Layer_2
 62
7
100
AcDbSpline
 70
8
 71
3
 72
8
 73
4
 74
0
 40
0
 40
0
 40
0
 40
0
 40
1
 40
1
 40
1
 40
1
 10
56.835936
 20
25.432478
 30
0.0
 10
55.237344
 20
28.818726
 30
0.0
 10
54.332407
 20
28.946763
 30
0.0
 10
53.044388
 20
30.677314
 30
0.0
  0
SPLINE
  5
172
100
AcDbEntity
  8
Layer_2
 62
7
100
AcDbSpline
 70
8
 71
3
 72
8
 73
4
 74
0
 40
0
 40
0
 40
0
 40
0
 40
1
 40
1
 40
1
 40
1
 10
53.044388
 20
30.677314
 30
0.0
 10
52.601543
 20
31.272312
 30
0.0
 10
52.198323
 20
31.902436
 30
0.0
 10
51.691181
 20
32.443679
 30
0.0
  0
SPLINE
  5
173
100
AcDbEntity
  8
Layer_2
 62
7
100
AcDbSpline
 70
8
 71
3
 72
8
 73
4
 74
0
 40
0
 40
0
 40
0
 40
0
 40
1
 40
1
 40
1
 40
1
 10
51.691181
 20
32.443679
 30
0.0
 10
49.666757
 20
34.604231
 30
0.0
 10
47.271110
 20
37.021975
 30
0.0
 10
49.609373
 20
37.611607
 30
0.0
  0
SPLINE
  5
174
100
AcDbEntity
  8
Layer_2
 62
7
100
AcDbSpline
 70
8
 71
3
 72
8
 73
4
 74
0
 40
0
 40
0
 40
0
 40
0
 40
1
 40
1
 40
1
 40
1
 10
49.609373
 20
37.611607
 30
0.0
 10
50.621752
 20
37.866897
 30
0.0
 10
51.724530
 20
38.206794
 30
0.0
 10
52.427454
 20
38.978795
 30
0.0
  0
SPLINE
  5
175
100
AcDbEntity
  8
Layer_2
 62
7
100
AcDbSpline
 70
8
 71
3
 72
8
 73
4
 74
0
 40
0
 40
0
 40
0
 40
0
 40
1
 40
1
 40
1
 40
1
 10
52.427454
 20
38.978795
 30
0.0
 10
52.972344
 20
39.577230
 30
0.0
 10
53.304467
 20
40.380702
 30
0.0
 10
53.278459
 20
41.252792
 30
0.0
  0
LWPOLYLINE
  5
176
100
AcDbEntity
  8
Layer_2
 62
7
100
AcDbPolyline
 90
2
 70
0
 10
75.919279
 20
3.117270
 30
0.0
 10
89.334839
 20
3.117270
 30
0.0
  0
SPLINE
  5
177
100
AcDbEntity
  8
Layer_2
 62
7
100
AcDbSpline
 70
8
 71
3
 72
8
 73
4
 74
0
 40
0
 40
0
 40
0
 40
0
 40
1
 40
1
 40
1
 40
1
 10
53.278459
 20
41.252792
 30
0.0
 10
53.278459
 20
41.252792
 30
0.0
 10
53.730984
 20
42.837371
 30
0.0
 10
54.502861
 20
43.059726
 30
0.0
  0
SPLINE
  5
178
100
AcDbEntity
  8
Layer_2
 62
7
100
AcDbSpline
 70
8
 71
3
 72
8
 73
4
 74
0
 40
0
 40
0
 40
0
 40
0
 40
1
 40
1
 40
1
 40
1
 10
54.502861
 20
43.059726
 30
0.0
 10
55.241407
 20
43.272477
 30
0.0
 10
55.911372
 20
42.540950
 30
0.0
 10
56.594191
 20
42.231085
 30
0.0
  0
SPLINE
  5
179
100
AcDbEntity
  8
Layer_2
 62
7
100
AcDbSpline
 70
8
 71
3
 72
8
 73
4
 74
0
 40
0
 40
0
 40
0
 40
0
 40
1
 40
1
 40
1
 40
1
 10
56.594191
 20
42.231085
 30
0.0
 10
57.771792
 20
41.696686
 30
0.0
 10
58.782550
 20
40.523007
 30
0.0
 10
60.044643
 20
40.457589
 30
0.0
  0
SPLINE
  5
17a
100
AcDbEntity
  8
Layer_2
 62
7
100
AcDbSpline
 70
8
 71
3
 72
8
 73
4
 74
0
 40
0
 40
0
 40
0
 40
0
 40
1
 40
1
 40
1
 40
1
 10
60.044643
 20
40.457589
 30
0.0
 10
61.208354
 20
40.397270
 30
0.0
 10
62.622733
 20
40.622840
 30
0.0
 10
64.257812
 20
39.815849
 30
0.0
  0
SPLINE
  5
17b
100
AcDbEntity
  8
Layer_2
 62
7
100
AcDbSpline
 70
8
 71
3
 72
8
 73
4
 74
0
 40
0
 40
0
 40
0
 40
0
 40
1
 40
1
 40
1
 40
1
 10
64.257812
 20
39.815849
 30
0.0
 10
65.434379
 20
39.235157
 30
0.0
 10
66.344162
 20
38.683470
 30
0.0
 10
66.768972
 20
37.583707
 30
0.0
  0
SPLINE
  5
17c
100
AcDbEntity
  8
Layer_2
 62
7
100
AcDbSpline
 70
8
 71
3
 72
8
 73
4
 74
0
 40
0
 40
0
 40
0
 40
0
 40
1
 40
1
 40
1
 40
1
 10
66.768972
 20
37.583707
 30
0.0
 10
67.109236
 20
36.702820
 30
0.0
 10
68.037544
 20
36.178511
 30
0.0
 10
68.582590
 20
35.407366
 30
0.0
  0
SPLINE
  5
17d
100
AcDbEntity
  8
Layer_2
 62
7
100
AcDbSpline
 70
8
 71
3
 72
8
 73
4
 74
0
 40
0
 40
0
 40
0
 40
0
 40
1
 40
1
 40
1
 40
1
 10
68.582590
 20
35.407366
 30
0.0
 10
68.982148
 20
34.842061
 30
0.0
 10
69.287050
 20
34.215469
 30
0.0
 10
69.642857
 20
33.621652
 30
0.0
  0
SPLINE
  5
17e
100
AcDbEntity
  8
Layer_2
 62
7
100
AcDbSpline
 70
8
 71
3
 72
8
 73
4
 74
0
 40
0
 40
0
 40
0
 40
0
 40
1
 40
1
 40
1
 40
1
 10
69.642857
 20
33.621652
 30
0.0
 10
69.883066
 20
33.220759
 30
0.0
 10
69.944643
 20
32.619173
 30
0.0
 10
70.368304
 20
32.421876
 30
0.0
  0
SPLINE
  5
17f
100
AcDbEntity
  8
Layer_2
 62
7
100
AcDbSpline
 70
8
 71
3
 72
8
 73
4
 74
0
 40
0
 40
0
 40
0
 40
0
 40
1
 40
1
 40
1
 40
1
 10
70.368304
 20
32.421876
 30
0.0
 10
70.751318
 20
32.043203
 30
0.0
 10
73.695216
 20
33.342637
 30
0.0
 10
75.892858
 20
33.286833
 30
0.0
  0
SPLINE
  5
180
100
AcDbEntity
  8
Layer_2
 62
7
100
AcDbSpline
 70
8
 71
3
 72
8
 73
4
 74
0
 40
0
 40
0
 40
0
 40
0
 40
1
 40
1
 40
1
 40
1
 10
75.892858
 20
33.286833
 30
0.0
 10
76.655029
 20
31.885936
 30
0.0
 10
76.814646
 20
29.661749
 30
0.0
 10
78.207907
 20
28.588106
 30
0.0
  0
SPLINE
  5
181
100
AcDbEntity
  8
Layer_2
 62
7
100
AcDbSpline
 70
8
 71
3
 72
8
 73
4
 74
0
 40
0
 40
0
 40
0
 40
0
 40
1
 40
1
 40
1
 40
1
 10
78.207907
 20
28.588106
 30
0.0
 10
79.657178
 20
27.471303
 30
0.0
 10
79.919844
 20
25.272100
 30
0.0
 10
80.161125
 20
23.458425
 30
0.0
  0
SPLINE
  5
182
100
AcDbEntity
  8
Layer_2
 62
7
100
AcDbSpline
 70
8
 71
3
 72
8
 73
4
 74
0
 40
0
 40
0
 40
0
 40
0
 40
1
 40
1
 40
1
 40
1
 10
80.161125
 20
23.458425
 30
0.0
 10
80.397316
 20
21.683007
 30
0.0
 10
80.173497
 20
19.817828
 30
0.0
 10
79.628430
 20
18.111720
 30
0.0
  0
SPLINE
  5
183
100
AcDbEntity
  8
Layer_2
 62
7
100
AcDbSpline
 70
8
 71
3
 72
8
 73
4
 74
0
 40
0
 40
0
 40
0
 40
0
 40
1
 40
1
 40
1
 40
1
 10
79.628430
 20
18.111720
 30
0.0
 10
79.434803
 20
17.505640
 30
0.0
 10
79.117790
 20
16.917472
 30
0.0
 10
78.681414
 20
16.454438
 30
0.0
  0
SPLINE
  5
184
100
AcDbEntity
  8
Layer_2
 62
7
100
AcDbSpline
 70
8
 71
3
 72
8
 73
4
 74
0
 40
0
 40
0
 40
0
 40
0
 40
1
 40
1
 40
1
 40
1
 10
78.681414
 20
16.454438
 30
0.0
 10
78.355518
 20
16.108632
 30
0.0
 10
77.487774
 20
15.675117
 30
0.0
 10
77.487774
 20
15.675117
 30
0.0
  0
SPLINE
  5
185
100
AcDbEntity
  8
Layer_2
 62
7
100
AcDbSpline
 70
8
 71
3
 72
8
 73
4
 74
0
 40
0
 40
0
 40
0
 40
0
 40
1
 40
1
 40
1
 40
1
 10
77.487774
 20
15.675117
 30
0.0
 10
75.356312
 20
15.727862
 30
0.0
 10
74.164527
 20
17.225485
 30
0.0
 10
72.486337
 20
17.963751
 30
0.0
  0
LWPOLYLINE
  5
186
100
AcDbEntity
  8
Layer_2
 62
7
100
AcDbPolyline
 90
1
 70
1
 10
53.278459
 20
41.252792
 30
0.0
  0
SPLINE
  5
187
100
AcDbEntity
  8
Layer_2
 62
7
100
AcDbSpline
 70
8
 71
3
 72
8
 73
4
 74
0
 40
0
 40
0
 40
0
 40
0
 40
1
 40
1
 40
1
 40
1
 10
46.443340
 20
36.381277
 30
0.0
 10
46.443340
 20
36.381277
 30
0.0
 10
47.447927
 20
35.029662
 30
0.0
 10
47.977119
 20
34.375000
 30
0.0
  0
SPLINE
  5
188
100
AcDbEntity
  8
Layer_2
 62
7
100
AcDbSpline
 70
8
 71
3
 72
8
 73
4
 74
0
 40
0
 40
0
 40
0
 40
0
 40
1
 40
1
 40
1
 40
1
 10
47.977119
 20
34.375000
 30
0.0
 10
48.715297
 20
33.461807
 30
0.0
 10
49.521296
 20
32.605074
 30
0.0
 10
50.265068
 20
31.696431
 30
0.0
  0
SPLINE
  5
189
100
AcDbEntity
  8
Layer_2
 62
7
100
AcDbSpline
 70
8
 71
3
 72
8
 73
4
 74
0
 40
0
 40
0
 40
0
 40
0
 40
1
 40
1
 40
1
 40
1
 10
50.265068
 20
31.696431
 30
0.0
 10
51.114759
 20
30.658390
 30
0.0
 10
52.058980
 20
29.680363
 30
0.0
 10
52.748324
 20
28.529577
 30
0.0
  0
SPLINE
  5
18a
100
AcDbEntity
  8
Layer_2
 62
7
100
AcDbSpline
 70
8
 71
3
 72
8
 73
4
 74
0
 40
0
 40
0
 40
0
 40
0
 40
1
 40
1
 40
1
 40
1
 10
52.748324
 20
28.529577
 30
0.0
 10
53.218184
 20
27.745195
 30
0.0
 10
53.918067
 20
27.128810
 30
0.0
 10
54.520090
 20
26.381140
 30
0.0
  0
SPLINE
  5
18b
100
AcDbEntity
  8
Layer_2
 62
7
100
AcDbSpline
 70
8
 71
3
 72
8
 73
4
 74
0
 40
0
 40
0
 40
0
 40
0
 40
1
 40
1
 40
1
 40
1
 10
54.520090
 20
26.381140
 30
0.0
 10
55.128426
 20
25.625630
 30
0.0
 10
55.548458
 20
24.472124
 30
0.0
 10
55.795143
 20
23.517616
 30
0.0
  0
SPLINE
  5
18c
100
AcDbEntity
  8
Layer_2
 62
7
100
AcDbSpline
 70
8
 71
3
 72
8
 73
4
 74
0
 40
0
 40
0
 40
0
 40
0
 40
1
 40
1
 40
1
 40
1
 10
55.795143
 20
23.517616
 30
0.0
 10
55.058903
 20
24.210897
 30
0.0
 10
52.087669
 20
24.531525
 30
0.0
 10
50.191955
 20
24.819764
 30
0.0
  0
SPLINE
  5
18d
100
AcDbEntity
  8
Layer_2
 62
7
100
AcDbSpline
 70
8
 71
3
 72
8
 73
4
 74
0
 40
0
 40
0
 40
0
 40
0
 40
1
 40
1
 40
1
 40
1
 10
50.191955
 20
24.819764
 30
0.0
 10
46.089833
 20
25.443483
 30
0.0
 10
42.754896
 20
24.911665
 30
0.0
 10
41.826629
 20
24.425172
 30
0.0
  0
SPLINE
  5
18e
100
AcDbEntity
  8
Layer_2
 62
7
100
AcDbSpline
 70
8
 71
3
 72
8
 73
4
 74
0
 40
0
 40
0
 40
0
 40
0
 40
1
 40
1
 40
1
 40
1
 10
41.826629
 20
24.425172
 30
0.0
 10
41.566179
 20
24.288672
 30
0.0
 10
40.605745
 20
23.767762
 30
0.0
 10
40.248266
 20
23.517616
 30
0.0
  0
SPLINE
  5
18f
100
AcDbEntity
  8
Layer_2
 62
7
100
AcDbSpline
 70
8
 71
3
 72
8
 73
4
 74
0
 40
0
 40
0
 40
0
 40
0
 40
1
 40
1
 40
1
 40
1
 10
40.248266
 20
23.517616
 30
0.0
 10
39.907557
 20
23.279205
 30
0.0
 10
38.448594
 20
22.652884
 30
0.0
 10
37.762344
 20
20.952776
 30
0.0
  0
SPLINE
  5
190
100
AcDbEntity
  8
Layer_2
 62
7
100
AcDbSpline
 70
8
 71
3
 72
8
 73
4
 74
0
 40
0
 40
0
 40
0
 40
0
 40
1
 40
1
 40
1
 40
1
 10
37.762344
 20
20.952776
 30
0.0
 10
37.609979
 20
21.033575
 30
0.0
 10
36.162954
 20
22.647445
 30
0.0
 10
35.772904
 20
23.276577
 30
0.0
  0
SPLINE
  5
191
100
AcDbEntity
  8
Layer_2
 62
7
100
AcDbSpline
 70
8
 71
3
 72
8
 73
4
 74
0
 40
0
 40
0
 40
0
 40
0
 40
1
 40
1
 40
1
 40
1
 10
35.772904
 20
23.276577
 30
0.0
 10
35.306862
 20
24.028278
 30
0.0
 10
35.746063
 20
23.715377
 30
0.0
 10
35.118585
 20
25.293274
 30
0.0
  0
SPLINE
  5
192
100
AcDbEntity
  8
Layer_2
 62
7
100
AcDbSpline
 70
8
 71
3
 72
8
 73
4
 74
0
 40
0
 40
0
 40
0
 40
0
 40
1
 40
1
 40
1
 40
1
 10
35.118585
 20
25.293274
 30
0.0
 10
34.723642
 20
26.286410
 30
0.0
 10
34.163519
 20
27.476748
 30
0.0
 10
33.698058
 20
28.568379
 30
0.0
  0
SPLINE
  5
193
100
AcDbEntity
  8
Layer_2
 62
7
100
AcDbSpline
 70
8
 71
3
 72
8
 73
4
 74
0
 40
0
 40
0
 40
0
 40
0
 40
1
 40
1
 40
1
 40
1
 10
33.698058
 20
28.568379
 30
0.0
 10
33.574577
 20
28.857979
 30
0.0
 10
33.798113
 20
29.855642
 30
0.0
 10
34.100436
 20
30.454626
 30
0.0
  0
SPLINE
  5
194
100
AcDbEntity
  8
Layer_2
 62
7
100
AcDbSpline
 70
8
 71
3
 72
8
 73
4
 74
0
 40
0
 40
0
 40
0
 40
0
 40
1
 40
1
 40
1
 40
1
 10
34.100436
 20
30.454626
 30
0.0
 10
34.112602
 20
30.478721
 30
0.0
 10
35.313694
 20
32.650848
 30
0.0
 10
35.749929
 20
32.908877
 30
0.0
  0
SPLINE
  5
195
100
AcDbEntity
  8
Layer_2
 62
7
100
AcDbSpline
 70
8
 71
3
 72
8
 73
4
 74
0
 40
0
 40
0
 40
0
 40
0
 40
1
 40
1
 40
1
 40
1
 10
35.749929
 20
32.908877
 30
0.0
 10
36.796500
 20
33.917199
 30
0.0
 10
37.341671
 20
33.755577
 30
0.0
 10
37.762344
 20
33.303469
 30
0.0
  0
SPLINE
  5
196
100
AcDbEntity
  8
Layer_2
 62
7
100
AcDbSpline
 70
8
 71
3
 72
8
 73
4
 74
0
 40
0
 40
0
 40
0
 40
0
 40
1
 40
1
 40
1
 40
1
 10
37.762344
 20
33.303469
 30
0.0
 10
38.566934
 20
32.693376
 30
0.0
 10
38.693868
 20
32.510090
 30
0.0
 10
40.840152
 20
33.264011
 30
0.0
  0
SPLINE
  5
197
100
AcDbEntity
  8
Layer_2
 62
7
100
AcDbSpline
 70
8
 71
3
 72
8
 73
4
 74
0
 40
0
 40
0
 40
0
 40
0
 40
1
 40
1
 40
1
 40
1
 10
40.840152
 20
33.264011
 30
0.0
 10
42.021402
 20
33.780578
 30
0.0
 10
42.981440
 20
35.050024
 30
0.0
 10
43.681205
 20
36.775868
 30
0.0
  0
SPLINE
  5
198
100
AcDbEntity
  8
Layer_2
 62
7
100
AcDbSpline
 70
8
 71
3
 72
8
 73
4
 74
0
 40
0
 40
0
 40
0
 40
0
 40
1
 40
1
 40
1
 40
1
 10
43.681205
 20
36.775868
 30
0.0
 10
44.918617
 20
37.594434
 30
0.0
 10
45.593383
 20
36.725072
 30
0.0
 10
46.443340
 20
36.381277
 30
0.0
  0
SPLINE
  5
199
100
AcDbEntity
  8
Layer_2
 62
7
100
AcDbSpline
 70
8
 71
3
 72
8
 73
4
 74
0
 40
0
 40
0
 40
0
 40
0
 40
1
 40
1
 40
1
 40
1
 10
80.636166
 20
32.338170
 30
0.0
 10
79.902101
 20
33.789063
 30
0.0
 10
79.396322
 20
35.239956
 30
0.0
 10
78.794643
 20
36.690848
 30
0.0
  0
SPLINE
  5
19a
100
AcDbEntity
  8
Layer_2
 62
7
100
AcDbSpline
 70
8
 71
3
 72
8
 73
4
 74
0
 40
0
 40
0
 40
0
 40
0
 40
1
 40
1
 40
1
 40
1
 10
78.794643
 20
36.690848
 30
0.0
 10
78.316988
 20
37.796540
 30
0.0
 10
78.442737
 20
38.675957
 30
0.0
 10
78.543526
 20
39.564733
 30
0.0
  0
SPLINE
  5
19b
100
AcDbEntity
  8
Layer_2
 62
7
100
AcDbSpline
 70
8
 71
3
 72
8
 73
4
 74
0
 40
0
 40
0
 40
0
 40
0
 40
1
 40
1
 40
1
 40
1
 10
78.543526
 20
39.564733
 30
0.0
 10
78.888115
 20
39.759066
 30
0.0
 10
79.457955
 20
39.320856
 30
0.0
 10
80.220323
 20
39.320977
 30
0.0
  0
SPLINE
  5
19c
100
AcDbEntity
  8
Layer_2
 62
7
100
AcDbSpline
 70
8
 71
3
 72
8
 73
4
 74
0
 40
0
 40
0
 40
0
 40
0
 40
1
 40
1
 40
1
 40
1
 10
80.220323
 20
39.320977
 30
0.0
 10
80.717310
 20
39.321057
 30
0.0
 10
81.003606
 20
40.097463
 30
0.0
 10
81.542198
 20
40.563940
 30
0.0
  0
SPLINE
  5
19d
100
AcDbEntity
  8
Layer_2
 62
7
100
AcDbSpline
 70
8
 71
3
 72
8
 73
4
 74
0
 40
0
 40
0
 40
0
 40
0
 40
1
 40
1
 40
1
 40
1
 10
81.542198
 20
40.563940
 30
0.0
 10
82.023669
 20
40.980943
 30
0.0
 10
82.277939
 20
41.488380
 30
0.0
 10
83.791370
 20
41.254471
 30
0.0
  0
SPLINE
  5
19e
100
AcDbEntity
  8
Layer_2
 62
7
100
AcDbSpline
 70
8
 71
3
 72
8
 73
4
 74
0
 40
0
 40
0
 40
0
 40
0
 40
1
 40
1
 40
1
 40
1
 10
83.791370
 20
41.254471
 30
0.0
 10
84.273286
 20
41.179988
 30
0.0
 10
84.764437
 20
41.239530
 30
0.0
 10
85.350002
 20
41.471499
 30
0.0
  0
SPLINE
  5
19f
100
AcDbEntity
  8
Layer_2
 62
7
100
AcDbSpline
 70
8
 71
3
 72
8
 73
4
 74
0
 40
0
 40
0
 40
0
 40
0
 40
1
 40
1
 40
1
 40
1
 10
85.350002
 20
41.471499
 30
0.0
 10
85.646277
 20
41.588865
 30
0.0
 10
85.453271
 20
41.541143
 30
0.0
 10
86.328127
 20
41.713170
 30
0.0
  0
SPLINE
  5
1a0
100
AcDbEntity
  8
Layer_2
 62
7
100
AcDbSpline
 70
8
 71
3
 72
8
 73
4
 74
0
 40
0
 40
0
 40
0
 40
0
 40
1
 40
1
 40
1
 40
1
 10
86.328127
 20
41.713170
 30
0.0
 10
86.262754
 20
40.482320
 30
0.0
 10
86.346951
 20
39.214079
 30
0.0
 10
87.165119
 20
37.762344
 30
0.0
  0
SPLINE
  5
1a1
100
AcDbEntity
  8
Layer_2
 62
7
100
AcDbSpline
 70
8
 71
3
 72
8
 73
4
 74
0
 40
0
 40
0
 40
0
 40
0
 40
1
 40
1
 40
1
 40
1
 10
87.165119
 20
37.762344
 30
0.0
 10
87.162462
 20
36.644337
 30
0.0
 10
87.484588
 20
35.526329
 30
0.0
 10
87.086197
 20
34.408321
 30
0.0
  0
SPLINE
  5
1a2
100
AcDbEntity
  8
Layer_2
 62
7
100
AcDbSpline
 70
8
 71
3
 72
8
 73
4
 74
0
 40
0
 40
0
 40
0
 40
0
 40
1
 40
1
 40
1
 40
1
 10
87.086197
 20
34.408321
 30
0.0
 10
86.109813
 20
32.962533
 30
0.0
 10
85.323022
 20
31.289233
 30
0.0
 10
84.718659
 20
29.397019
 30
0.0
  0
SPLINE
  5
1a3
100
AcDbEntity
  8
Layer_2
 62
7
100
AcDbSpline
 70
8
 71
3
 72
8
 73
4
 74
0
 40
0
 40
0
 40
0
 40
0
 40
1
 40
1
 40
1
 40
1
 10
84.718659
 20
29.397019
 30
0.0
 10
84.250488
 20
27.655090
 30
0.0
 10
83.635117
 20
26.796361
 30
0.0
 10
83.021916
 20
25.924619
 30
0.0
  0
SPLINE
  5
1a4
100
AcDbEntity
  8
Layer_2
 62
7
100
AcDbSpline
 70
8
 71
3
 72
8
 73
4
 74
0
 40
0
 40
0
 40
0
 40
0
 40
1
 40
1
 40
1
 40
1
 10
83.021916
 20
25.924619
 30
0.0
 10
82.434828
 20
28.062470
 30
0.0
 10
81.594097
 20
30.200319
 30
0.0
 10
80.636166
 20
32.338170
 30
0.0
  0
LWPOLYLINE
  5
1a5
100
AcDbEntity
  8
Layer_2
 62
7
100
AcDbPolyline
 90
1
 70
1
 10
72.486337
 20
17.963751
 30
0.0
  0
SPLINE
  5
1a6
100
AcDbEntity
  8
Layer_2
 62
7
100
AcDbSpline
 70
8
 71
3
 72
8
 73
4
 74
0
 40
0
 40
0
 40
0
 40
0
 40
1
 40
1
 40
1
 40
1
 10
86.077010
 20
19.866072
 30
0.0
 10
85.484120
 20
20.781287
 30
0.0
 10
85.444386
 20
21.092189
 30
0.0
 10
85.100448
 20
21.512275
 30
0.0
  0
SPLINE
  5
1a7
100
AcDbEntity
  8
Layer_2
 62
7
100
AcDbSpline
 70
8
 71
3
 72
8
 73
4
 74
0
 40
0
 40
0
 40
0
 40
0
 40
1
 40
1
 40
1
 40
1
 10
85.100448
 20
21.512275
 30
0.0
 10
84.605497
 20
22.284225
 30
0.0
 10
84.882022
 20
23.056176
 30
0.0
 10
85.267861
 20
23.828127
 30
0.0
  0
SPLINE
  5
1a8
100
AcDbEntity
  8
Layer_2
 62
7
100
AcDbSpline
 70
8
 71
3
 72
8
 73
4
 74
0
 40
0
 40
0
 40
0
 40
0
 40
1
 40
1
 40
1
 40
1
 10
85.267861
 20
23.828127
 30
0.0
 10
85.788695
 20
25.179597
 30
0.0
 10
86.309528
 20
25.699876
 30
0.0
 10
86.830362
 20
28.041296
 30
0.0
  0
SPLINE
  5
1a9
100
AcDbEntity
  8
Layer_2
 62
7
100
AcDbSpline
 70
8
 71
3
 72
8
 73
4
 74
0
 40
0
 40
0
 40
0
 40
0
 40
1
 40
1
 40
1
 40
1
 10
86.830362
 20
28.041296
 30
0.0
 10
87.123802
 20
29.613999
 30
0.0
 10
87.541452
 20
30.607052
 30
0.0
 10
88.058041
 20
31.138395
 30
0.0
  0
SPLINE
  5
1aa
100
AcDbEntity
  8
Layer_2
 62
7
100
AcDbSpline
 70
8
 71
3
 72
8
 73
4
 74
0
 40
0
 40
0
 40
0
 40
0
 40
1
 40
1
 40
1
 40
1
 10
88.058041
 20
31.138395
 30
0.0
 10
88.550971
 20
31.666046
 30
0.0
 10
89.043901
 20
31.897640
 30
0.0
 10
89.536830
 20
33.258931
 30
0.0
  0
SPLINE
  5
1ab
100
AcDbEntity
  8
Layer_2
 62
7
100
AcDbSpline
 70
8
 71
3
 72
8
 73
4
 74
0
 40
0
 40
0
 40
0
 40
0
 40
1
 40
1
 40
1
 40
1
 10
89.536830
 20
33.258931
 30
0.0
 10
89.848388
 20
33.284266
 30
0.0
 10
90.054576
 20
33.488496
 30
0.0
 10
90.513393
 20
33.621653
 30
0.0
  0
SPLINE
  5
1ac
100
AcDbEntity
  8
Layer_2
 62
7
100
AcDbSpline
 70
8
 71
3
 72
8
 73
4
 74
0
 40
0
 40
0
 40
0
 40
0
 40
1
 40
1
 40
1
 40
1
 10
90.513393
 20
33.621653
 30
0.0
 10
91.470168
 20
33.757956
 30
0.0
 10
91.652047
 20
33.988439
 30
0.0
 10
92.187503
 20
34.598215
 30
0.0
  0
SPLINE
  5
1ad
100
AcDbEntity
  8
Layer_2
 62
7
100
AcDbSpline
 70
8
 71
3
 72
8
 73
4
 74
0
 40
0
 40
0
 40
0
 40
0
 40
1
 40
1
 40
1
 40
1
 10
92.187503
 20
34.598215
 30
0.0
 10
92.883276
 20
35.305507
 30
0.0
 10
93.518526
 20
35.710176
 30
0.0
 10
94.140628
 20
36.049108
 30
0.0
  0
SPLINE
  5
1ae
100
AcDbEntity
  8
Layer_2
 62
7
100
AcDbSpline
 70
8
 71
3
 72
8
 73
4
 74
0
 40
0
 40
0
 40
0
 40
0
 40
1
 40
1
 40
1
 40
1
 10
94.140628
 20
36.049108
 30
0.0
 10
94.171948
 20
36.138591
 30
0.0
 10
95.159881
 20
33.344703
 30
0.0
 10
94.168525
 20
30.273438
 30
0.0
  0
SPLINE
  5
1af
100
AcDbEntity
  8
Layer_2
 62
7
100
AcDbSpline
 70
8
 71
3
 72
8
 73
4
 74
0
 40
0
 40
0
 40
0
 40
0
 40
1
 40
1
 40
1
 40
1
 10
94.168525
 20
30.273438
 30
0.0
 10
93.975180
 20
29.674445
 30
0.0
 10
93.378350
 20
29.279469
 30
0.0
 10
93.108260
 20
28.710940
 30
0.0
  0
SPLINE
  5
1b0
100
AcDbEntity
  8
Layer_2
 62
7
100
AcDbSpline
 70
8
 71
3
 72
8
 73
4
 74
0
 40
0
 40
0
 40
0
 40
0
 40
1
 40
1
 40
1
 40
1
 10
93.108260
 20
28.710940
 30
0.0
 10
92.802191
 20
28.066678
 30
0.0
 10
93.015554
 20
27.596091
 30
0.0
 10
91.657369
 20
26.562500
 30
0.0
  0
SPLINE
  5
1b1
100
AcDbEntity
  8
Layer_2
 62
7
100
AcDbSpline
 70
8
 71
3
 72
8
 73
4
 74
0
 40
0
 40
0
 40
0
 40
0
 40
1
 40
1
 40
1
 40
1
 10
91.657369
 20
26.562500
 30
0.0
 10
91.125668
 20
26.157869
 30
0.0
 10
90.705683
 20
25.595047
 30
0.0
 10
90.401791
 20
25.000002
 30
0.0
  0
SPLINE
  5
1b2
100
AcDbEntity
  8
Layer_2
 62
7
100
AcDbSpline
 70
8
 71
3
 72
8
 73
4
 74
0
 40
0
 40
0
 40
0
 40
0
 40
1
 40
1
 40
1
 40
1
 10
90.401791
 20
25.000002
 30
0.0
 10
89.919635
 20
24.055900
 30
0.0
 10
89.374285
 20
23.474475
 30
0.0
 10
88.811385
 20
23.130583
 30
0.0
  0
SPLINE
  5
1b3
100
AcDbEntity
  8
Layer_2
 62
7
100
AcDbSpline
 70
8
 71
3
 72
8
 73
4
 74
0
 40
0
 40
0
 40
0
 40
0
 40
1
 40
1
 40
1
 40
1
 10
88.811385
 20
23.130583
 30
0.0
 10
87.600087
 20
22.390563
 30
0.0
 10
86.077010
 20
19.866072
 30
0.0
 10
86.077010
 20
19.866072
 30
0.0
  0
SPLINE
  5
1b4
100
AcDbEntity
  8
Layer_2
 62
7
100
AcDbSpline
 70
8
 71
3
 72
8
 73
4
 74
0
 40
0
 40
0
 40
0
 40
0
 40
1
 40
1
 40
1
 40
1
 10
105.133928
 20
48.772322
 30
0.0
 10
105.133928
 20
48.772322
 30
0.0
 10
105.968983
 20
45.682233
 30
0.0
 10
105.747765
 20
44.140626
 30
0.0
  0
SPLINE
  5
1b5
100
AcDbEntity
  8
Layer_2
 62
7
100
AcDbSpline
 70
8
 71
3
 72
8
 73
4
 74
0
 40
0
 40
0
 40
0
 40
0
 40
1
 40
1
 40
1
 40
1
 10
105.747765
 20
44.140626
 30
0.0
 10
105.387682
 20
41.631286
 30
0.0
 10
103.765211
 20
40.274556
 30
0.0
 10
102.008929
 20
39.285714
 30
0.0
  0
SPLINE
  5
1b6
100
AcDbEntity
  8
Layer_2
 62
7
100
AcDbSpline
 70
8
 71
3
 72
8
 73
4
 74
0
 40
0
 40
0
 40
0
 40
0
 40
1
 40
1
 40
1
 40
1
 10
102.008929
 20
39.285714
 30
0.0
 10
100.411341
 20
38.386222
 30
0.0
 10
98.779533
 20
37.351954
 30
0.0
 10
96.861051
 20
36.174666
 30
0.0
  0
SPLINE
  5
1b7
100
AcDbEntity
  8
Layer_2
 62
7
100
AcDbSpline
 70
8
 71
3
 72
8
 73
4
 74
0
 40
0
 40
0
 40
0
 40
0
 40
1
 40
1
 40
1
 40
1
 10
96.861051
 20
36.174666
 30
0.0
 10
95.893317
 20
36.452668
 30
0.0
 10
95.903416
 20
37.853388
 30
0.0
 10
95.703124
 20
38.783482
 30
0.0
  0
SPLINE
  5
1b8
100
AcDbEntity
  8
Layer_2
 62
7
100
AcDbSpline
 70
8
 71
3
 72
8
 73
4
 74
0
 40
0
 40
0
 40
0
 40
0
 40
1
 40
1
 40
1
 40
1
 10
95.703124
 20
38.783482
 30
0.0
 10
95.341205
 20
40.464123
 30
0.0
 10
95.368813
 20
44.018722
 30
0.0
 10
95.647323
 20
43.917410
 30
0.0
  0
SPLINE
  5
1b9
100
AcDbEntity
  8
Layer_2
 62
7
100
AcDbSpline
 70
8
 71
3
 72
8
 73
4
 74
0
 40
0
 40
0
 40
0
 40
0
 40
1
 40
1
 40
1
 40
1
 10
95.647323
 20
43.917410
 30
0.0
 10
95.647323
 20
43.917410
 30
0.0
 10
97.239576
 20
45.671527
 30
0.0
 10
98.213661
 20
46.324966
 30
0.0
  0
SPLINE
  5
1ba
100
AcDbEntity
  8
Layer_2
 62
7
100
AcDbSpline
 70
8
 71
3
 72
8
 73
4
 74
0
 40
0
 40
0
 40
0
 40
0
 40
1
 40
1
 40
1
 40
1
 10
98.213661
 20
46.324966
 30
0.0
 10
99.318340
 20
47.066010
 30
0.0
 10
100.600548
 20
47.509440
 30
0.0
 10
101.843897
 20
47.982247
 30
0.0
  0
SPLINE
  5
1bb
100
AcDbEntity
  8
Layer_2
 62
7
100
AcDbSpline
 70
8
 71
3
 72
8
 73
4
 74
0
 40
0
 40
0
 40
0
 40
0
 40
1
 40
1
 40
1
 40
1
 10
101.843897
 20
47.982247
 30
0.0
 10
102.512770
 20
48.236598
 30
0.0
 10
103.196339
 20
48.462318
 30
0.0
 10
103.895767
 20
48.613591
 30
0.0
  0
SPLINE
  5
1bc
100
AcDbEntity
  8
Layer_2
 62
7
100
AcDbSpline
 70
8
 71
3
 72
8
 73
4
 74
0
 40
0
 40
0
 40
0
 40
0
 40
1
 40
1
 40
1
 40
1
 10
103.895767
 20
48.613591
 30
0.0
 10
104.302462
 20
48.701550
 30
0.0
 10
105.133928
 20
48.772322
 30
0.0
 10
105.133928
 20
48.772322
 30
0.0
  0
LWPOLYLINE
  5
1bd
100
AcDbEntity
  8
Layer_2
 62
7
100
AcDbPolyline
 90
1
 70
1
 10
80.636166
 20
32.338170
 30
0.0
  0
SPLINE
  5
1be
100
AcDbEntity
  8
Layer_2
 62
7
100
AcDbSpline
 70
8
 71
3
 72
8
 73
4
 74
0
 40
0
 40
0
 40
0
 40
0
 40
1
 40
1
 40
1
 40
1
 10
28.515625
 20
55.078127
 30
0.0
 10
28.899110
 20
54.385786
 30
0.0
 10
29.838470
 20
54.791022
 30
0.0
 10
30.859376
 20
52.678573
 30
0.0
  0
SPLINE
  5
1bf
100
AcDbEntity
  8
Layer_2
 62
7
100
AcDbSpline
 70
8
 71
3
 72
8
 73
4
 74
0
 40
0
 40
0
 40
0
 40
0
 40
1
 40
1
 40
1
 40
1
 10
30.859376
 20
52.678573
 30
0.0
 10
31.177418
 20
52.020486
 30
0.0
 10
32.501900
 20
52.683681
 30
0.0
 10
32.979910
 20
53.236608
 30
0.0
  0
SPLINE
  5
1c0
100
AcDbEntity
  8
Layer_2
 62
7
100
AcDbSpline
 70
8
 71
3
 72
8
 73
4
 74
0
 40
0
 40
0
 40
0
 40
0
 40
1
 40
1
 40
1
 40
1
 10
32.979910
 20
53.236608
 30
0.0
 10
34.286531
 20
54.748033
 30
0.0
 10
36.467513
 20
54.479589
 30
0.0
 10
37.779018
 20
54.352679
 30
0.0
  0
SPLINE
  5
1c1
100
AcDbEntity
  8
Layer_2
 62
7
100
AcDbSpline
 70
8
 71
3
 72
8
 73
4
 74
0
 40
0
 40
0
 40
0
 40
0
 40
1
 40
1
 40
1
 40
1
 10
37.779018
 20
54.352679
 30
0.0
 10
38.594980
 20
54.273723
 30
0.0
 10
38.500639
 20
56.392765
 30
0.0
 10
37.611606
 20
56.640625
 30
0.0
  0
SPLINE
  5
1c2
100
AcDbEntity
  8
Layer_2
 62
7
100
AcDbSpline
 70
8
 71
3
 72
8
 73
4
 74
0
 40
0
 40
0
 40
0
 40
0
 40
1
 40
1
 40
1
 40
1
 10
37.611606
 20
56.640625
 30
0.0
 10
35.179084
 20
57.318808
 30
0.0
 10
34.614278
 20
54.997402
 30
0.0
 10
33.161271
 20
55.217636
 30
0.0
  0
SPLINE
  5
1c3
100
AcDbEntity
  8
Layer_2
 62
7
100
AcDbSpline
 70
8
 71
3
 72
8
 73
4
 74
0
 40
0
 40
0
 40
0
 40
0
 40
1
 40
1
 40
1
 40
1
 10
33.161271
 20
55.217636
 30
0.0
 10
32.559594
 20
55.308832
 30
0.0
 10
31.817357
 20
55.576024
 30
0.0
 10
31.584821
 20
56.138394
 30
0.0
  0
SPLINE
  5
1c4
100
AcDbEntity
  8
Layer_2
 62
7
100
AcDbSpline
 70
8
 71
3
 72
8
 73
4
 74
0
 40
0
 40
0
 40
0
 40
0
 40
1
 40
1
 40
1
 40
1
 10
31.584821
 20
56.138394
 30
0.0
 10
31.055543
 20
57.418416
 30
0.0
 10
33.090588
 20
58.844716
 30
0.0
 10
32.645088
 20
60.156250
 30
0.0
  0
SPLINE
  5
1c5
100
AcDbEntity
  8
Layer_2
 62
7
100
AcDbSpline
 70
8
 71
3
 72
8
 73
4
 74
0
 40
0
 40
0
 40
0
 40
0
 40
1
 40
1
 40
1
 40
1
 10
32.645088
 20
60.156250
 30
0.0
 10
32.478753
 20
60.645938
 30
0.0
 10
31.855908
 20
61.379104
 30
0.0
 10
31.417412
 20
61.104911
 30
0.0
  0
SPLINE
  5
1c6
100
AcDbEntity
  8
Layer_2
 62
7
100
AcDbSpline
 70
8
 71
3
 72
8
 73
4
 74
0
 40
0
 40
0
 40
0
 40
0
 40
1
 40
1
 40
1
 40
1
 10
31.417412
 20
61.104911
 30
0.0
 10
29.538827
 20
59.930231
 30
0.0
 10
29.788279
 20
59.289909
 30
0.0
 10
28.906250
 20
58.091518
 30
0.0
  0
SPLINE
  5
1c7
100
AcDbEntity
  8
Layer_2
 62
7
100
AcDbSpline
 70
8
 71
3
 72
8
 73
4
 74
0
 40
0
 40
0
 40
0
 40
0
 40
1
 40
1
 40
1
 40
1
 10
28.906250
 20
58.091518
 30
0.0
 10
27.589072
 20
56.301903
 30
0.0
 10
28.029731
 20
55.955358
 30
0.0
 10
28.515625
 20
55.078127
 30
0.0
  0
LWPOLYLINE
  5
1c8
100
AcDbEntity
  8
Layer_2
 62
7
100
AcDbPolyline
 90
1
 70
1
 10
105.133928
 20
48.772322
 30
0.0
  0
SPLINE
  5
1c9
100
AcDbEntity
  8
Layer_2
 62
7
100
AcDbSpline
 70
8
 71
3
 72
8
 73
4
 74
0
 40
0
 40
0
 40
0
 40
0
 40
1
 40
1
 40
1
 40
1
 10
42.131696
 20
57.700895
 30
0.0
 10
41.458805
 20
56.811043
 30
0.0
 10
41.101905
 20
55.850713
 30
0.0
 10
40.513394
 20
55.133928
 30
0.0
  0
SPLINE
  5
1ca
100
AcDbEntity
  8
Layer_2
 62
7
100
AcDbSpline
 70
8
 71
3
 72
8
 73
4
 74
0
 40
0
 40
0
 40
0
 40
0
 40
1
 40
1
 40
1
 40
1
 10
40.513394
 20
55.133928
 30
0.0
 10
40.179688
 20
54.727487
 30
0.0
 10
40.022056
 20
53.196229
 30
0.0
 10
41.015625
 20
52.678573
 30
0.0
  0
SPLINE
  5
1cb
100
AcDbEntity
  8
Layer_2
 62
7
100
AcDbSpline
 70
8
 71
3
 72
8
 73
4
 74
0
 40
0
 40
0
 40
0
 40
0
 40
1
 40
1
 40
1
 40
1
 10
41.015625
 20
52.678573
 30
0.0
 10
42.737625
 20
51.781399
 30
0.0
 10
43.837654
 20
51.958095
 30
0.0
 10
44.548757
 20
52.215796
 30
0.0
  0
SPLINE
  5
1cc
100
AcDbEntity
  8
Layer_2
 62
7
100
AcDbSpline
 70
8
 71
3
 72
8
 73
4
 74
0
 40
0
 40
0
 40
0
 40
0
 40
1
 40
1
 40
1
 40
1
 10
44.548757
 20
52.215796
 30
0.0
 10
45.724362
 20
52.641838
 30
0.0
 10
46.365736
 20
53.986298
 30
0.0
 10
47.154018
 20
55.468750
 30
0.0
  0
SPLINE
  5
1cd
100
AcDbEntity
  8
Layer_2
 62
7
100
AcDbSpline
 70
8
 71
3
 72
8
 73
4
 74
0
 40
0
 40
0
 40
0
 40
0
 40
1
 40
1
 40
1
 40
1
 10
47.154018
 20
55.468750
 30
0.0
 10
47.563539
 20
56.238900
 30
0.0
 10
49.655451
 20
56.030595
 30
0.0
 10
50.223213
 20
57.087055
 30
0.0
  0
SPLINE
  5
1ce
100
AcDbEntity
  8
Layer_2
 62
7
100
AcDbSpline
 70
8
 71
3
 72
8
 73
4
 74
0
 40
0
 40
0
 40
0
 40
0
 40
1
 40
1
 40
1
 40
1
 10
50.223213
 20
57.087055
 30
0.0
 10
50.667913
 20
57.914527
 30
0.0
 10
50.683119
 20
59.717119
 30
0.0
 10
49.832590
 20
60.212054
 30
0.0
  0
SPLINE
  5
1cf
100
AcDbEntity
  8
Layer_2
 62
7
100
AcDbSpline
 70
8
 71
3
 72
8
 73
4
 74
0
 40
0
 40
0
 40
0
 40
0
 40
1
 40
1
 40
1
 40
1
 10
49.832590
 20
60.212054
 30
0.0
 10
48.775763
 20
60.827036
 30
0.0
 10
46.813117
 20
61.035117
 30
0.0
 10
45.758930
 20
60.825894
 30
0.0
  0
SPLINE
  5
1d0
100
AcDbEntity
  8
Layer_2
 62
7
100
AcDbSpline
 70
8
 71
3
 72
8
 73
4
 74
0
 40
0
 40
0
 40
0
 40
0
 40
1
 40
1
 40
1
 40
1
 10
45.758930
 20
60.825894
 30
0.0
 10
44.776861
 20
60.630982
 30
0.0
 10
43.953620
 20
60.110261
 30
0.0
 10
42.131696
 20
57.700895
 30
0.0
  0
LWPOLYLINE
  5
1d1
100
AcDbEntity
  8
Layer_2
 62
7
100
AcDbPolyline
 90
1
 70
1
 10
28.515625
 20
55.078127
 30
0.0
  0
SPLINE
  5
1d2
100
AcDbEntity
  8
Layer_2
 62
7
100
AcDbSpline
 70
8
 71
3
 72
8
 73
4
 74
0
 40
0
 40
0
 40
0
 40
0
 40
1
 40
1
 40
1
 40
1
 10
67.689733
 20
67.410714
 30
0.0
 10
66.858617
 20
67.891706
 30
0.0
 10
65.977294
 20
68.562102
 30
0.0
 10
65.680804
 20
69.475446
 30
0.0
  0
SPLINE
  5
1d3
100
AcDbEntity
  8
Layer_2
 62
7
100
AcDbSpline
 70
8
 71
3
 72
8
 73
4
 74
0
 40
0
 40
0
 40
0
 40
0
 40
1
 40
1
 40
1
 40
1
 10
65.680804
 20
69.475446
 30
0.0
 10
65.280378
 20
70.708972
 30
0.0
 10
65.340124
 20
72.390884
 30
0.0
 10
66.238840
 20
73.325893
 30
0.0
  0
SPLINE
  5
1d4
100
AcDbEntity
  8
Layer_2
 62
7
100
AcDbSpline
 70
8
 71
3
 72
8
 73
4
 74
0
 40
0
 40
0
 40
0
 40
0
 40
1
 40
1
 40
1
 40
1
 10
66.238840
 20
73.325893
 30
0.0
 10
67.095039
 20
74.216668
 30
0.0
 10
68.100742
 20
76.096454
 30
0.0
 10
69.531248
 20
76.562500
 30
0.0
  0
SPLINE
  5
1d5
100
AcDbEntity
  8
Layer_2
 62
7
100
AcDbSpline
 70
8
 71
3
 72
8
 73
4
 74
0
 40
0
 40
0
 40
0
 40
0
 40
1
 40
1
 40
1
 40
1
 10
69.531248
 20
76.562500
 30
0.0
 10
70.289572
 20
76.809556
 30
0.0
 10
70.809839
 20
75.563021
 30
0.0
 10
71.561549
 20
75.296525
 30
0.0
  0
SPLINE
  5
1d6
100
AcDbEntity
  8
Layer_2
 62
7
100
AcDbSpline
 70
8
 71
3
 72
8
 73
4
 74
0
 40
0
 40
0
 40
0
 40
0
 40
1
 40
1
 40
1
 40
1
 10
71.561549
 20
75.296525
 30
0.0
 10
73.793442
 20
74.505273
 30
0.0
 10
74.800875
 20
73.996312
 30
0.0
 10
76.283481
 20
72.600447
 30
0.0
  0
SPLINE
  5
1d7
100
AcDbEntity
  8
Layer_2
 62
7
100
AcDbSpline
 70
8
 71
3
 72
8
 73
4
 74
0
 40
0
 40
0
 40
0
 40
0
 40
1
 40
1
 40
1
 40
1
 10
76.283481
 20
72.600447
 30
0.0
 10
77.204705
 20
71.733120
 30
0.0
 10
77.190142
 20
69.463638
 30
0.0
 10
76.663949
 20
68.881337
 30
0.0
  0
SPLINE
  5
1d8
100
AcDbEntity
  8
Layer_2
 62
7
100
AcDbSpline
 70
8
 71
3
 72
8
 73
4
 74
0
 40
0
 40
0
 40
0
 40
0
 40
1
 40
1
 40
1
 40
1
 10
76.663949
 20
68.881337
 30
0.0
 10
76.043764
 20
68.195016
 30
0.0
 10
76.261577
 20
66.683447
 30
0.0
 10
75.725445
 20
65.848216
 30
0.0
  0
SPLINE
  5
1d9
100
AcDbEntity
  8
Layer_2
 62
7
100
AcDbSpline
 70
8
 71
3
 72
8
 73
4
 74
0
 40
0
 40
0
 40
0
 40
0
 40
1
 40
1
 40
1
 40
1
 10
75.725445
 20
65.848216
 30
0.0
 10
75.057417
 20
64.807505
 30
0.0
 10
73.365434
 20
66.085009
 30
0.0
 10
72.219978
 20
66.551128
 30
0.0
  0
SPLINE
  5
1da
100
AcDbEntity
  8
Layer_2
 62
7
100
AcDbSpline
 70
8
 71
3
 72
8
 73
4
 74
0
 40
0
 40
0
 40
0
 40
0
 40
1
 40
1
 40
1
 40
1
 10
72.219978
 20
66.551128
 30
0.0
 10
69.381854
 20
67.706036
 30
0.0
 10
68.974604
 20
66.667118
 30
0.0
 10
67.689733
 20
67.410714
 30
0.0
  0
LWPOLYLINE
  5
1db
100
AcDbEntity
  8
Layer_2
 62
7
100
AcDbPolyline
 90
1
 70
1
 10
42.131696
 20
57.700895
 30
0.0
  0
SPLINE
  5
1dc
100
AcDbEntity
  8
Layer_2
 62
7
100
AcDbSpline
 70
8
 71
3
 72
8
 73
4
 74
0
 40
0
 40
0
 40
0
 40
0
 40
1
 40
1
 40
1
 40
1
 10
94.252235
 20
73.772322
 30
0.0
 10
96.163536
 20
73.636094
 30
0.0
 10
96.227203
 20
71.616355
 30
0.0
 10
97.488836
 20
71.428572
 30
0.0
  0
SPLINE
  5
1dd
100
AcDbEntity
  8
Layer_2
 62
7
100
AcDbSpline
 70
8
 71
3
 72
8
 73
4
 74
0
 40
0
 40
0
 40
0
 40
0
 40
1
 40
1
 40
1
 40
1
 10
97.488836
 20
71.428572
 30
0.0
 10
98.135929
 20
71.332258
 30
0.0
 10
98.779480
 20
72.175644
 30
0.0
 10
99.386162
 20
71.930804
 30
0.0
  0
SPLINE
  5
1de
100
AcDbEntity
  8
Layer_2
 62
7
100
AcDbSpline
 70
8
 71
3
 72
8
 73
4
 74
0
 40
0
 40
0
 40
0
 40
0
 40
1
 40
1
 40
1
 40
1
 10
99.386162
 20
71.930804
 30
0.0
 10
100.051775
 20
71.662182
 30
0.0
 10
100.618728
 20
70.797544
 30
0.0
 10
100.502233
 20
70.089285
 30
0.0
  0
SPLINE
  5
1df
100
AcDbEntity
  8
Layer_2
 62
7
100
AcDbSpline
 70
8
 71
3
 72
8
 73
4
 74
0
 40
0
 40
0
 40
0
 40
0
 40
1
 40
1
 40
1
 40
1
 10
100.502233
 20
70.089285
 30
0.0
 10
100.352253
 20
69.177448
 30
0.0
 10
99.228741
 20
67.934181
 30
0.0
 10
98.381693
 20
68.303571
 30
0.0
  0
SPLINE
  5
1e0
100
AcDbEntity
  8
Layer_2
 62
7
100
AcDbSpline
 70
8
 71
3
 72
8
 73
4
 74
0
 40
0
 40
0
 40
0
 40
0
 40
1
 40
1
 40
1
 40
1
 10
98.381693
 20
68.303571
 30
0.0
 10
96.659268
 20
69.054705
 30
0.0
 10
96.412996
 20
68.450364
 30
0.0
 10
95.864847
 20
68.860505
 30
0.0
  0
SPLINE
  5
1e1
100
AcDbEntity
  8
Layer_2
 62
7
100
AcDbSpline
 70
8
 71
3
 72
8
 73
4
 74
0
 40
0
 40
0
 40
0
 40
0
 40
1
 40
1
 40
1
 40
1
 10
95.864847
 20
68.860505
 30
0.0
 10
94.733162
 20
69.707267
 30
0.0
 10
94.550436
 20
70.044333
 30
0.0
 10
94.252235
 20
70.758929
 30
0.0
  0
SPLINE
  5
1e2
100
AcDbEntity
  8
Layer_2
 62
7
100
AcDbSpline
 70
8
 71
3
 72
8
 73
4
 74
0
 40
0
 40
0
 40
0
 40
0
 40
1
 40
1
 40
1
 40
1
 10
94.252235
 20
70.758929
 30
0.0
 10
93.924927
 20
71.543277
 30
0.0
 10
93.386817
 20
73.834005
 30
0.0
 10
94.252235
 20
73.772322
 30
0.0
  0
LWPOLYLINE
  5
1e3
100
AcDbEntity
  8
Layer_2
 62
7
100
AcDbPolyline
 90
1
 70
1
 10
67.689733
 20
67.410714
 30
0.0
  0
SPLINE
  5
1e4
100
AcDbEntity
  8
Layer_2
 62
7
100
AcDbSpline
 70
8
 71
3
 72
8
 73
4
 74
0
 40
0
 40
0
 40
0
 40
0
 40
1
 40
1
 40
1
 40
1
 10
73.671361
 20
77.458477
 30
0.0
 10
74.029500
 20
76.517734
 30
0.0
 10
76.171294
 20
75.460084
 30
0.0
 10
76.796360
 20
75.114727
 30
0.0
  0
SPLINE
  5
1e5
100
AcDbEntity
  8
Layer_2
 62
7
100
AcDbSpline
 70
8
 71
3
 72
8
 73
4
 74
0
 40
0
 40
0
 40
0
 40
0
 40
1
 40
1
 40
1
 40
1
 10
76.796360
 20
75.114727
 30
0.0
 10
77.834797
 20
74.540976
 30
0.0
 10
78.671026
 20
75.628136
 30
0.0
 10
79.241070
 20
76.339286
 30
0.0
  0
SPLINE
  5
1e6
100
AcDbEntity
  8
Layer_2
 62
7
100
AcDbSpline
 70
8
 71
3
 72
8
 73
4
 74
0
 40
0
 40
0
 40
0
 40
0
 40
1
 40
1
 40
1
 40
1
 10
79.241070
 20
76.339286
 30
0.0
 10
79.816689
 20
77.057394
 30
0.0
 10
80.377356
 20
78.224598
 30
0.0
 10
79.910711
 20
79.017857
 30
0.0
  0
SPLINE
  5
1e7
100
AcDbEntity
  8
Layer_2
 62
7
100
AcDbSpline
 70
8
 71
3
 72
8
 73
4
 74
0
 40
0
 40
0
 40
0
 40
0
 40
1
 40
1
 40
1
 40
1
 10
79.910711
 20
79.017857
 30
0.0
 10
78.866218
 20
80.793408
 30
0.0
 10
79.059121
 20
84.198315
 30
0.0
 10
77.232142
 20
84.821429
 30
0.0
  0
SPLINE
  5
1e8
100
AcDbEntity
  8
Layer_2
 62
7
100
AcDbSpline
 70
8
 71
3
 72
8
 73
4
 74
0
 40
0
 40
0
 40
0
 40
0
 40
1
 40
1
 40
1
 40
1
 10
77.232142
 20
84.821429
 30
0.0
 10
76.714462
 20
84.997990
 30
0.0
 10
75.761430
 20
85.022485
 30
0.0
 10
74.720983
 20
85.100447
 30
0.0
  0
SPLINE
  5
1e9
100
AcDbEntity
  8
Layer_2
 62
7
100
AcDbSpline
 70
8
 71
3
 72
8
 73
4
 74
0
 40
0
 40
0
 40
0
 40
0
 40
1
 40
1
 40
1
 40
1
 10
74.720983
 20
85.100447
 30
0.0
 10
73.654040
 20
85.180395
 30
0.0
 10
74.105215
 20
81.365045
 30
0.0
 10
73.158482
 20
79.910714
 30
0.0
  0
SPLINE
  5
1ea
100
AcDbEntity
  8
Layer_2
 62
7
100
AcDbSpline
 70
8
 71
3
 72
8
 73
4
 74
0
 40
0
 40
0
 40
0
 40
0
 40
1
 40
1
 40
1
 40
1
 10
73.158482
 20
79.910714
 30
0.0
 10
72.567641
 20
79.003093
 30
0.0
 10
73.332612
 20
78.348290
 30
0.0
 10
73.671361
 20
77.458477
 30
0.0
  0
LWPOLYLINE
  5
1eb
100
AcDbEntity
  8
Layer_2
 62
7
100
AcDbPolyline
 90
1
 70
1
 10
94.252235
 20
73.772322
 30
0.0
  0
SPLINE
  5
1ec
100
AcDbEntity
  8
Layer_2
 62
7
100
AcDbSpline
 70
8
 71
3
 72
8
 73
4
 74
0
 40
0
 40
0
 40
0
 40
0
 40
1
 40
1
 40
1
 40
1
 10
124.497762
 20
64.118310
 30
0.0
 10
124.670002
 20
64.532400
 30
0.0
 10
125.474562
 20
64.608560
 30
0.0
 10
125.920762
 20
64.453130
 30
0.0
  0
SPLINE
  5
1ed
100
AcDbEntity
  8
Layer_2
 62
7
100
AcDbSpline
 70
8
 71
3
 72
8
 73
4
 74
0
 40
0
 40
0
 40
0
 40
0
 40
1
 40
1
 40
1
 40
1
 10
125.920762
 20
64.453130
 30
0.0
 10
126.701252
 20
64.181250
 30
0.0
 10
127.156842
 20
63.287220
 30
0.0
 10
127.483252
 20
62.527910
 30
0.0
  0
SPLINE
  5
1ee
100
AcDbEntity
  8
Layer_2
 62
7
100
AcDbSpline
 70
8
 71
3
 72
8
 73
4
 74
0
 40
0
 40
0
 40
0
 40
0
 40
1
 40
1
 40
1
 40
1
 10
127.483252
 20
62.527910
 30
0.0
 10
127.794432
 20
61.804040
 30
0.0
 10
128.237872
 20
59.896720
 30
0.0
 10
127.455352
 20
59.988850
 30
0.0
  0
SPLINE
  5
1ef
100
AcDbEntity
  8
Layer_2
 62
7
100
AcDbSpline
 70
8
 71
3
 72
8
 73
4
 74
0
 40
0
 40
0
 40
0
 40
0
 40
1
 40
1
 40
1
 40
1
 10
127.455352
 20
59.988850
 30
0.0
 10
126.613632
 20
60.087950
 30
0.0
 10
126.377592
 20
59.378950
 30
0.0
 10
125.976552
 20
59.402910
 30
0.0
  0
SPLINE
  5
1f0
100
AcDbEntity
  8
Layer_2
 62
7
100
AcDbSpline
 70
8
 71
3
 72
8
 73
4
 74
0
 40
0
 40
0
 40
0
 40
0
 40
1
 40
1
 40
1
 40
1
 10
125.976552
 20
59.402910
 30
0.0
 10
125.394992
 20
59.437610
 30
0.0
 10
125.398632
 20
60.499350
 30
0.0
 10
125.474322
 20
61.077010
 30
0.0
  0
SPLINE
  5
1f1
100
AcDbEntity
  8
Layer_2
 62
7
100
AcDbSpline
 70
8
 71
3
 72
8
 73
4
 74
0
 40
0
 40
0
 40
0
 40
0
 40
1
 40
1
 40
1
 40
1
 10
125.474322
 20
61.077010
 30
0.0
 10
125.590302
 20
61.962240
 30
0.0
 10
124.519162
 20
61.881270
 30
0.0
 10
124.637222
 20
62.676960
 30
0.0
  0
SPLINE
  5
1f2
100
AcDbEntity
  8
Layer_2
 62
7
100
AcDbSpline
 70
8
 71
3
 72
8
 73
4
 74
0
 40
0
 40
0
 40
0
 40
0
 40
1
 40
1
 40
1
 40
1
 10
124.637222
 20
62.676960
 30
0.0
 10
124.755282
 20
63.472650
 30
0.0
 10
124.284442
 20
63.605450
 30
0.0
 10
124.497762
 20
64.118310
 30
0.0
  0
LWPOLYLINE
  5
1f3
100
AcDbEntity
  8
Layer_2
 62
7
100
AcDbPolyline
 90
1
 70
1
 10
73.671361
 20
77.458477
 30
0.0
  0
LWPOLYLINE
  5
1f4
100
AcDbEntity
  8
Layer_2
 62
7
100
AcDbPolyline
 90
1
 70
1
 10
124.497762
 20
64.118310
 30
0.0
  0
ENDSEC
  0
SECTION
  2
OBJECTS
  0
DICTIONARY
  5
C
330
0
100
AcDbDictionary
  3
ACAD_GROUP
350
D
  3
ACAD_MLINESTYLE
350
17
  0
DICTIONARY
  5
D
330
C
100
AcDbDictionary
  0
DICTIONARY
  5
1A
330
C
100
AcDbDictionary
  0
DICTIONARY
  5
17
330
C
100
AcDbDictionary
  3
STANDARD
350
18
  0
DICTIONARY
  5
19
330
C
100
AcDbDictionary
  0
ENDSEC
  0
EOF
